<?xml version="1.0" encoding="UTF-8" standalone="no"?>
<!-- Created with Inkscape (http://www.inkscape.org/) -->

<svg
   xmlns:dc="http://purl.org/dc/elements/1.1/"
   xmlns:cc="http://creativecommons.org/ns#"
   xmlns:rdf="http://www.w3.org/1999/02/22-rdf-syntax-ns#"
   xmlns:svg="http://www.w3.org/2000/svg"
   xmlns="http://www.w3.org/2000/svg"
   xmlns:sodipodi="http://sodipodi.sourceforge.net/DTD/sodipodi-0.dtd"
   xmlns:inkscape="http://www.inkscape.org/namespaces/inkscape"
   width="2000"
   height="486.51279"
   id="svg3009"
   version="1.1"
   inkscape:version="0.48.5 r10040"
   sodipodi:docname="drawing-2.svg">
  <defs
     id="defs3011">
    <inkscape:perspective
       sodipodi:type="inkscape:persp3d"
       inkscape:vp_x="0 : 27.806 : 1"
       inkscape:vp_y="0 : 1000 : 0"
       inkscape:vp_z="187.086 : 27.806 : 1"
       id="perspective2863"
       inkscape:persp3d-origin="93.542999 : 18.537333 : 1" />
    <inkscape:perspective
       sodipodi:type="inkscape:persp3d"
       inkscape:vp_x="0 : 526.18109 : 1"
       inkscape:vp_y="0 : 1000 : 0"
       inkscape:vp_z="744.09448 : 526.18109 : 1"
       id="perspective2950"
       inkscape:persp3d-origin="372.04724 : 350.78739 : 1" />
    <inkscape:perspective
       sodipodi:type="inkscape:persp3d"
       inkscape:vp_x="0 : 526.18109 : 1"
       inkscape:vp_y="0 : 1000 : 0"
       inkscape:vp_z="744.09448 : 526.18109 : 1"
       id="perspective2740"
       inkscape:persp3d-origin="372.04724 : 350.78739 : 1" />
    <inkscape:perspective
       sodipodi:type="inkscape:persp3d"
       inkscape:vp_x="0 : 526.18109 : 1"
       inkscape:vp_y="0 : 1000 : 0"
       inkscape:vp_z="744.09448 : 526.18109 : 1"
       id="perspective2576"
       inkscape:persp3d-origin="372.04724 : 350.78739 : 1" />
    <inkscape:perspective
       sodipodi:type="inkscape:persp3d"
       inkscape:vp_x="0 : 526.18109 : 1"
       inkscape:vp_y="0 : 1000 : 0"
       inkscape:vp_z="744.09448 : 526.18109 : 1"
       id="perspective2526"
       inkscape:persp3d-origin="372.04724 : 350.78739 : 1" />
    <inkscape:perspective
       sodipodi:type="inkscape:persp3d"
       inkscape:vp_x="0 : 526.18109 : 1"
       inkscape:vp_y="0 : 1000 : 0"
       inkscape:vp_z="744.09448 : 526.18109 : 1"
       id="perspective2461"
       inkscape:persp3d-origin="372.04724 : 350.78739 : 1" />
    <inkscape:perspective
       sodipodi:type="inkscape:persp3d"
       inkscape:vp_x="0 : 526.18109 : 1"
       inkscape:vp_y="0 : 1000 : 0"
       inkscape:vp_z="744.09448 : 526.18109 : 1"
       id="perspective2615"
       inkscape:persp3d-origin="372.04724 : 350.78739 : 1" />
    <inkscape:perspective
       sodipodi:type="inkscape:persp3d"
       inkscape:vp_x="0 : 526.18109 : 1"
       inkscape:vp_y="0 : 1000 : 0"
       inkscape:vp_z="744.09448 : 526.18109 : 1"
       id="perspective2546"
       inkscape:persp3d-origin="372.04724 : 350.78739 : 1" />
    <inkscape:perspective
       sodipodi:type="inkscape:persp3d"
       inkscape:vp_x="0 : 27.806 : 1"
       inkscape:vp_y="0 : 1000 : 0"
       inkscape:vp_z="187.086 : 27.806 : 1"
       id="perspective2485"
       inkscape:persp3d-origin="93.542999 : 18.537333 : 1" />
    <inkscape:perspective
       sodipodi:type="inkscape:persp3d"
       inkscape:vp_x="0 : 526.18109 : 1"
       inkscape:vp_y="0 : 1000 : 0"
       inkscape:vp_z="744.09448 : 526.18109 : 1"
       id="perspective10"
       inkscape:persp3d-origin="372.04724 : 350.78739 : 1" />
  </defs>
  <sodipodi:namedview
     id="base"
     pagecolor="#ffffff"
     bordercolor="#666666"
     borderopacity="1.0"
     inkscape:pageopacity="0.0"
     inkscape:pageshadow="2"
     inkscape:zoom="0.22939142"
     inkscape:cx="1721.3767"
     inkscape:cy="119.19201"
     inkscape:document-units="px"
     inkscape:current-layer="layer1"
     showgrid="false"
     fit-margin-top="0"
     fit-margin-left="0"
     fit-margin-right="0"
     fit-margin-bottom="0"
     inkscape:window-width="1030"
     inkscape:window-height="1026"
     inkscape:window-x="889"
     inkscape:window-y="-11"
     inkscape:window-maximized="0">
    <inkscape:grid
       type="xygrid"
       id="grid3039"
       empspacing="5"
       visible="true"
       enabled="true"
       snapvisiblegridlinesonly="true"
       originx="662px"
       originy="590.51282px" />
  </sodipodi:namedview>
  <metadata
     id="metadata3014">
    <rdf:RDF>
      <cc:Work
         rdf:about="">
        <dc:format>image/svg+xml</dc:format>
        <dc:type
           rdf:resource="http://purl.org/dc/dcmitype/StillImage" />
        <dc:title />
      </cc:Work>
    </rdf:RDF>
  </metadata>
  <g
     inkscape:label="Layer 1"
     inkscape:groupmode="layer"
     id="layer1"
     transform="translate(662,-1156.3622)">
    <path
       id="path3281"
       d="m 345.6543,1240.557 c 0,14.1562 -17.61637,13.3161 -17.61637,13.3161 h -17.6159 v -25.5796 h 17.6159 c 18.12921,-0.1216 17.61637,12.2635 17.61637,12.2635 m -35.23227,-51.2744 h 13.42356 c 13.93915,0.7363 13.41304,11.1143 13.41304,11.1143 0,12.897 -15.41322,13.1073 -15.41322,13.1073 h -11.42338 v -24.2216 z m 31.97374,29.2518 c 0,0 12.05779,-5.1381 11.95038,-18.7664 0,0 1.83382,-22.3348 -27.75808,-25.059 h -32.83578 v 93.6326 h 37.63788 c 0,0 31.4481,0.094 31.4481,-26.4189 -4.6e-4,0 0.7432,-18.0423 -20.4425,-23.3883 m -84.97823,-62.1722 h 138.24554 v 130.274 H 257.41754 v -130.274 z m -71.18215,84.1948 c 0,14.1562 -17.61637,13.3161 -17.61637,13.3161 h -17.61727 v -25.5796 h 17.61727 c 18.13059,-0.1216 17.61637,12.2635 17.61637,12.2635 m -35.23364,-51.2744 h 13.4263 c 13.93961,0.7363 13.41213,11.1143 13.41213,11.1143 0,12.897 -15.41231,13.1073 -15.41231,13.1073 h -11.42612 v -24.2216 z m 31.97648,29.2518 c 0,0 12.05962,-5.1381 11.9513,-18.7664 0,0 1.83243,-22.3348 -27.75945,-25.059 h -32.83717 v 93.6326 h 37.64018 c 0,0 31.44763,0.094 31.44763,-26.4189 0,0 0.74093,-18.0423 -20.44249,-23.3883 M 98,1156.3622 h 138.24554 v 130.274 H 98 v -130.274 z m 428.87962,25.0595 v 17.2987 c 0,0 -16.88549,-10.3767 -35.54444,-10.5856 0,0 -34.81175,-0.6833 -36.38091,33.3693 0,0 -1.25743,31.3159 35.96131,33.1004 0,0 15.61618,1.8808 36.80141,-11.6286 v 17.9153 c 0,0 -28.41809,16.8841 -61.33889,3.8797 0,0 -27.67397,-10.1057 -28.72801,-43.2668 0,0 -1.15093,-34.107 35.75746,-45.4289 0,0 9.85603,-3.7733 27.56793,-2.0962 4.6e-4,-4e-4 10.58644,1.0467 25.90414,7.4427 m -110.04409,105.2145 h 138.24554 v -130.274 H 416.83553 v 130.274 z"
       inkscape:connector-curvature="0"
       style="fill:#000000" />
    <path
       style="fill:#000000;stroke:none"
       d="m -557.53955,1400.875 5.73451,19.5 8.30504,0 0,72 -117.5,0 c -0.6677,0 -1,0.2602 -1,1 l 0,9 c 0,0.6866 0.26282,1 1,1 l 129,0 c 0,0 -11.5,5.4453 -11.5,21 l 0,70 72.71875,0 c 60.63607,0 97.3125,-45.0492 97.3125,-96.9062 0,-55.9492 -41.96201,-96.5938 -94.65625,-96.5938 z m 36.03955,19.5 52.5625,0 c 46.26095,0 74.59375,36.3563 74.59375,77.4062 0,43.6708 -33.12647,77.1876 -72.34375,77.1876 l -54.8125,0 0,-55.5938 c 0,-8.4818 6.83168,-16 15.5,-16 l 27,0 c 0.64891,0 1,-0.3037 1,-1 l 0,-9 c 0,-0.6564 -0.30423,-1 -1,-1 l -42.5,0 z"
       id="path3296"
       inkscape:connector-curvature="0"
       sodipodi:nodetypes="ccccsssscscsssccssscsssssscc" />
    <path
       style="fill:#000000;stroke:none"
       d="m -261,1409.9375 c -51.19931,0 -87.625,41.6481 -87.625,87.2813 0,52.9895 42.64074,88.375 87.625,88.375 45.69067,0 87.75,-36.765 87.75,-87.7813 0,-46.6397 -36.7817,-87.875 -87.75,-87.875 z m -0.0312,19.4063 c 42.61734,0 66.6875,32.9698 66.6875,68.9062 0,36.6886 -27.61448,67.75 -66.125,67.75 -39.02404,0 -67.40625,-30.6652 -67.40625,-68.8438 0,-37.5893 28.58146,-67.8124 66.84375,-67.8124 z"
       id="path3303"
       inkscape:connector-curvature="0" />
    <path
       id="path3308"
       d="M -13.815386,1546.1109 C -25.519504,1558.33 -41.965603,1566 -61.102258,1566 c -39.024042,0 -67.406252,-30.6652 -67.406252,-68.8438 0,-37.5893 28.581462,-67.8124 66.843752,-67.8124 20.674609,0 36.984262,7.7592 48.2984,19.8522 L 0.36980585,1435.3804 C -15.13082,1419.8197 -36.682223,1409.9375 -61.633508,1409.9375 c -51.199312,0 -87.625002,41.6481 -87.625002,87.2813 0,52.9895 42.64074,88.375 87.625002,88.375 23.332878,0 45.71876,-9.5877 62.04000109,-25.765 z"
       style="fill:#000000;stroke:none"
       inkscape:connector-curvature="0"
       sodipodi:nodetypes="csssccssscc" />
    <path
       style="fill:#000000;stroke:none"
       d="m 83,1580.6622 0,-147.3 -59,0 -5.558849,-19.5 152.558849,0 -6,19.5 -60.5,0 0,147.3 z"
       id="path3310"
       inkscape:connector-curvature="0"
       sodipodi:nodetypes="ccccccccc" />
    <path
       id="path3312"
       d="m 258.06975,1409.9375 c -51.19931,0 -87.625,41.6481 -87.625,87.2813 0,52.9895 42.64074,88.375 87.625,88.375 45.69067,0 87.75,-36.765 87.75,-87.7813 0,-46.6397 -36.7817,-87.875 -87.75,-87.875 z m -0.0312,19.4063 c 42.61734,0 66.6875,32.9698 66.6875,68.9062 0,36.6886 -27.61448,67.75 -66.125,67.75 -39.02404,0 -67.40625,-30.6652 -67.40625,-68.8438 0,-37.5893 28.58146,-67.8124 66.84375,-67.8124 z"
       style="fill:#000000;stroke:none"
       inkscape:connector-curvature="0" />
    <path
       style="fill:#000000;stroke:none"
       d="m 363.21875,1413.875 5.78125,19.5 8.5,0 0,147.5 21.5,0 0,-63.7188 43,0 42.3125,63.7188 24.90625,0 -43.46875,-65.25 c 18.28983,-4.8828 39.28125,-20.4153 39.28125,-50.3438 0,-24.0992 -18.91747,-51.4062 -51.03125,-51.4062 l -90.78125,0 z m 35.78125,19.5 54,0 c 19.60832,0 30.65625,14.4791 30.65625,31.375 0,17.25 -10.73083,32.8125 -30.65625,32.8125 l -54,0 0,-64.1875 z"
       id="path3314"
       inkscape:connector-curvature="0" />
    <path
       style="fill:#000000;stroke:none"
       d="m 575.75185,1413.8622 22.64157,0 44.93744,142.5551 45.94486,-142.5551 21.11421,0 45.94093,143.6654 44.8113,-143.6654 22.77985,0 -54.59115,167 -25.77201,0 -44.40288,-133.8257 -43.60453,133.8257 -24.99259,0 z"
       id="path3319"
       inkscape:connector-curvature="0"
       sodipodi:nodetypes="cccccccccccccc" />
    <path
       style="fill:#000000;stroke:none;stroke-width:0.10000000000000001"
       d="m 981,1351.875 0,140.5 -105,0 0,-78.5 -21.5,0 0,78.5 -26.5,0 c -0.68993,0 -1,0.4239 -1,1 l 0,9 c 0,0.7223 0.29217,1 1,1 l 37.4375,0 c 0,0 -10.9375,7.0423 -10.9375,17.6562 l 0,121.8438 21.5,0 0,-123.5 c 0,-8.4597 6.43761,-16 16,-16 l 99.375,0 c 0,0 -10.375,7.3312 -10.375,19 l 0,58.5 21.5,0 0,-77.5 49.375,0 c 0,0 -8,6.1191 -8,16.4062 0,30.6604 39.9271,72.625 90.7188,72.625 48.4324,0 92.4725,-38.8032 94.0937,-89.0312 l 108.3125,0 1,-1 0,-9 -1,-1 -108.3125,0 c -2.1223,-51.5102 -45.101,-89.5938 -93.9375,-89.5938 -55.2969,0 -92.9412,42.9466 -94.9688,89.5938 l -37.2812,0 0,-140.5 z m 153.125,69.5 c 33.2518,0 70.58,21.7971 74.1562,71 l -148.2812,0 c 2.9204,-42.7523 35.0336,-71 74.125,-71 z m -74.125,82 148.4375,0 c -2.8837,46.0957 -40.209,70.5938 -74.2187,70.5938 -44.5562,0 -71.1303,-32.5751 -74.2188,-70.5938 z"
       id="path3321"
       inkscape:connector-curvature="0"
       sodipodi:nodetypes="ccccccsssscscccccsccccssccccccsccccsccsccsc" />
  </g>
</svg>
