<?xml version="1.0" encoding="UTF-8" ?>
<!DOCTYPE svg PUBLIC "-//W3C//DTD SVG 1.1//EN" "http://www.w3.org/Graphics/SVG/1.1/DTD/svg11.dtd">
<svg width="321pt" height="355pt" viewBox="0 0 321 355" version="1.1" xmlns="http://www.w3.org/2000/svg">
<g id="#ffffffff">
</g>
<g id="#050505ff">
<path fill="#050505" opacity="1.00" d=" M 3.14 3.00 C 23.63 3.00 44.13 3.00 64.62 3.00 C 64.62 12.00 64.62 21.00 64.62 30.00 C 56.03 30.03 47.44 29.93 38.86 30.06 C 38.86 38.69 38.86 47.31 38.86 55.94 C 46.52 56.07 54.19 55.97 61.86 56.00 C 61.86 64.67 61.86 73.33 61.86 82.00 C 54.19 82.03 46.52 81.93 38.86 82.06 C 38.87 101.37 38.86 120.69 38.86 140.00 C 26.95 140.00 15.05 140.00 3.14 140.00 C 3.14 94.33 3.14 48.67 3.14 3.00 M 5.32 118.00 C 5.31 118.74 5.30 120.23 5.29 120.98 C 5.94 120.99 7.22 121.01 7.87 121.02 C 7.85 125.65 7.87 130.28 7.85 134.92 C 9.18 134.96 10.51 134.99 11.84 135.03 C 11.84 130.38 11.85 125.74 11.83 121.09 C 12.56 121.05 14.00 120.98 14.72 120.94 C 14.71 120.21 14.69 118.73 14.68 118.00 C 11.56 118.00 8.44 118.00 5.32 118.00 M 16.31 118.00 C 16.31 123.67 16.31 129.33 16.31 135.00 C 17.62 135.00 18.93 135.00 20.24 135.00 C 20.24 132.67 20.24 130.33 20.24 128.00 C 20.62 128.00 21.38 128.00 21.76 128.00 C 21.76 130.33 21.76 132.67 21.76 135.00 C 23.12 135.00 24.48 135.00 25.84 135.00 C 25.84 129.33 25.84 123.67 25.84 118.00 C 24.48 118.00 23.12 118.00 21.76 118.00 C 21.76 120.33 21.76 122.67 21.76 125.00 C 21.38 125.00 20.62 125.00 20.24 125.00 C 20.24 122.67 20.24 120.33 20.24 118.00 C 18.93 118.00 17.62 118.00 16.31 118.00 M 28.31 118.00 C 28.31 123.67 28.31 129.33 28.31 135.00 C 30.73 135.00 33.15 135.00 35.57 135.00 C 35.57 134.25 35.58 132.76 35.58 132.01 C 34.52 132.00 33.45 132.00 32.39 132.00 C 32.38 130.69 32.37 129.38 32.36 128.07 C 33.06 128.02 34.45 127.92 35.15 127.86 C 35.15 127.18 35.16 125.82 35.16 125.13 C 34.46 125.08 33.06 124.98 32.36 124.93 C 32.37 123.62 32.38 122.31 32.39 121.00 C 33.10 121.00 34.53 121.00 35.24 121.00 C 35.24 120.25 35.24 118.75 35.24 118.00 C 32.93 118.00 30.62 118.00 28.31 118.00 Z" />
<path fill="#050505" opacity="1.00" d=" M 73.14 3.00 C 92.97 3.00 112.79 3.00 132.62 3.00 C 132.62 12.00 132.62 21.00 132.62 30.00 C 124.67 30.00 116.71 30.00 108.76 30.00 C 108.76 38.67 108.76 47.33 108.76 56.00 C 116.22 56.02 123.69 55.96 131.16 56.04 C 131.15 64.68 131.15 73.32 131.16 81.96 C 123.69 82.04 116.22 81.98 108.76 82.00 C 108.76 92.33 108.76 102.67 108.76 113.00 C 117.46 113.00 126.16 113.00 134.86 113.00 C 134.86 122.00 134.86 131.00 134.86 140.00 C 114.29 140.00 93.72 140.00 73.14 140.00 C 73.14 94.33 73.14 48.67 73.14 3.00 Z" />
<path fill="#050505" opacity="1.00" d=" M 155.24 3.06 C 172.27 2.93 189.31 3.03 206.35 3.00 C 213.32 48.65 220.27 94.30 226.93 139.99 C 214.86 140.00 202.79 140.01 190.72 139.99 C 189.90 131.67 189.55 123.32 188.65 115.01 C 184.38 114.99 180.10 115.00 175.82 115.00 C 175.17 123.34 174.55 131.68 173.70 140.00 C 161.48 139.97 149.26 140.05 137.04 139.96 C 142.93 94.31 149.24 48.70 155.24 3.06 M 180.82 44.08 C 178.79 59.69 176.60 75.30 175.27 91.00 C 179.47 91.00 183.67 91.00 187.88 91.00 C 185.73 72.65 184.29 54.22 182.29 35.87 C 181.43 38.53 181.25 41.33 180.82 44.08 Z" />
<path fill="#050505" opacity="1.00" d=" M 232.84 3.04 C 247.57 2.95 262.29 3.02 277.02 3.00 C 279.42 2.83 281.62 4.11 284.02 3.98 C 292.15 3.69 301.02 6.16 306.24 12.80 C 311.62 18.80 312.72 27.18 313.36 34.90 C 313.51 42.76 313.79 50.86 311.30 58.43 C 308.82 65.74 300.18 68.37 293.18 68.13 C 297.03 69.40 301.07 70.34 304.57 72.48 C 309.98 76.09 313.41 82.47 313.24 89.01 C 313.65 106.00 313.32 123.00 313.43 140.00 C 302.36 140.00 291.30 140.00 280.24 140.00 C 280.24 125.67 280.24 111.34 280.25 97.02 C 280.26 92.14 280.37 87.18 279.23 82.41 C 278.35 78.24 273.17 78.00 269.76 77.86 C 269.75 98.57 269.76 119.29 269.76 140.00 C 257.45 139.97 245.14 140.05 232.84 139.96 C 232.84 94.32 232.84 48.68 232.84 3.04 M 269.76 25.85 C 269.75 36.27 269.76 46.70 269.76 57.12 C 273.33 57.04 278.83 56.75 279.48 52.25 C 280.67 45.59 280.49 38.65 279.79 31.95 C 279.38 27.02 273.84 25.76 269.76 25.85 Z" />
<path fill="#050505" opacity="1.00" d=" M 286.99 148.91 C 290.90 147.50 295.11 148.05 299.18 148.08 C 304.97 149.55 311.25 152.33 313.77 158.16 C 315.91 163.48 315.56 169.35 315.80 174.98 C 309.72 175.02 303.65 174.99 297.57 175.00 C 297.57 170.64 297.67 166.28 297.37 161.93 C 297.03 161.43 296.34 160.43 295.99 159.93 C 295.18 160.01 293.55 160.17 292.74 160.25 C 291.55 165.75 291.89 171.40 291.86 176.98 C 291.96 185.30 291.66 193.64 292.00 201.95 C 292.25 203.83 292.16 207.30 294.94 207.02 C 296.40 207.40 297.45 205.83 297.67 204.60 C 298.56 200.50 298.00 196.27 298.15 192.11 C 297.28 192.07 295.54 191.97 294.67 191.92 C 294.69 188.62 294.69 185.32 294.69 182.02 C 301.71 181.98 308.73 182.01 315.76 182.00 C 315.76 194.00 315.76 206.00 315.76 218.00 C 311.85 217.99 307.94 218.05 304.03 217.91 C 303.65 216.46 303.27 215.00 302.91 213.55 C 295.66 223.49 278.79 218.99 275.19 207.96 C 273.36 201.49 273.95 194.63 273.84 187.98 C 273.99 179.25 273.36 170.47 274.60 161.79 C 275.19 155.31 281.06 150.54 286.99 148.91 Z" />
<path fill="#050505" opacity="1.00" d=" M 0.00 149.35 C 6.13 148.70 12.30 149.09 18.45 149.02 C 19.44 164.91 20.94 180.77 21.57 196.68 C 22.76 180.74 24.92 164.90 27.07 149.07 C 32.96 148.94 38.84 149.01 44.73 149.01 C 46.42 164.88 47.69 180.79 49.07 196.69 C 50.24 180.76 51.59 164.84 53.69 149.00 C 59.91 149.00 66.14 148.99 72.36 149.01 C 69.48 171.98 66.81 194.97 64.12 217.96 C 56.55 218.02 48.98 218.02 41.41 217.97 C 39.14 206.43 37.59 194.77 35.81 183.15 C 33.77 194.71 32.50 206.39 30.71 217.98 C 23.47 217.98 16.23 218.07 8.99 217.92 C 6.49 195.27 3.74 172.64 0.89 150.03 C 0.66 150.18 0.22 150.48 0.00 150.63 L 0.00 149.35 Z" />
<path fill="#050505" opacity="1.00" d=" M 81.65 148.98 C 90.17 149.03 98.69 148.97 107.21 149.01 C 110.79 171.99 114.30 194.99 117.67 218.00 C 111.60 218.00 105.53 218.00 99.46 218.00 C 99.22 213.99 98.70 210.00 98.50 205.99 C 96.30 205.99 94.10 206.01 91.89 206.06 C 91.64 210.01 91.20 213.95 91.02 217.91 C 84.79 218.09 78.55 217.97 72.32 217.99 C 75.38 194.98 78.59 171.99 81.65 148.98 M 91.52 193.97 C 93.78 194.00 96.04 194.00 98.31 194.01 C 96.90 184.17 96.21 174.25 95.09 164.38 C 93.88 174.24 92.36 184.07 91.52 193.97 Z" />
<path fill="#050505" opacity="1.00" d=" M 121.38 149.00 C 127.40 149.00 133.41 149.00 139.43 149.00 C 139.43 167.33 139.43 185.67 139.43 204.00 C 143.09 204.00 146.76 204.00 150.43 204.00 C 150.43 208.67 150.43 213.33 150.43 218.00 C 140.74 218.00 131.06 218.00 121.38 218.00 C 121.38 195.00 121.38 172.00 121.38 149.00 Z" />
<path fill="#050505" opacity="1.00" d=" M 154.57 149.00 C 160.59 149.00 166.60 149.00 172.62 149.00 C 172.62 157.77 172.61 166.55 172.63 175.32 C 175.41 166.48 178.67 157.81 181.56 149.00 C 187.08 149.02 192.60 148.96 198.12 149.05 C 194.67 159.14 191.07 169.18 187.85 179.34 C 187.38 180.67 188.23 181.98 188.49 183.27 C 192.02 194.83 195.53 206.40 199.06 217.97 C 192.98 218.02 186.90 218.00 180.83 217.98 C 178.15 208.35 175.31 198.76 172.64 189.13 C 172.60 198.75 172.63 208.38 172.62 218.00 C 166.60 218.00 160.59 218.00 154.57 218.00 C 154.57 195.00 154.57 172.00 154.57 149.00 Z" />
<path fill="#050505" opacity="1.00" d=" M 201.38 149.00 C 207.40 149.00 213.41 149.00 219.43 149.00 C 219.43 172.00 219.43 195.00 219.43 218.00 C 213.41 218.00 207.40 218.00 201.38 218.00 C 201.38 195.00 201.38 172.00 201.38 149.00 Z" />
<path fill="#050505" opacity="1.00" d=" M 226.38 149.00 C 231.44 148.99 236.50 149.01 241.56 148.98 C 244.81 159.11 248.04 169.23 251.37 179.33 C 251.39 169.22 251.38 159.11 251.38 149.00 C 256.79 149.00 262.21 149.00 267.62 149.00 C 267.62 172.00 267.62 195.00 267.62 218.00 C 261.98 218.00 256.34 218.00 250.71 218.00 C 247.61 207.90 244.70 197.75 241.66 187.64 C 241.58 197.76 241.64 207.88 241.62 218.00 C 236.54 218.00 231.46 218.00 226.38 218.00 C 226.38 195.00 226.38 172.00 226.38 149.00 Z" />
<path fill="#050505" opacity="1.00" d=" M 3.38 225.00 C 17.32 225.05 31.27 224.90 45.21 225.07 C 50.02 226.65 55.19 225.32 60.00 226.92 C 67.03 228.20 73.84 232.24 77.10 238.78 C 80.18 244.33 80.07 250.87 80.38 257.03 C 80.70 279.68 80.82 302.35 80.32 325.00 C 79.89 331.69 79.62 339.36 74.36 344.25 C 69.32 349.38 61.82 350.10 55.09 351.00 C 37.86 351.01 20.62 350.99 3.38 351.00 C 3.38 309.00 3.38 267.00 3.38 225.00 M 36.43 245.89 C 36.43 273.99 36.40 302.09 36.45 330.19 C 39.23 330.00 42.54 329.75 44.52 327.59 C 46.64 323.43 46.23 318.56 46.39 314.03 C 46.22 293.32 46.70 272.58 46.14 251.88 C 46.07 246.97 40.43 245.50 36.43 245.89 Z" />
<path fill="#050505" opacity="1.00" d=" M 92.24 225.00 C 110.55 225.02 128.85 224.95 147.16 225.04 C 147.15 233.35 147.15 241.65 147.16 249.96 C 139.91 250.04 132.67 249.98 125.43 250.00 C 125.43 258.00 125.43 266.00 125.43 274.00 C 132.16 274.00 138.89 274.00 145.62 274.00 C 145.62 282.00 145.62 290.00 145.62 298.00 C 138.89 298.00 132.16 298.00 125.43 298.00 C 125.43 307.33 125.43 316.67 125.43 326.00 C 133.39 326.01 141.35 325.98 149.31 326.02 C 149.31 334.34 149.31 342.66 149.31 350.98 C 130.29 351.02 111.26 350.99 92.24 351.00 C 92.24 309.00 92.24 267.00 92.24 225.00 Z" />
<path fill="#050505" opacity="1.00" d=" M 167.77 225.00 C 183.54 225.03 199.30 224.95 215.07 225.04 C 221.50 267.00 227.86 308.98 234.15 350.97 C 222.96 351.03 211.76 350.99 200.57 350.99 C 199.97 343.33 199.46 335.65 198.65 328.01 C 194.71 327.99 190.77 328.00 186.82 328.00 C 186.41 335.65 185.27 343.25 185.04 350.91 C 173.65 351.09 162.25 350.98 150.86 350.97 C 156.49 308.98 162.23 267.00 167.77 225.00 M 192.79 252.80 C 190.49 270.51 187.85 288.19 186.26 305.99 C 190.20 306.00 194.15 306.02 198.09 305.96 C 195.95 288.28 194.32 270.54 192.79 252.80 Z" />
<path fill="#050505" opacity="1.00" d=" M 239.38 225.00 C 252.93 224.99 266.47 225.01 280.01 224.98 C 283.09 224.77 285.93 226.34 289.01 226.00 C 297.84 226.27 307.61 229.49 312.38 237.48 C 315.55 242.36 315.97 248.28 316.28 253.92 C 316.81 273.28 316.57 292.65 316.61 312.02 C 316.21 320.52 316.91 329.21 314.58 337.50 C 312.38 344.63 305.22 349.02 298.11 349.95 C 295.37 350.08 292.78 351.21 290.01 351.02 C 273.14 350.98 256.26 351.01 239.38 351.00 C 239.38 309.00 239.38 267.00 239.38 225.00 M 273.43 245.89 C 273.43 273.98 273.42 302.08 273.44 330.17 C 276.23 330.02 279.55 329.75 281.54 327.57 C 283.64 323.40 283.23 318.53 283.39 313.99 C 283.37 294.98 283.39 275.97 283.38 256.96 C 283.23 254.31 283.54 251.48 282.33 249.04 C 280.41 246.10 276.60 245.85 273.43 245.89 Z" />
</g>
</svg>
