<svg xmlns="http://www.w3.org/2000/svg" viewBox="0 0 971.82 124.75"><defs><style>.cls-1{fill:#fff;}</style></defs><title>got</title><g id="Layer_2" data-name="Layer 2"><g id="Layer_1-2" data-name="Layer 1"><path class="cls-1" d="M106.2,70.53C104.09,71.72,103,73.8,103,76.8v39.13c0,.11-.1.26-.31.47a33.63,33.63,0,0,1-8.12,4.49,50.38,50.38,0,0,1-9.13,2.55A73.8,73.8,0,0,1,76,124.52c-3.15.16-6.22.23-9.21.23q-6.81,0-13.77-.46a54.31,54.31,0,0,1-38.75-19.88A62.25,62.25,0,0,1,3.71,85.23,69.13,69.13,0,0,1,0,62.56,56.92,56.92,0,0,1,5,38.2,51,51,0,0,1,18.49,20.4a58.45,58.45,0,0,1,20-10.83A80.42,80.42,0,0,1,63,5.94a129.62,129.62,0,0,1,14,.77q7,.78,13.84,1.7l6.11.93q3,.46,6.11.78a.55.55,0,0,1,.62.62q-.32,5.57-1.08,10.9T101,32.39c-.1.73-.21,1.42-.31,2.09s-.21,1.32-.31,1.94q0,.46-.54.54a.57.57,0,0,1-.7-.39,30,30,0,0,0-4.48-11.45,29.45,29.45,0,0,0-8-8,33.47,33.47,0,0,0-10.6-4.65A50.67,50.67,0,0,0,63.89,11,54.75,54.75,0,0,0,44,14.6a48.81,48.81,0,0,0-16,10A46.55,46.55,0,0,0,17.25,40.05,49.24,49.24,0,0,0,13.3,59.93a57.31,57.31,0,0,0,4.34,22.2,58.29,58.29,0,0,0,11.83,18.26,55.57,55.57,0,0,0,17.79,12.37,54,54,0,0,0,22.2,4.57,48.26,48.26,0,0,0,10.37-1.16,17.39,17.39,0,0,0,9-5V76.33q0-3.7-2.32-5a27.93,27.93,0,0,0-5.26-2.24,25.12,25.12,0,0,1-2.47-.77,13.36,13.36,0,0,1-2.48-1.24c-.31-.21-.41-.44-.31-.7a.61.61,0,0,1,.62-.38q9.28,0,18.33.15t18.33.62L113.4,68A23.53,23.53,0,0,0,106.2,70.53Z"/><path class="cls-1" d="M187.66,111.6l-4.1-.31c-.83-.1-1.68-.18-2.56-.23s-1.77-.08-2.7-.08q-3.57,0-7.12.32l-7.12.61a.6.6,0,0,1-.62-.46.62.62,0,0,1,.31-.77l6-2.94q-2.64-7.27-5.5-14.31T158.8,79h-24q-.76,2-2.24,6t-2.86,8.2q-1.4,4.26-2.48,8a23,23,0,0,0-1.08,5.49,2.87,2.87,0,0,0,2,3,24.63,24.63,0,0,0,3.87,1v1.23q-2.94-.3-6-.54t-6.19-.23q-3.1,0-6.19.23c-2.06.16-4.13.34-6.19.54-.31.11-.49,0-.54-.46s.08-.67.39-.77a14.14,14.14,0,0,0,11.91-9v.16q4.48-11.3,8.66-22.59t8.2-22.74q2.79-7.74,5.42-15.39t5.57-15.4a.64.64,0,0,1,1.23,0c.52,1.45,1.06,2.86,1.63,4.26s1.11,2.81,1.62,4.25q6.34,17.32,13.23,34.81a340.89,340.89,0,0,0,15.7,34.19,11.71,11.71,0,0,0,4.72,5.1,16.66,16.66,0,0,0,6.58,1.86v1.24A17.93,17.93,0,0,1,187.66,111.6ZM146.89,41.68q-2.62,8.2-5,16t-5.33,16.17h19.95Z"/><path class="cls-1" d="M303.4,111.76H290.87q-6.19,0-12.22-.31c-.62,0-.83-.26-.62-.77a3.36,3.36,0,0,0,.23-.62,3.12,3.12,0,0,1,.23-.62l.93-2.79a8.29,8.29,0,0,0,.46-2.63q0-8.82-.85-17.4T277.1,69.37c-.42-3.51-.8-6.63-1.16-9.36s-.65-5.9-.85-9.51q-5.89,11.3-11.3,22.58T253,96c-1.23,2.58-2.45,5.13-3.63,7.66s-2.4,5.08-3.64,7.65a.49.49,0,0,1-.46.31.86.86,0,0,1-.62-.31,152.41,152.41,0,0,1-12.3-20.18q-5.19-10.29-9.82-20.66Q220,65,218.08,60.63T213.52,51q-.47,3.87-.93,7.5t-.93,7.2q-1.24,9.59-2.17,19t-.93,19.19c0,1.85.47,3.12,1.4,3.79a15,15,0,0,0,3.4,1.78,15.73,15.73,0,0,0,1.7.69c.72.26,1.19.44,1.39.54a.64.64,0,0,1,.31.78.6.6,0,0,1-.62.46c-1.44,0-2.86,0-4.25-.08s-2.81-.12-4.25-.23-2.89-.18-4.34-.23-2.89-.08-4.33-.08h-3.09a18.14,18.14,0,0,0-3.1.31c-.31.11-.51,0-.62-.46s0-.67.31-.77a8.34,8.34,0,0,1,1.86-.31,25.67,25.67,0,0,0,2.94-.7,4.58,4.58,0,0,0,2.32-2.09,17.4,17.4,0,0,0,.85-4q.54-3.56,1.24-9t1.55-12.45q.84-7,1.62-14.24T206.4,53.2q.76-7,1.39-12.91c.41-3.41.72-6.42.93-9s.41-4.52.62-5.65c0-.31.12-.49.38-.54a.74.74,0,0,1,.7.23,49.3,49.3,0,0,1,5.26,8q3.4,6,7.35,13.84t8.2,16.71q4.25,8.82,7.81,16.4,2.63,5.42,4.33,9.28c1.13,2.58,2.17,4.75,3.1,6.5q2.46-5,5-10.75t5-11.53Q261.94,61.17,268,48.33a169.15,169.15,0,0,1,12.84-22.9.66.66,0,0,1,.62-.23c.2.05.31.23.31.54q.3,1.86.54,5.19c.16,2.21.39,4.77.7,7.65q.47,5.73,1.16,12.53T285.61,65q.76,7.11,1.54,13.84t1.63,12.3q.84,5.58,1.62,9.36c.52,2.53,1,4.1,1.55,4.72a8.74,8.74,0,0,0,3.25,3.17,13.65,13.65,0,0,0,3.71,1,11.05,11.05,0,0,0,2.24.39,6.26,6.26,0,0,1,2.4.69Z"/><path class="cls-1" d="M353,104c-.31,2.21-.62,4.51-.93,6.88,0,.31-.21.46-.62.46l-.15.16a6.07,6.07,0,0,1-2,.46c-2.38,0-4.77,0-7.2-.07s-4.82-.08-7.19-.08q-3.11,0-6-.08t-6-.08q-4.17,0-8.43.08t-8.43.23v-1.23a6.3,6.3,0,0,0,6-3.56,10.53,10.53,0,0,0,1-3.48,34.21,34.21,0,0,0,.23-4V35.33q0-3.09-1.47-4a16.32,16.32,0,0,0-3.17-1.54l-2.09-.7a11.4,11.4,0,0,1-2.4-1.16.74.74,0,0,1-.23-.7c.05-.25.23-.38.54-.38h44.09a9.86,9.86,0,0,1,1.32-.55,9,9,0,0,0,1.31-.54c.52-.2.77,0,.77.62-.3,2.68-.69,5.18-1.15,7.5s-1,4.67-1.48,7a.56.56,0,0,1-.69.39q-.54-.07-.54-.54-.31-5.41-3.72-7.12a18.57,18.57,0,0,0-8.35-1.7H323.77V63.64h17.94a6.06,6.06,0,0,0,2-.46l2.47-.93a15.59,15.59,0,0,1,3.41-1.39c.51-.21.77,0,.77.62-.11,1.23-.23,2.58-.39,4s-.33,2.78-.54,4-.36,2.53-.46,3.87-.26,2.63-.47,3.87a.61.61,0,0,1-.39.62.59.59,0,0,1-.69-.16,3.75,3.75,0,0,1-1-1.55c-.15-.51-.33-1.08-.54-1.7l-.62-1.85a4.39,4.39,0,0,0-1.08-1.7,5.53,5.53,0,0,0-2.86-1.17c-1.4-.25-2.89-.46-4.49-.61s-3.17-.24-4.72-.24h-8.2v31.87A14.51,14.51,0,0,0,330.5,106a21.44,21.44,0,0,0,8.27,1.78,14.85,14.85,0,0,0,9.21-2.87,13.72,13.72,0,0,0,5-8.12l1.23.31Q353.48,100.62,353,104Z"/><path class="cls-1" d="M447.34,57.52a.33.33,0,0,1-.4.22c-.2,0-.31-.14-.31-.31,0-2-.53-3.33-1.59-4.13a7.27,7.27,0,0,0-4.44-1.2,19.41,19.41,0,0,0-2.35.14c-.75.08-1.53.19-2.36.31a17.11,17.11,0,0,1-1.95.26q-1.06.09-1.95.09V70.3h12a2.64,2.64,0,0,0,1.42-.54,5.93,5.93,0,0,0,1.24-1.06.34.34,0,0,1,.4-.09.35.35,0,0,1,.22.36c-.12,1.65-.28,3.27-.49,4.83s-.45,3.12-.75,4.66a.32.32,0,0,1-.4.22c-.21,0-.31-.13-.31-.31.06-2-.43-3.3-1.46-4a7.59,7.59,0,0,0-4.4-1.1H432V91a6.07,6.07,0,0,0,.44,2.21,6.77,6.77,0,0,0,1.24,2,6.48,6.48,0,0,0,1.87,1.42,5.15,5.15,0,0,0,2.3.53v.71h-.62a18.4,18.4,0,0,1-1.86-.09l-1.86-.18c-.66-.06-1.28-.1-1.87-.13s-1.18,0-1.77,0a17.68,17.68,0,0,0-1.78.09l-1.77.18c-.71.06-1.41.1-2.09.13s-1.34.05-2,.05h-.54c-.17,0-.28-.11-.31-.31a.32.32,0,0,1,.23-.4,10.38,10.38,0,0,0,2.48-.67,2.77,2.77,0,0,0,1.29-1.06,3.66,3.66,0,0,0,.44-1.69c0-.68,0-1.55,0-2.62V54.06c0-1.37-.26-2.21-.79-2.53a6.72,6.72,0,0,0-1.87-.76c-.29-.12-.66-.25-1.11-.4a6.32,6.32,0,0,1-1.37-.66c-.18-.12-.24-.25-.18-.4a.35.35,0,0,1,.36-.22q5.58.25,11.27.26h6.3c.29,0,.6,0,.93,0s.67,0,1,0c1.36.06,2.77.06,4.21,0a8.32,8.32,0,0,0,3.78-1,.27.27,0,0,1,.4,0,.39.39,0,0,1,.13.45Z"/><path class="cls-1" d="M931.55,13.84a39.14,39.14,0,0,1-1.46,9.84.64.64,0,0,1-.65.48.63.63,0,0,1-.65-.48,18.11,18.11,0,0,0-2.53-6.59,12.5,12.5,0,0,0-4.3-4,18.49,18.49,0,0,0-5.86-2,40.53,40.53,0,0,0-6.83-.56H496.71v95a15.85,15.85,0,0,0,4.15,11.06,17.16,17.16,0,0,0,10.33,5.53.58.58,0,0,1,.4.73q-.07.57-.57.57-5.68-.48-11.46-.81t-11.63-.33q-4.23,0-8.37.25t-8.38.57q-.48,0-.57-.57a.59.59,0,0,1,.41-.73,31.88,31.88,0,0,0,6.1-1.79,7.26,7.26,0,0,0,3.25-2.61,9,9,0,0,0,1.3-4.14q.25-2.52.25-6.43V10.67H455.09a13.15,13.15,0,0,0-9.19,3.66A23.81,23.81,0,0,0,440,22.54c-.22.32-.46.46-.73.4a.5.5,0,0,1-.41-.56,15.64,15.64,0,0,1-.32-2.93,24.88,24.88,0,0,1,.81-6.34q.81-3.09,1.79-6.35c.32-1.08.65-2.14,1-3.17s.59-2,.81-3c.22-.65.54-.75,1-.32a18.84,18.84,0,0,0,6.66,2.68,43.71,43.71,0,0,0,7.48.57H921.47a11.34,11.34,0,0,0,2.85-.4l2.84-.74L929,2.05l2.2-.33c.32,0,.48.22.48.65v1.3Q931.71,8.4,931.55,13.84Z"/><path class="cls-1" d="M596.36,112.22q-8.21-.47-16.24-.46c-2,0-3.9,0-5.8.08s-3.9.13-6,.23q-.47,0-.54-.54a.56.56,0,0,1,.39-.7q4.78-1.39,6.18-3.71t1.4-7.27V67.67h-47.5v32.48q0,9.75,10.06,10.68c.31,0,.46.21.46.62s-.15.62-.46.62h-4.8c-1.44,0-3,.05-4.64.15-1.13,0-2.45,0-3.95.08s-2.81.08-3.94.08h-3.87c-1.34,0-2.68-.06-4-.16a14,14,0,0,1-1.47-.08c-.57,0-1.06-.07-1.47-.07s-.49-.18-.54-.54a.56.56,0,0,1,.39-.7,27.1,27.1,0,0,0,4-1,4.86,4.86,0,0,0,2.32-1.54,5.33,5.33,0,0,0,1-2.56,27.17,27.17,0,0,0,.24-4V35.8a5.66,5.66,0,0,0-2.71-5.11,11.88,11.88,0,0,0-5.8-1.85V27.6q6.5.46,12.84.46c1.75,0,3.5,0,5.26-.07s3.5-.08,5.26-.08h3.25c.31,0,.46.21.46.62s-.15.62-.46.62a8.13,8.13,0,0,0-5,1.7,5.66,5.66,0,0,0-2.24,4.8V62.56h47.34V36.26q0-3.7-1.94-4.72a24.81,24.81,0,0,0-4.72-1.77L568,29.46c-.36-.11-.75-.21-1.16-.31a.56.56,0,0,1-.38-.7q.08-.54.54-.54,7.42.46,14.39.46c2.06,0,4.15,0,6.26-.08s4.2-.12,6.27-.23c.31,0,.48.18.54.54a.56.56,0,0,1-.39.7,17,17,0,0,0-5.41,1.78q-2,1.16-2,5V99.54q0,5.25,2.31,7.89t7.59,3.55Z"/><path class="cls-1" d="M679.33,113.38a23.54,23.54,0,0,1-5.64.7,19.92,19.92,0,0,1-8.36-1.7,26.49,26.49,0,0,1-6.65-4.34,41,41,0,0,1-5.49-6c-1.7-2.27-3.33-4.59-4.87-7-1.45-2.17-3-4.3-4.57-6.42a39.89,39.89,0,0,0-5.26-5.72,25,25,0,0,0-6.19-4.1,17.62,17.62,0,0,0-7.5-1.55h-2.47a9.47,9.47,0,0,0-2.33.31v22a11.4,11.4,0,0,0,2.71,7.65,10.48,10.48,0,0,0,7.2,3.64v1.24c-2.38-.21-4.72-.39-7-.54s-4.67-.24-7-.24-4.67.11-6.89.31-4.51.47-6.88.78c-.31.1-.54,0-.7-.39a.63.63,0,0,1,.23-.85A13.8,13.8,0,0,0,607,106.5a11.4,11.4,0,0,0,2.16-6.66V38.12a8.89,8.89,0,0,0-2.55-6.27,12.66,12.66,0,0,0-6.11-3.63.57.57,0,0,1-.39-.7c0-.36.24-.54.54-.54h30.48a38.92,38.92,0,0,1,9.44,1.16,24.66,24.66,0,0,1,8.2,3.64,18.35,18.35,0,0,1,5.72,6.49,19.91,19.91,0,0,1,2.17,9.59,26.43,26.43,0,0,1-4.1,14.08,55.6,55.6,0,0,1-9.21,11.45,46.47,46.47,0,0,1,3.72,4.72c1.34,1.91,2.78,3.89,4.33,6q3.4,4.64,7.19,9.51a78.44,78.44,0,0,0,8,8.82,36.42,36.42,0,0,0,8.66,6.19,15.53,15.53,0,0,0,9.13,1.62l.47,1.24A28.47,28.47,0,0,1,679.33,113.38ZM644.52,45.54A23.61,23.61,0,0,0,641,38.27a19.4,19.4,0,0,0-5.72-5.33,14.72,14.72,0,0,0-7.89-2.09,31,31,0,0,0-3.72.23,12.22,12.22,0,0,0-3.55,1V70.61a47.2,47.2,0,0,0,5.1.62c1.65.1,3.35.15,5.11.15q8.65,0,12-4.72t3.32-13.07A28.75,28.75,0,0,0,644.52,45.54Z"/><path class="cls-1" d="M757.91,88.78A42.82,42.82,0,0,1,748.24,102a44.09,44.09,0,0,1-14,8.67,46.06,46.06,0,0,1-16.79,3.09,36.3,36.3,0,0,1-15.08-3.56,57.51,57.51,0,0,1-14.31-9.28,52.94,52.94,0,0,1-10.76-13,28.84,28.84,0,0,1-4.25-14.69,79,79,0,0,1,2.09-19.42,35.08,35.08,0,0,1,6.73-13.77,35.22,35.22,0,0,1,12.22-9.28,83,83,0,0,1,18.57-6l2-.15a38.54,38.54,0,0,1,18.41,2.86,45,45,0,0,1,14.85,10.21,48.27,48.27,0,0,1,10,15.55,49.83,49.83,0,0,1,3.63,18.87A38.28,38.28,0,0,1,757.91,88.78Zm-42-59c-1.32,0-2.61.11-3.85.26v78.1a29.73,29.73,0,0,0,3.85.57Zm9.22,78.52a28,28,0,0,0,7.64-2.49,30.56,30.56,0,0,0,10.13-8,34.78,34.78,0,0,0,6.19-11.68A46.84,46.84,0,0,0,751.17,72a53,53,0,0,0-2.24-15.16,44.06,44.06,0,0,0-6.65-13.62,34.91,34.91,0,0,0-10.83-9.74,26.89,26.89,0,0,0-6.32-2.64Zm-2.68-78a31.85,31.85,0,0,0-3.86-.44v79h.25c1.24,0,2.44-.06,3.61-.17Zm-13.05.2a29.52,29.52,0,0,0-17,10.07A36.11,36.11,0,0,0,686,52.12a42.93,42.93,0,0,0-2.25,14A52.33,52.33,0,0,0,686,81.44a44.64,44.64,0,0,0,6.89,13.69A37,37,0,0,0,704,105a27.59,27.59,0,0,0,5.41,2.4Z"/><path class="cls-1" d="M853.31,28.76c0-.05-.18,0-.38.08-1.45.41-3,.93-4.57,1.54A3.3,3.3,0,0,0,846,33.63l.15,37.29v6.34q0,9-.31,17.71t-1.08,17.56a.64.64,0,0,1-.39.54.51.51,0,0,1-.69-.07q-7.42-6.34-14.86-13.69t-14.62-15Q807,76.63,800,68.83T786.71,53.59q-2.16-2.33-3.86-4.41T779,44.77a72.86,72.86,0,0,0-.46,8q0,5.88.15,11.75t.46,11.76q.32,5.88.47,11.76t.15,11.91a15.92,15.92,0,0,0,.47,4.26,7.78,7.78,0,0,0,1.16,2.55,3.72,3.72,0,0,0,1.7,1.31,9.17,9.17,0,0,0,2.09.54c.82.21,1.65.44,2.47.7a10.78,10.78,0,0,1,2.94,1.62.74.74,0,0,1,.23.7.47.47,0,0,1-.54.39l-3-.31-3-.31c-1.45-.21-2.92-.36-4.41-.47s-3-.15-4.41-.15a43.41,43.41,0,0,0-5.72.39q-2.94.39-5.88.85a.53.53,0,0,1-.7-.31.62.62,0,0,1,.08-.78,17.69,17.69,0,0,1,2.24-1.7c.67-.41,1.31-.77,1.93-1.08a11.3,11.3,0,0,0,3.33-2.55c1-1.09,1.47-2.81,1.47-5.19V28.06l1.24-2.47a1,1,0,0,1,.46-.47.31.31,0,0,1,.47.16Q791.2,42.76,807,59.7t32,35v-.46q0-7.12-.07-14.08c-.06-4.64-.13-9.39-.24-14.23q-.15-6.66-.31-14.16t-.15-14.16a13.78,13.78,0,0,0-.54-4.25,5.78,5.78,0,0,0-1.47-2.48,5.15,5.15,0,0,0-2-1.16A17.15,17.15,0,0,0,832,29.3a20.29,20.29,0,0,1-2.24-.39,3.54,3.54,0,0,1-1.78-1,.62.62,0,0,1-.08-.78c.16-.3.34-.41.55-.3a53.12,53.12,0,0,0,6.64.46h6.5c1.34,0,2.71,0,4.1-.08a40.63,40.63,0,0,1,4.26.08c.51,0,1.08,0,1.7.08s1.18.07,1.7.07l.31,1.24C853.49,28.79,853.37,28.81,853.31,28.76Z"/><path class="cls-1" d="M911.89,104c-.31,2.21-.62,4.51-.93,6.88,0,.31-.21.46-.62.46l-.15.16a6.06,6.06,0,0,1-2,.46q-3.55,0-7.19-.07c-2.42-.06-4.82-.08-7.19-.08q-3.1,0-6-.08t-6-.08c-2.78,0-5.6,0-8.43.08s-5.65.13-8.43.23v-1.23a6.57,6.57,0,0,0,3.79-1,6.69,6.69,0,0,0,2.24-2.55,10.53,10.53,0,0,0,1-3.48,34.21,34.21,0,0,0,.23-4V35.33q0-3.09-1.47-4a16.32,16.32,0,0,0-3.17-1.54l-2.09-.7a11.4,11.4,0,0,1-2.4-1.16.74.74,0,0,1-.23-.7c.05-.25.23-.38.54-.38H907.4a9.86,9.86,0,0,1,1.32-.55,9,9,0,0,0,1.31-.54c.52-.2.78,0,.78.62-.32,2.68-.7,5.18-1.17,7.5s-.95,4.67-1.47,7a.56.56,0,0,1-.69.39q-.54-.07-.54-.54-.32-5.41-3.72-7.12a18.6,18.6,0,0,0-8.35-1.7H882.65V63.64h17.94a6.06,6.06,0,0,0,2-.46l2.47-.93a15.72,15.72,0,0,1,3.4-1.39c.52-.21.78,0,.78.62-.11,1.23-.24,2.58-.39,4s-.34,2.78-.54,4-.36,2.53-.46,3.87-.26,2.63-.47,3.87a.61.61,0,0,1-.39.62.59.59,0,0,1-.69-.16,3.75,3.75,0,0,1-1-1.55c-.15-.51-.33-1.08-.54-1.7l-.62-1.85a4.39,4.39,0,0,0-1.08-1.7,5.53,5.53,0,0,0-2.86-1.17c-1.4-.25-2.89-.46-4.49-.61s-3.17-.24-4.72-.24h-8.2v31.87a14.51,14.51,0,0,0,6.58,5.19,21.44,21.44,0,0,0,8.27,1.78,14.85,14.85,0,0,0,9.21-2.87,13.66,13.66,0,0,0,5-8.12l1.24.31Q912.36,100.62,911.89,104Z"/><path class="cls-1" d="M969,99.38a27.73,27.73,0,0,1-7.27,7.66,36.11,36.11,0,0,1-9.75,4.95,31.88,31.88,0,0,1-10.13,1.78,23.49,23.49,0,0,1-4.87-.54,15.07,15.07,0,0,1-4.64-1.78,10.59,10.59,0,0,1-3.41-3.17,8.55,8.55,0,0,1-1.31-4.88,18.06,18.06,0,0,1,.39-3.71c.25-1.24.49-2.42.69-3.56l.77-3.71c0-.31.21-.47.62-.47s.62.16.62.47v2.32a11.51,11.51,0,0,0,1.39,5.72,15.1,15.1,0,0,0,3.56,4.26,14.22,14.22,0,0,0,5,2.63,20.16,20.16,0,0,0,5.8.85,19,19,0,0,0,5.73-.93,18.05,18.05,0,0,0,5.34-2.71,15.09,15.09,0,0,0,3.94-4.33A10.68,10.68,0,0,0,963,94.59a13.17,13.17,0,0,0-1.4-5.81,31.74,31.74,0,0,0-3.71-5.8,71,71,0,0,0-5.26-5.88q-2.94-2.92-6-5.87c-2.17-2.07-4.33-4.15-6.5-6.27a54.14,54.14,0,0,1-5.73-6.5,36.46,36.46,0,0,1-4-6.73,16.61,16.61,0,0,1-1.54-7,14.35,14.35,0,0,1,2.94-9.05A23.44,23.44,0,0,1,939,29.53,35.77,35.77,0,0,1,948.45,26a42.51,42.51,0,0,1,9.44-1.17,38.86,38.86,0,0,1,11.29,1.55c.31.21.47.41.47.62q-.61,7.57-1.86,15.62a.61.61,0,0,1-.62.47.62.62,0,0,1-.62-.47,20.4,20.4,0,0,0-4.71-9.28,11.82,11.82,0,0,0-9.21-3.87,13.64,13.64,0,0,0-9.82,3.79,12.84,12.84,0,0,0-3.95,9.67,12.6,12.6,0,0,0,1.32,5.73,25.73,25.73,0,0,0,3.4,5.1,43.2,43.2,0,0,0,4.88,4.88q2.77,2.4,5.72,4.87,3.24,2.62,6.42,5.49a47.64,47.64,0,0,1,5.65,6,30.83,30.83,0,0,1,4,6.72,19.24,19.24,0,0,1,1.55,7.74A18,18,0,0,1,969,99.38Z"/><path class="cls-1" d="M417.37,84.9a24.44,24.44,0,0,1-5.5,7.52,24.89,24.89,0,0,1-8,4.92,26.18,26.18,0,0,1-9.54,1.76,20.77,20.77,0,0,1-8.57-2,32.81,32.81,0,0,1-8.13-5.28,29.92,29.92,0,0,1-6.11-7.39,16.3,16.3,0,0,1-2.42-8.35,44.41,44.41,0,0,1,1.19-11A18.8,18.8,0,0,1,381.1,51.93a46.93,46.93,0,0,1,10.55-3.39l1.14-.09a21.89,21.89,0,0,1,10.46,1.63,25.65,25.65,0,0,1,8.45,5.8,27.48,27.48,0,0,1,5.67,8.84,28.41,28.41,0,0,1,2.06,10.72A21.86,21.86,0,0,1,417.37,84.9ZM393.5,51.36c-.75,0-1.48.06-2.19.14V95.89a19.23,19.23,0,0,0,2.19.33ZM398.74,96a15.45,15.45,0,0,0,4.34-1.41A17.37,17.37,0,0,0,408.84,90a20,20,0,0,0,3.52-6.64,26.61,26.61,0,0,0,1.18-8,30.25,30.25,0,0,0-1.27-8.62A25.13,25.13,0,0,0,408.49,59a20,20,0,0,0-6.16-5.54A15.54,15.54,0,0,0,398.74,52V96Zm-1.53-44.35a17.25,17.25,0,0,0-2.19-.25v44.9h.14c.71,0,1.39,0,2-.09Zm-7.41.11a16.82,16.82,0,0,0-9.67,5.73,20.63,20.63,0,0,0-3.65,6.59,24.46,24.46,0,0,0-1.27,8,29.53,29.53,0,0,0,1.32,8.7,25,25,0,0,0,3.91,7.78,21,21,0,0,0,6.28,5.63,15.11,15.11,0,0,0,3.08,1.36Z"/></g></g></svg>