<svg xmlns="http://www.w3.org/2000/svg" viewBox="0 0 602 172.52"><defs><style>.cls-1{fill:#fff;}</style></defs><title>plexflix.svg</title><g id="Layer_2" data-name="Layer 2"><g id="Layer_1-2" data-name="Layer 1"><path class="cls-1" d="M70.84,39.67l0,20.82c.34,22.69-12.08,41-35.68,43.18-4.51.49-6.77.74-11.28,1.25L23.77,168c-9.51,1.73-14.27,2.63-23.77,4.5V.09H35.25C58.5-1.48,71.47,18.36,70.84,39.67ZM23.91,24.08q0,28.43-.05,56.85l11.28-1c7.6-.64,11.73-4.71,11.75-16.41,0-9.84,0-14.76,0-24.6,0-11.71-4.11-15.36-11.72-15.17Z"/><path class="cls-1" d="M83.11.09H107l-.36,133q19.65-2.16,39.37-3.84L146,150.79c-21.14,2.1-42.23,4.72-63.27,7.68Z"/><path class="cls-1" d="M180.64,62.3c13.15-.43,19.72-.62,32.88-.93,0,8.3,0,12.46,0,20.77-13.16.42-19.74.67-32.9,1.25q-.06,21.61-.11,43.23,20.72-1.31,41.43-2.29c0,8.28,0,12.42,0,20.7q-32.76,1.83-65.41,4.75.21-74.85.41-149.69h65.27c0,8.28,0,12.42,0,20.7q-20.67.16-41.35.39Z"/><path class="cls-1" d="M316.77.09q-12.5,34.71-25,69.43,13.42,36.8,26.84,73.59c-10.13-.12-15.2-.13-25.33-.08q-9.83-28.22-19.62-56.43-10,28.55-19.9,57.13c-9,.27-13.5.45-22.49.85q13.39-37.43,26.93-74.79Q245.65,35,233.23.09H258q9,26.39,18,52.75Q285.32,26.46,294.58.09Z"/><path class="cls-1" d="M354.5,64c12.38.19,18.56.31,30.94.61,0,8.3,0,12.45,0,20.75-12.38-.4-18.57-.56-31-.81q0,29.69.08,59.39c-9.61-.34-14.41-.47-24-.65q-.06-71.59-.11-143.2h63.31l0,20.81q-19.69-.16-39.4-.26Z"/><path class="cls-1" d="M405.32.09h23.94l.33,127.09q19.73,1.4,39.42,3.26c0,8.69,0,13,.06,21.72-21.09-2.33-42.24-4.15-63.4-5.61Q405.49,73.32,405.32.09Z"/><path class="cls-1" d="M479.08.09H503l.42,156.21c-9.56-1.26-14.35-1.85-23.92-3Q479.3,76.71,479.08.09Z"/><path class="cls-1" d="M600.26.09Q588,40.82,575.32,81.41,589,126.86,602,172.52c-10-2-15-2.92-25.07-4.74q-9.63-34.25-19.59-68.41-9.69,31-19.62,61.84c-8.93-1.38-13.4-2-22.35-3.29q13.49-39.54,26.52-79.24Q529.54,39.3,516.72.09h24.8q9.22,30.3,18.15,60.7Q569,30.48,578.07.09Z"/></g></g></svg>