<?xml version="1.0" encoding="utf-8"?>
<!-- Generator: Adobe Illustrator 16.0.0, SVG Export Plug-In . SVG Version: 6.00 Build 0)  -->
<!DOCTYPE svg PUBLIC "-//W3C//DTD SVG 1.1//EN" "http://www.w3.org/Graphics/SVG/1.1/DTD/svg11.dtd">
<svg version="1.1" id="Layer_1" xmlns="http://www.w3.org/2000/svg" xmlns:xlink="http://www.w3.org/1999/xlink" x="0px" y="0px"
	 width="1000px" height="124.973px" viewBox="0 0 1000 124.973" enable-background="new 0 0 1000 124.973" xml:space="preserve">
<g>
	<path fill-rule="evenodd" clip-rule="evenodd" d="M499.179,40.646c0,5.654-5.26,10.931-11.898,10.931c-5.406,0-10.812,0-16.217,0
		c0-11.319,0-22.632,0-33.946c6.258,0,12.514,0,18.77,0c5.568,0,9.345,4.434,9.345,10.087
		C499.179,32.025,499.179,36.338,499.179,40.646L499.179,40.646z M445.428,124.916h23.953c0.927,0,1.683-0.759,1.683-1.683
		c0-18.097,0-36.188,0-54.284c6.093,0,12.186,0,18.282,0c6.635,0,10.671,2.916,10.671,8.569c0,15.238,0,30.477,0,45.715
		c0,0.924,0.754,1.683,1.683,1.683h23.95c0.925,0,1.684-0.759,1.684-1.683v-14.497c0-0.929-0.759-1.683-1.684-1.683h-4.199
		c0-11.262,0-22.518,0-33.78c0-5.009-5.471-10.218-14.553-13.743c9.321-4.901,13.646-11.536,13.646-16.894
		c0-7.325,0-14.651,0-21.976c0-5.1-13.983-20.658-22.561-20.658c-17.518,0-35.035,0-52.555,0c-0.924,0-1.683,0.76-1.683,1.683
		v14.497c0,0.93,0.759,1.683,1.683,1.683h4.202c0,29.729,0,59.458,0,89.188h-4.202c-0.924,0-1.683,0.754-1.683,1.683v14.497
		C443.745,124.157,444.504,124.916,445.428,124.916L445.428,124.916z"/>
	<path fill-rule="evenodd" clip-rule="evenodd" fill="#07CCF9" d="M445.428,124.913h23.953c0.927,0,1.683-0.756,1.683-1.683
		c0-18.094,0-36.19,0-54.284c6.093,0,12.186,0,18.282,0c6.635,0,10.671,2.918,10.671,8.572c0,15.238,0,30.474,0,45.712
		c0,0.927,0.754,1.683,1.683,1.683h23.95c0.925,0,1.684-0.756,1.684-1.683v-14.497c0-0.927-0.759-1.683-1.684-1.683h-4.199
		c0-11.262,0-22.521,0-33.782c0-5.006-5.471-10.215-14.553-13.738c9.321-4.904,13.646-11.536,13.646-16.896
		c0-7.325,0-14.65,0-21.979C520.544,15.558,506.561,0,497.983,0c-17.518,0-35.035,0-52.555,0c-0.924,0-1.683,0.759-1.683,1.683v14.5
		c0,0.927,0.759,1.683,1.683,1.683h4.202c0,29.727,0,59.456,0,89.185h-4.202c-0.924,0-1.683,0.756-1.683,1.683v14.497
		C443.745,124.157,444.504,124.913,445.428,124.913L445.428,124.913z M518.085,107.05v1.683c0,0.925,0.759,1.684,1.683,1.684h1.683
		h2.517v11.131h-20.584c0-14.736,0-29.471,0-44.203c0-6.39-4.65-11.768-14.462-11.768c-6.506,0.08-13.028,0-19.54,0
		c-0.924,0-1.683,0.76-1.683,1.684c0,18.097,0,36.19,0,54.287h-20.583v-11.131h2.516h1.686c0.924,0,1.68-0.759,1.68-1.684
		c0-30.85,0-61.703,0-92.553c0-0.924-0.759-1.683-1.683-1.683h-1.683h-2.516V3.369c17.184,0,34.364,0,51.548,0
		c3.962,0,18.516,12.859,18.516,18.513c0,6.612,0,13.222,0,19.831c0,5.346-4.119,9.941-9.983,13.727
		c-1.752,1.132-6.639,2.587-6.639,4.786c0,1.284,2.148,1.318,4.658,2.326c4.496,1.805,12.871,5.453,12.871,10.822
		C518.045,84.624,518.085,95.78,518.085,107.05L518.085,107.05z M499.179,40.643c0,5.654-5.26,10.931-11.898,10.931
		c-5.406,0-10.812,0-16.217,0c0-11.319,0-22.632,0-33.948c6.258,0,12.514,0,18.77,0c5.568,0,9.345,4.436,9.345,10.089
		C499.179,32.025,499.179,36.333,499.179,40.643L499.179,40.643z M487.654,55.009c9.65,0,14.89-7.428,14.89-13.447
		c0-5.201,0-10.406,0-15.61c0-4.712-4.136-11.692-12.713-11.692c-6.818,0-13.636,0-20.45,0c-0.924,0-1.683,0.758-1.683,1.683
		c0,12.438,0,24.874,0,37.314c0,0.927,0.756,1.683,1.683,1.683L487.654,55.009L487.654,55.009z"/>
	<path fill-rule="evenodd" clip-rule="evenodd" d="M55.431,40.646c0,5.654-5.26,10.931-11.898,10.931c-5.406,0-10.811,0-16.217,0
		c0-11.319,0-22.632,0-33.946c6.259,0,12.511,0,18.77,0c5.568,0,9.345,4.434,9.345,10.087
		C55.431,32.025,55.431,36.338,55.431,40.646L55.431,40.646z M1.68,124.916h23.953c0.927,0,1.683-0.759,1.683-1.683
		c0-18.097,0-36.188,0-54.284c6.093,0,12.186,0,18.282,0c6.635,0,10.669,2.916,10.669,8.569c0,15.238,0,30.477,0,45.715
		c0,0.924,0.756,1.683,1.683,1.683h23.953c0.927,0,1.683-0.759,1.683-1.683v-14.497c0-0.929-0.756-1.683-1.683-1.683h-4.199
		c0-11.262,0-22.518,0-33.78c0-5.009-5.474-10.218-14.553-13.743c9.322-4.901,13.646-11.536,13.646-16.894
		c0-7.325,0-14.651,0-21.976c0-5.1-13.983-20.658-22.561-20.658c-17.517,0-35.038,0-52.555,0C0.753,0.002,0,0.762,0,1.686v14.497
		c0,0.93,0.753,1.683,1.68,1.683h4.202c0,29.729,0,59.458,0,89.188H1.68c-0.927,0-1.68,0.754-1.68,1.683v14.497
		C0,124.157,0.753,124.916,1.68,124.916L1.68,124.916z"/>
	<path fill-rule="evenodd" clip-rule="evenodd" d="M626.574,96.088c0,6.681-6.464,11.199-12.027,11.199c-6.731,0-13.458,0-20.189,0
		c0-29.884,0-59.773,0-89.656c7.815,0,15.626,0,23.437,0c5.568,0,8.78,4.434,8.78,10.087
		C626.574,50.51,626.574,73.301,626.574,96.088L626.574,96.088z M647.933,20.524c0-4.604-16.254-20.522-24.264-20.522
		c-18.336,0-36.609,0-54.946,0c-0.929,0-1.682,0.76-1.682,1.683v14.497c0,0.93,0.753,1.683,1.682,1.683h4.2
		c0,29.729,0,59.458,0,89.188h-4.2c-0.929,0-1.682,0.754-1.682,1.683v14.497c0,0.924,0.753,1.683,1.682,1.683
		c16.91,0,33.826,0,50.741,0c15.872,0,28.469-19.488,28.469-28.029C647.933,71.339,647.933,46.071,647.933,20.524L647.933,20.524z"
		/>
	<path fill-rule="evenodd" clip-rule="evenodd" d="M132.141,17.865h-4.199c-0.927,0-1.683-0.753-1.683-1.683V1.686
		c0-0.923,0.756-1.683,1.683-1.683c9.818,0,19.634,0,29.45,0c0.93,0,1.683,0.76,1.683,1.683v14.497c0,0.93-0.753,1.683-1.683,1.683
		h-4.196c0,29.729-0.002,59.458-0.002,89.188h4.199c0.927,0,1.683,0.754,1.683,1.683v14.497c0,0.924-0.756,1.683-1.683,1.683
		c-9.819,0-19.634,0-29.453,0c-0.924,0-1.683-0.759-1.683-1.683v-14.497c0-0.929,0.759-1.683,1.683-1.683h4.199
		C132.139,77.324,132.141,47.594,132.141,17.865L132.141,17.865z"/>
	<path fill-rule="evenodd" clip-rule="evenodd" d="M332.108,60.249L332.108,60.249V17.865h-4.196c-0.927,0-1.683-0.753-1.683-1.683
		V1.686c0-0.923,0.756-1.683,1.683-1.683c23.214,0,46.425,0,69.64,0c0.927,0,1.683,0.76,1.683,1.683l2.815,35.994
		c0,0.93-0.756,1.683-1.683,1.683c-4.627,0-9.257,0-13.884,0c-0.927,0-1.812-0.753-1.971-1.683l-2.838-17.252
		c-0.277-1.597-1.104-2.533-2.679-2.533c-8.526,0-17.007-0.023-25.525-0.029V50.67c9.811,0,19.62,0,29.43,0
		c0.927,0,1.683,0.759,1.683,1.683v14.502c0,0.925-0.756,1.684-1.683,1.684c-9.81,0-19.62,0-29.43,0v38.515
		c9.157,0,18.313,0,27.473,0c1.575,0,2.399-0.941,2.675-2.533l3.492-20.253c0.157-0.931,1.044-1.683,1.972-1.683
		c4.23,0,8.463,0,12.693,0c0.927,0,1.683,0.752,1.683,1.683l-1.666,38.966c0,0.924-0.756,1.683-1.683,1.683
		c-24.067,0-48.134,0-72.201,0c-0.927,0-1.683-0.759-1.683-1.683v-14.497c0-0.929,0.755-1.683,1.683-1.683h4.199V60.249
		L332.108,60.249z"/>
	<path fill-rule="evenodd" clip-rule="evenodd" d="M928.652,17.865h-4.204c-0.925,0-1.684-0.753-1.684-1.683V1.686
		c0-0.923,0.759-1.683,1.684-1.683c23.22,0,46.429,0,69.642,0c0.931,0,1.684,0.76,1.684,1.683l2.818,35.994
		c0,0.93-0.759,1.683-1.683,1.683c-4.627,0-9.26,0-13.887,0c-0.924,0-1.809-0.753-1.974-1.683l-2.836-17.252
		c-0.274-1.597-1.101-2.533-2.676-2.533c-8.528,0-17.007-0.023-25.524-0.029V50.67c9.808,0,19.62,0,29.427,0
		c0.931,0,1.684,0.759,1.684,1.683v14.502c0,0.925-0.753,1.684-1.684,1.684c-9.813,0-19.619,0-29.427,0v38.515
		c9.157,0,18.313,0,27.47,0c1.575,0,2.402-0.941,2.676-2.533l3.492-20.253c0.159-0.931,1.044-1.683,1.974-1.683
		c4.228,0,8.461,0,12.694,0c0.924,0,1.682,0.752,1.682,1.683l-1.665,38.966c0,0.924-0.759,1.683-1.683,1.683
		c-24.07,0-48.134,0-72.204,0c-0.925,0-1.684-0.759-1.684-1.683v-14.497c0-0.929,0.759-1.683,1.684-1.683h4.198
		C928.646,77.324,928.652,47.594,928.652,17.865L928.652,17.865z"/>
	<path fill-rule="evenodd" clip-rule="evenodd" d="M816.592,17.865h-4.198c-0.931,0-1.684-0.753-1.684-1.683V1.686
		c0-0.923,0.753-1.683,1.684-1.683c10.023,0,20.054,0,30.083,0c0.924,0,1.678,0.76,1.678,1.683v14.497
		c0,0.93-0.754,1.683-1.678,1.683h-3.366h-1.158c0,29.729,0,59.458,0,89.188c8.159,0,16.322,0,24.486,0
		c1.575,0,2.402-0.941,2.682-2.533l3.485-20.253c0.16-0.931,1.044-1.683,1.975-1.683c4.233,0,8.461,0,12.693,0
		c0.931,0,1.684,0.752,1.684,1.683l-1.666,38.966c0,0.924-0.759,1.683-1.684,1.683c-23.071,0-46.143,0-69.22,0
		c-0.925,0-1.683-0.759-1.683-1.683v-14.497c0-0.929,0.758-1.683,1.683-1.683h4.199C816.587,77.324,816.592,47.594,816.592,17.865
		L816.592,17.865z"/>
	<path fill-rule="evenodd" clip-rule="evenodd" d="M287.616,17.865h-5.117L258.19,123.233c0,0.924-0.756,1.683-1.681,1.683
		c-7.936,0.034-15.717,0.034-23.65,0c-0.924,0-1.683-0.759-1.683-1.683L206.869,17.865h-5.117c-0.927,0-1.683-0.753-1.683-1.683
		V1.686c0-0.923,0.756-1.683,1.683-1.683c7.086,0,14.177,0,21.263,0c0.927,0,1.683,0.76,1.683,1.683l19.836,95.538l20.136-95.538
		c0-0.923,0.756-1.683,1.683-1.683c7.088,0,14.177,0,21.262,0c0.927,0,1.683,0.76,1.683,1.683v14.497
		C289.299,17.112,288.543,17.865,287.616,17.865L287.616,17.865z"/>
	<path fill-rule="evenodd" clip-rule="evenodd" d="M740.938,77.124L728.044,17.58l-12.894,59.543
		C723.743,77.124,732.34,77.124,740.938,77.124L740.938,77.124z M683.168,107.11h5.117l24.31-105.367
		c0-0.924,0.759-1.683,1.683-1.683c9.219-0.029,18.313-0.029,27.527,0c0.93,0,1.683,0.759,1.683,1.683l24.31,105.367h5.117
		c0.93,0,1.683,0.754,1.683,1.684v14.496c0,0.925-0.753,1.684-1.683,1.684c-7.085,0-14.177,0-21.263,0
		c-0.925,0-1.684-0.759-1.684-1.684l-6.161-29.609c-10.509,0-21.018,0-31.532,0l-6.161,29.609c0,0.925-0.753,1.684-1.683,1.684
		c-7.086,0-14.172,0-21.263,0c-0.925,0-1.684-0.759-1.684-1.684v-14.496C681.485,107.864,682.244,107.11,683.168,107.11
		L683.168,107.11z"/>
	<path fill-rule="evenodd" clip-rule="evenodd" fill="#07CCF9" d="M1.68,124.913h23.953c0.927,0,1.683-0.756,1.683-1.683
		c0-18.094,0-36.19,0-54.284c6.093,0,12.186,0,18.282,0c6.635,0,10.669,2.918,10.669,8.572c0,15.238,0,30.474,0,45.712
		c0,0.927,0.756,1.683,1.683,1.683h23.953c0.927,0,1.683-0.756,1.683-1.683v-14.497c0-0.927-0.756-1.683-1.683-1.683h-4.199
		c0-11.262,0-22.521,0-33.782c0-5.006-5.474-10.215-14.553-13.738c9.322-4.904,13.646-11.536,13.646-16.896
		c0-7.325,0-14.65,0-21.979C76.796,15.558,62.813,0,54.235,0C36.718,0,19.198,0,1.68,0C0.753,0,0,0.759,0,1.683v14.5
		c0,0.927,0.753,1.683,1.68,1.683h4.202c0,29.727,0,59.456,0,89.185H1.68c-0.927,0-1.68,0.756-1.68,1.683v14.497
		C0,124.157,0.753,124.913,1.68,124.913L1.68,124.913z M74.337,107.05v1.683c0,0.925,0.756,1.684,1.683,1.684h1.683h2.516v11.131
		H59.635c0-14.736,0-29.471,0-44.203c0-6.39-4.649-11.768-14.462-11.768c-6.51,0.08-13.027,0-19.54,0
		c-0.927,0-1.683,0.76-1.683,1.684c0,18.097,0,36.19,0,54.287H3.366v-11.131h2.516h1.683c0.927,0,1.683-0.759,1.683-1.684
		c0-30.85,0-61.703,0-92.553c0-0.924-0.759-1.683-1.683-1.683H5.882H3.366V3.369c17.181,0,34.362,0,51.548,0
		c3.962,0,18.516,12.859,18.516,18.513c0,6.612,0,13.222,0,19.831c0,5.346-4.122,9.941-9.981,13.727
		c-1.754,1.132-6.641,2.587-6.641,4.786c0,1.284,2.148,1.318,4.658,2.326c4.493,1.805,12.871,5.453,12.871,10.822
		C74.297,84.624,74.337,95.78,74.337,107.05L74.337,107.05z M55.431,40.643c0,5.654-5.26,10.931-11.898,10.931
		c-5.406,0-10.811,0-16.217,0c0-11.319,0-22.632,0-33.948c6.259,0,12.511,0,18.77,0c5.568,0,9.345,4.436,9.345,10.089
		C55.431,32.025,55.431,36.333,55.431,40.643L55.431,40.643z M43.906,55.009c9.65,0,14.894-7.428,14.894-13.447
		c0-5.201,0-10.406,0-15.61c0-4.712-4.142-11.692-12.72-11.692c-6.815,0-13.632,0-20.447,0c-0.927,0-1.683,0.758-1.683,1.683
		c0,12.438,0,24.874,0,37.314c0,0.927,0.753,1.683,1.683,1.683L43.906,55.009L43.906,55.009z"/>
	<path fill-rule="evenodd" clip-rule="evenodd" fill="#07CCF9" d="M576.29,16.18c0-0.924-0.76-1.683-1.685-1.683h-1.682h-2.517
		V3.369c18.113,0,36.501,0,54.615,0c3.229,0,19.546,12.885,19.546,18.21c0,24.338,0,48.813,0,73.148
		c0,11.316-13.938,26.82-25.211,26.82c-16.317,0-32.634,0-48.95,0v-11.131h2.517h1.682c0.925,0,1.685-0.756,1.685-1.684
		C576.29,77.883,576.29,47.03,576.29,16.18L576.29,16.18z M647.933,20.524C647.933,15.917,631.679,0,623.669,0
		c-18.336,0-36.609,0-54.946,0c-0.929,0-1.682,0.759-1.682,1.683v14.5c0,0.927,0.753,1.683,1.682,1.683h4.2
		c0,29.727,0,59.456,0,89.185h-4.2c-0.929,0-1.682,0.756-1.682,1.683v14.497c0,0.927,0.753,1.683,1.682,1.683
		c16.91,0,33.826,0,50.741,0c15.872,0,28.469-19.491,28.469-28.031C647.933,71.339,647.933,46.069,647.933,20.524L647.933,20.524z
		 M626.574,96.088c0,6.681-6.464,11.199-12.027,11.199c-6.731,0-13.458,0-20.189,0c0-29.887,0-59.776,0-89.662
		c7.815,0,15.626,0,23.437,0c5.568,0,8.78,4.436,8.78,10.089C626.574,50.504,626.574,73.296,626.574,96.088L626.574,96.088z
		 M614.963,110.653c9.351,0,14.977-8.004,14.977-13.66c0-23.68,0-47.361,0-71.041c0-4.712-3.572-11.692-12.152-11.692
		c-8.369,0-16.745,0-25.113,0c-0.925,0-1.684,0.758-1.684,1.683c0,31.01,0,62.021,0,93.027c0,0.927,0.759,1.683,1.684,1.683
		C600.108,110.653,607.536,110.653,614.963,110.653L614.963,110.653z"/>
	<path fill-rule="evenodd" clip-rule="evenodd" fill="#07CCF9" d="M132.141,17.865h-4.199c-0.927,0-1.683-0.756-1.683-1.683v-14.5
		c0-0.924,0.756-1.683,1.683-1.683c9.818,0,19.634,0,29.45,0c0.93,0,1.683,0.759,1.683,1.683v14.5c0,0.927-0.753,1.683-1.683,1.683
		h-4.196c0,29.73-0.002,59.454-0.002,89.185h4.199c0.927,0,1.683,0.756,1.683,1.683v14.497c0,0.927-0.756,1.683-1.683,1.683
		c-9.819,0-19.634,0-29.453,0c-0.924,0-1.683-0.756-1.683-1.683v-14.497c0-0.927,0.759-1.683,1.683-1.683h4.199
		C132.139,77.319,132.141,47.595,132.141,17.865L132.141,17.865z M132.141,14.497h1.683c0.927,0,1.683,0.759,1.683,1.683
		c0,30.85,0,61.704,0,92.553c0,0.928-0.759,1.684-1.683,1.684h-1.686h-2.516v11.131c8.698-0.003,17.392-0.003,26.086,0v-11.131
		h-2.516h-1.683c-0.927,0-1.683-0.756-1.683-1.684c0-30.85,0.003-61.703,0.003-92.553c0-0.924,0.756-1.683,1.68-1.683h1.686h2.516
		V3.369c-8.697,0-17.392,0-26.086,0v11.128H132.141L132.141,14.497z"/>
	<path fill-rule="evenodd" clip-rule="evenodd" fill="#07CCF9" d="M332.108,60.249L332.108,60.249V17.865h-4.196
		c-0.927,0-1.683-0.756-1.683-1.683v-14.5c0-0.924,0.756-1.683,1.683-1.683c23.214,0,46.425,0,69.64,0
		c0.927,0,1.683,0.759,1.683,1.683l2.815,35.997c0,0.927-0.756,1.681-1.683,1.681c-4.627,0-9.257,0-13.884,0
		c-0.927,0-1.812-0.753-1.971-1.681l-2.838-17.255c-0.277-1.594-1.104-2.533-2.679-2.533c-8.526,0-17.007-0.026-25.525-0.026V50.67
		c9.811,0,19.62,0,29.43,0c0.927,0,1.683,0.756,1.683,1.683V66.85c0,0.927-0.756,1.682-1.683,1.682c-9.81,0-19.62,0-29.43,0v38.519
		c9.157,0,18.313,0,27.473,0c1.575,0,2.399-0.938,2.675-2.533l3.492-20.253c0.157-0.928,1.044-1.684,1.972-1.684
		c4.23,0,8.463,0,12.693,0c0.927,0,1.683,0.756,1.683,1.684l-1.666,38.966c0,0.927-0.756,1.683-1.683,1.683
		c-24.067,0-48.134,0-72.201,0c-0.927,0-1.683-0.756-1.683-1.683v-14.497c0-0.927,0.755-1.683,1.683-1.683h4.199V60.249
		L332.108,60.249z M379.389,14.548c3.757-0.026,5.26,3.611,5.605,5.625l2.593,15.821c3.7,0,7.397,0,11.094,0l-2.813-32.625
		c-22.09,0-44.184,0-66.273,0v11.128h2.513h1.686c0.924,0,1.683,0.759,1.683,1.683v48.941l-0.003,0.086v43.526
		c0,0.928-0.756,1.684-1.683,1.684h-1.683h-2.516v11.131c22.946-0.003,45.889-0.003,68.835,0l1.668-35.6c-3.303,0-6.606,0-9.91,0
		l-3.243,18.817c-0.348,2.017-1.851,5.651-5.605,5.626c-9.844,0.037-19.7,0.025-29.553,0.025c-0.924,0-1.683-0.756-1.683-1.684
		V66.85c0-0.928,0.759-1.684,1.683-1.684c9.811,0,19.623,0,29.43,0V54.036c-9.81,0-19.617,0-29.43,0
		c-0.924,0-1.683-0.756-1.683-1.683V16.18c0-0.924,0.759-1.683,1.683-1.683C360.99,14.497,370.187,14.537,379.389,14.548
		L379.389,14.548z"/>
	<path fill-rule="evenodd" clip-rule="evenodd" fill="#07CCF9" d="M928.652,17.865h-4.204c-0.925,0-1.684-0.756-1.684-1.683v-14.5
		c0-0.924,0.759-1.683,1.684-1.683c23.22,0,46.429,0,69.642,0c0.931,0,1.684,0.759,1.684,1.683l2.818,35.997
		c0,0.927-0.759,1.681-1.683,1.681c-4.627,0-9.26,0-13.887,0c-0.924,0-1.809-0.753-1.974-1.681l-2.836-17.255
		c-0.274-1.594-1.101-2.533-2.676-2.533c-8.528,0-17.007-0.026-25.524-0.026V50.67c9.808,0,19.62,0,29.427,0
		c0.931,0,1.684,0.756,1.684,1.683V66.85c0,0.927-0.753,1.682-1.684,1.682c-9.813,0-19.619,0-29.427,0v38.519
		c9.157,0,18.313,0,27.47,0c1.575,0,2.402-0.938,2.676-2.533l3.492-20.253c0.159-0.928,1.044-1.684,1.974-1.684
		c4.228,0,8.461,0,12.694,0c0.924,0,1.682,0.756,1.682,1.684l-1.665,38.966c0,0.927-0.759,1.683-1.683,1.683
		c-24.07,0-48.134,0-72.204,0c-0.925,0-1.684-0.756-1.684-1.683v-14.497c0-0.927,0.759-1.683,1.684-1.683h4.198
		C928.646,77.319,928.652,47.595,928.652,17.865L928.652,17.865z M975.93,14.548c3.755-0.026,5.261,3.611,5.603,5.625l2.596,15.821
		c3.697,0,7.394,0,11.097,0l-2.818-32.625c-22.09,0-44.18,0-66.271,0v11.128h2.516h1.684c0.924,0,1.683,0.759,1.683,1.683
		c0,30.85-0.006,61.704-0.006,92.553c0,0.928-0.758,1.684-1.683,1.684h-1.684h-2.516v11.131c22.946-0.003,45.892-0.003,68.838,0
		l1.666-35.6c-3.304,0-6.606,0-9.909,0l-3.241,18.817c-0.348,2.017-1.854,5.651-5.607,5.626c-9.842,0.037-19.7,0.025-29.553,0.025
		c-0.925,0-1.678-0.756-1.678-1.684V66.85c0-0.928,0.753-1.684,1.678-1.684c9.813,0,19.625,0,29.433,0V54.036
		c-9.813,0-19.62,0-29.433,0c-0.925,0-1.678-0.756-1.678-1.683V16.18c0-0.924,0.753-1.683,1.678-1.683
		C957.532,14.497,966.728,14.537,975.93,14.548L975.93,14.548z"/>
	<path fill-rule="evenodd" clip-rule="evenodd" fill="#07CCF9" d="M816.592,17.865h-4.198c-0.931,0-1.684-0.756-1.684-1.683v-14.5
		c0-0.924,0.753-1.683,1.684-1.683c10.023,0,20.054,0,30.083,0c0.924,0,1.678,0.759,1.678,1.683v14.5
		c0,0.927-0.754,1.683-1.678,1.683h-3.366h-1.158c0,29.727,0,59.456,0,89.185c8.159,0,16.322,0,24.486,0
		c1.575,0,2.402-0.938,2.682-2.533l3.485-20.253c0.16-0.928,1.044-1.684,1.975-1.684c4.233,0,8.461,0,12.693,0
		c0.931,0,1.684,0.756,1.684,1.684l-1.666,38.966c0,0.927-0.759,1.683-1.684,1.683c-23.071,0-46.143,0-69.22,0
		c-0.925,0-1.683-0.756-1.683-1.683v-14.497c0-0.927,0.758-1.683,1.683-1.683h4.199C816.587,77.319,816.592,47.595,816.592,17.865
		L816.592,17.865z M839.111,14.497h1.678V3.369c-8.906,0-17.806,0-26.712,0v11.128h2.516h1.684c0.924,0,1.683,0.759,1.683,1.683
		c0,30.85,0,61.704,0,92.553c0,0.928-0.759,1.684-1.683,1.684h-1.688h-2.517v11.131c21.954-0.003,43.901-0.003,65.854,0l1.666-35.6
		c-3.304,0-6.607,0-9.91,0l-3.24,18.817c-0.349,2.017-1.849,5.651-5.608,5.626c-8.849,0.031-17.703,0.025-26.568,0.025
		c-0.925,0-1.684-0.756-1.684-1.684c0-30.85,0-61.703,0-92.553c0-0.924,0.759-1.683,1.684-1.683H839.111L839.111,14.497z"/>
	<path fill-rule="evenodd" clip-rule="evenodd" fill="#07CCF9" d="M287.616,17.865h-5.117L258.19,123.23
		c0,0.927-0.756,1.683-1.681,1.683c-7.936,0.037-15.717,0.037-23.65,0c-0.924,0-1.683-0.756-1.683-1.683L206.869,17.865h-5.117
		c-0.927,0-1.683-0.756-1.683-1.683v-14.5c0-0.924,0.756-1.683,1.683-1.683c7.086,0,14.177,0,21.263,0
		c0.927,0,1.683,0.759,1.683,1.683l19.836,95.535l20.136-95.535c0-0.924,0.756-1.683,1.683-1.683c7.088,0,14.177,0,21.262,0
		c0.927,0,1.683,0.759,1.683,1.683v14.5C289.299,17.109,288.543,17.865,287.616,17.865L287.616,17.865z M234.151,121.157
		c7.02,0,14.043,0,21.066,0l24.346-105.299c0.203-0.898,1.067-1.532,1.968-1.327l1.751-0.034h2.649V3.369
		c-6.064,0-12.134,0-18.199,0l-21.548,102.11c-0.502,2.379-2.521,2.091-2.906,0.245L221.634,3.369c-6.064,0-12.135,0-18.199,0
		v11.128h2.647l1.755,0.034c0.901-0.205,1.763,0.428,1.968,1.327L234.151,121.157L234.151,121.157z"/>
	<path fill-rule="evenodd" clip-rule="evenodd" fill="#07CCF9" d="M683.168,107.108h5.117L712.595,1.74
		c0-0.927,0.759-1.683,1.683-1.683c9.219-0.032,18.313-0.032,27.527,0c0.93,0,1.683,0.756,1.683,1.683l24.31,105.368h5.117
		c0.93,0,1.683,0.756,1.683,1.68v14.5c0,0.927-0.753,1.683-1.683,1.683c-7.085,0-14.177,0-21.263,0
		c-0.925,0-1.684-0.756-1.684-1.683l-6.161-29.607c-10.509,0-21.018,0-31.532,0l-6.161,29.607c0,0.927-0.753,1.683-1.683,1.683
		c-7.086,0-14.172,0-21.263,0c-0.925,0-1.684-0.756-1.684-1.683v-14.5C681.485,107.864,682.244,107.108,683.168,107.108
		L683.168,107.108z M743.231,80.488c-10.126,0-20.253,0-30.379,0c-0.925,0-1.523-0.757-1.324-1.683
		c4.656-22.005,9.642-44.047,14.463-66.066c0.513-2.501,3.64-2.499,4.102,0c4.821,22.019,9.813,44.061,14.468,66.066
		C744.754,79.731,744.162,80.488,743.231,80.488L743.231,80.488z M740.938,77.122l-12.894-59.547l-12.894,59.547
		C723.743,77.122,732.34,77.122,740.938,77.122L740.938,77.122z M753.032,121.604c6.065,0,12.136-0.003,18.2,0v-11.131h-2.647
		l-1.757-0.031c-0.896,0.205-1.763-0.431-1.963-1.329L740.515,3.814c-8.317,0.003-16.63,0.003-24.948,0l-24.344,105.299
		c-0.205,0.898-1.066,1.534-1.968,1.329l-1.752,0.031h-2.646v11.131c6.063-0.003,12.135,0,18.193,0
		c2.083-9.875,4.153-19.742,6.241-29.606c0.194-0.927,1.112-1.683,2.037-1.683c11.142,0,22.284,0,33.426,0
		c0.925,0,1.843,0.756,2.042,1.683C748.879,101.862,750.957,111.729,753.032,121.604L753.032,121.604z"/>
</g>
</svg>
