<?xml version="1.0" encoding="utf-8"?>
<!-- Generator: Adobe Illustrator 14.0.0, SVG Export Plug-In . SVG Version: 6.00 Build 43363)  -->
<!DOCTYPE svg PUBLIC "-//W3C//DTD SVG 1.1//EN" "http://www.w3.org/Graphics/SVG/1.1/DTD/svg11.dtd">
<svg version="1.1" id="Calque_1" xmlns="http://www.w3.org/2000/svg" xmlns:xlink="http://www.w3.org/1999/xlink" x="0px" y="0px"
	 width="734px" height="252px" viewBox="0 0 734 252" enable-background="new 0 0 734 252" xml:space="preserve">
<g>
	<path fill-rule="evenodd" clip-rule="evenodd" fill="#000C0C" stroke="#000C0C" d="M709.593,20.789
		c1.929,3.847,2.446,8.379,3.11,12.433c0.722,4.429,1.582,9.759,1.554,13.987c-0.035,4.878-1.63,9.152-1.554,13.987
		c0.069,4.496,0.986,9.495,1.554,13.987c0.534,4.23,1.474,8.477,1.554,12.433c0.169,8.432-2.068,16.934-1.554,24.865
		c0.359,5.542,2.074,11.618,3.108,17.095c-0.964,4.218,1.971,12.334-1.555,13.986c2.679,5.658,3.618,12.089,4.661,18.649
		c0.355,2.228,1.376,5.403,1.554,10.879c0.096,2.934-0.071,7.321,0,10.879c-3.785,1.913-5.372,5.521-9.322,7.77
		c-3.326,1.893-7.98,1.623-10.879,4.663c-15.362-1.216-36.615,3.46-45.068-4.663c0-4.145,0-8.287,0-12.433
		c5.37-3.391,10.932-5.979,18.647-3.107c5.589-2.7,12.981-3.598,21.757-3.108c3.183-8.594,1.023-17.658,1.554-26.42
		c0.534-8.793,1.15-16.465,0-26.419c-0.291-2.528,0.456-5.27,0-7.771c-0.27-1.49-1.411-2.378-1.554-4.662
		c-0.424-6.764,0.315-13.07,0-20.203c-0.071-6.145-3.421-9.012-4.661-13.987c0-7.253,0-14.504,0-21.757
		c-0.021-3.088-4.24-1.976-3.107-6.216c-3.393,0.282-4.946-1.272-4.664-4.663c-9.751,2.658-21.604,4.406-32.635,1.554
		c-4.468-2.785-7.713-6.793-9.324-12.433c2.114-1.908,5.42-1.897,7.769-3.108c0.705-0.363,0.966-2.829,1.556-3.108
		c3.547-1.68,15.3-0.924,21.756-1.554c1.861-0.182,3.106-1.253,7.772-1.554C689.37,20.291,699.811,21.154,709.593,20.789z"/>
	<path fill-rule="evenodd" clip-rule="evenodd" fill="#000C0C" stroke="#000C0C" d="M467.155,30.113
		c6.761-0.026,13.982-0.515,18.65,1.554c1.68,2.483,3.427,4.771,4.66,7.77c1.296,3.145,0.822,6.698,3.109,9.325
		c-0.269,7.141-5.375,11.839-1.555,18.649c3.454,3.597,6.062-0.528,10.878,0c0.226-1.944,2.871-1.152,4.663-1.554
		c3.923-0.88,6.586-0.742,13.988-1.554c6.238-0.685,8.162-1.633,15.539,0c6.416,1.42,6.627,2.607,12.433,4.662
		c0.356,2.052,2.992,2.432,3.109,4.663c0.017,0.303-0.166,1.313,0,1.554c0.979,1.428,3.291,2.721,4.663,4.663
		c0.858,1.217,3.021,3.04,3.107,4.662c0.105,1.994,2.259,1.978,3.107,3.108c0.415,0.551-0.515,2.686,0,3.108
		c4.037,3.304,3.637,13.767,6.218,21.757c0.129,2.46-0.749,5.928,1.554,6.216c-2.047,10.388-6.797,18.069-9.326,27.974
		c-6.625,4.253-10.469,11.288-17.094,15.541c-3.647,1.531-7.635,2.726-12.433,3.108c-0.553,4.109-7.919,1.405-9.324,4.662
		c-13.811-5.262-25.401,3.046-40.407,1.554c0.155-4.815-0.704-8.62-3.108-10.878c0.942-4.757,3.3-8.097,4.662-12.433
		c-3.165-19.109-3.777-40.774-9.323-57.502c-1.196-5.856,1.896-7.429,1.553-12.433c-0.605-8.47-6.552-11.733-3.106-20.203
		c0.067-4.732-3.282-6.043-4.663-9.325C468.735,42.002,469.224,34.78,467.155,30.113z M540.197,143.562
		c3.995-9.602,12.051-35.915,6.218-45.068c-2.154-3.378-2.933-6.467-4.663-9.325c-4.625-1.467-9.699-5.658-15.542-6.216
		c-7.955-0.76-15.213,2.749-21.757,4.663c-3.931,11.61-5.593,25.488-7.77,38.852c2.834,6.489,5.652,12.996,9.324,18.649
		c7.734,1.071,12.202,5.41,20.202,6.216C531.755,149.623,534.105,144.722,540.197,143.562z"/>
	<path fill-rule="evenodd" clip-rule="evenodd" fill="#000C0C" stroke="#000C0C" d="M667.634,89.168
		c-12.572-0.377-18.503-7.4-26.42-12.433c-7.77,0-15.541,0-23.312,0c-5.456-0.276-5.111,5.25-9.324,6.216
		c-0.378,4.802-7.734,2.626-6.217,9.325c-0.689,5.085,4.707,4.984,7.77,6.216c2.647,1.065,6.452,2.692,9.326,3.108
		c6.934,1.001,14.706-0.83,21.757,0c8.366,0.985,16.261,5.699,23.312,4.662c5.612,6.82,11.27,13.597,17.096,20.203
		c-0.24,7.081-1.286,6.098,0,12.433c0,2.591,0,5.18,0,7.771c0.954,1.383,1.877,2.779,0,3.108c0.863,3.446-2.979,2.211-3.108,4.662
		c-0.03,0.561-2.791,5.475-6.218,4.662c-1.607,4.091-6.162,5.233-7.77,9.325c-3.461,1.596-8.383,2.32-13.988,4.662
		c-0.939,0.393-2.348,2.781-3.107,3.108c-1.815,0.778-4.699-0.957-4.661,1.554c-6.976-1.383-12.957,1.934-18.65,1.554
		c-4.448-0.296-8.065-2.186-12.433-3.107c-13.955,1.004-24.002-1.9-31.081-7.771c-2.736-5.233,1.045-7.97,0-15.541
		c-0.155-6.371-0.307-12.739,1.555-17.096c4.697,0.483,12.087-1.726,12.433,3.108c1.451,1.139,2.354,2.826,3.106,4.662
		c1.254,1.337,4.258,0.925,4.663,3.108c5.121,0.577,7.766,3.631,10.879,6.217c10.474,1.739,23.034,8.267,32.635,0
		c4.637-1.063,9.513-1.885,10.881-6.217c0.899-5.045-1.06-7.23-1.555-10.879c-0.819-3.564-6.169-3.399-9.326-4.662
		c-0.553-0.221-2.758,0.428-3.106,0c-2.341-2.859-9.044,0.786-15.542,0c-2.475-0.299-4.902-0.827-7.77-1.554
		c-2.212-0.56-6.346-1.917-9.326-3.108c-1.745-0.698-3.023-2.064-4.661-3.108c-0.526-0.335-4.242-1.042-4.662-1.554
		c-0.149-0.182,0.194-1.463,0-1.554c-0.564-0.267-2.737,0.454-3.109,0c-1.246-1.524-1.366-1.997-3.106-3.108
		c-1.915-1.22-8.56-4.906-10.879-7.77c-1.044-1.289-0.598-3.41-1.554-4.663c-1.064-1.39-2.239-1.184-3.109-3.108
		c-1.4-3.099-0.447-3.344-1.554-7.771c-0.184-0.736-1.571-1.836-1.555-1.554c-0.281-4.746,4.061-9.447,3.108-15.541
		c5.506-3.584,8.371-10.824,13.987-15.541c2.607-2.191,7.049-3.932,10.878-6.216c3.613-2.153,7.505-5.137,10.879-6.216
		c12.344-3.947,25.12-1.783,40.407,0c0.901,1.833,3.735,2.765,6.215,4.663c2.961,2.264,5.107,3.772,7.772,7.77
		c0.521,0.783-0.014,1.879,1.552,1.554c2.054,4.55-0.99,8.022,0,15.541C675.084,82.817,669.315,85.997,667.634,89.168z"/>
	<path fill-rule="evenodd" clip-rule="evenodd" fill="#000C0C" stroke="#000C0C" d="M94.173,67.411
		c-10.006,0.873-17.726,4.031-24.865,7.771c-9.515-1.414-16.851-4.04-26.419-1.554c-2.354,9.939-2.063,27.9-1.554,40.406
		c0.099,2.461-0.726,5.926,1.554,6.216c0.129,2.461-0.747,5.928,1.554,6.216c1.921,5.028-5.029,1.187-3.108,6.217
		c0.58,3.167,0.655,8.426,3.108,10.878c0.821,0.821-1.84,8.797-1.554,12.433c0.485,6.143,2.587,12.349,3.108,18.649
		c1.07,12.95-1.974,26.346,3.108,37.299c8.516,3.399,23.146,0.683,34.19,1.554c10.511-3.722,19.317,1.992,17.095,15.541
		c-8.254,2.624-19.625,2.132-24.865,7.771c-17.376,0.217-33.242,6.849-45.069-3.108c-2.842-12.498-3.761-26.471-1.554-43.515
		c0.346-2.671,1.653-3.372,1.554-6.216c-0.182-5.279-2.589-10.067-3.108-15.541c-1.18-12.439,0.798-26.356-1.554-38.853
		c-0.877-4.661-2.945-8.215-3.108-12.433c-0.242-6.247,1.411-12.681,1.554-18.649c-0.124-6.092-2.739-9.693-4.662-13.987
		c0.856-10.54-1.825-24.618,1.554-32.636c20.173,2.726,29.006-0.754,49.731-1.554C86.14,48.507,93.755,54.361,94.173,67.411z"/>
	<path fill-rule="evenodd" clip-rule="evenodd" fill="#000C0C" stroke="#000C0C" d="M457.831,68.965
		c2.155,3.581,0.376,7.015,1.554,12.433c0.284,1.305,1.37,1.534,1.555,3.108c0.596,5.087-2.314,10.363,1.555,13.987
		c-2.537,10.082,2.295,21.271,1.553,34.19c-0.394,5.572,4.667,5.692,4.663,10.878c1.045,7.78-1.439,12.029-1.555,18.649
		c-10.463-0.498-14.544,2.191-23.312,0c-9.166,2.748-19.421,4.409-29.526,6.217c-5.238-0.46-4.509-6.891-9.326-7.771
		c-0.172-2.936-5.138-1.079-4.661-4.663c-5.528-3.797-8.393-10.256-12.433-15.54c-1.012-16.431,2.694-28.279-1.555-40.407
		c-1.934-7.391-7.273-11.375-7.771-20.203c2.805-0.956,3.393-3.366,4.663-4.663c1.967-2.009,1.486-1.888,4.663-3.108
		c2.569-0.988,5.882-2.313,10.878-1.554c3.784,9.167,3.242,22.659,3.109,35.744c-0.394,5.573,4.666,5.694,4.661,10.878
		c-1.784,6.421-1.784,12.229,0,18.649c-0.469,1.873,2.542,0.753,3.108,1.555c0.387,0.546-0.504,2.71,0,3.108
		c1.115,0.88,3.488,1.025,4.663,1.554c2.279,1.027,3.707,0.813,6.215,1.554c1.84,0.544,3.162,1.503,4.663,1.555
		c2.524,0.086,2.664-1.205,4.661-1.555c3.878-0.677,8.318-0.992,12.433-3.107c-0.784-3.418,1.036-6.74,0-10.879
		c-0.181-0.726-1.569-1.85-1.554-1.554c-0.076-1.392,1.867-3.417,1.554-6.217c-0.153-1.374-1.387-2.484-1.554-4.663
		c-0.882-11.56-0.389-23.316-3.106-34.19c-0.41-1.639-5.448-6.875-3.109-12.433c4.396-0.92,7.414-3.959,10.879-4.662
		c2.4-0.487,1.787,2.293,6.215,0C454.703,65.877,453.59,70.098,457.831,68.965z"/>
	<path fill-rule="evenodd" clip-rule="evenodd" fill="#000C0C" stroke="#000C0C" d="M165.662,110.926
		c-14.257,0.271-22.213-5.761-31.082-10.878c-8.807,0-17.614,0-26.42,0c-2.333-0.463-4.625,1.891-6.216,3.108
		c-0.505,0.386-1.097,2.902-1.554,3.108c-0.709,0.32-2.531-0.49-3.108,0c-2.952,2.509-5.154,6.42-7.771,9.325
		c3.346,3.906,8.468,6.037,10.878,10.878c7.734-1.518,9.256,3.177,13.986,4.662c15.682,2.229,27.678-4.04,38.853-1.554
		c7.716,1.716,14.265,10.165,18.649,15.541c2.082,2.553,3.646,7.946,7.771,10.878c-3.476,4.995-0.853,14.637,0,20.204
		c-0.208,6.008-6.303,6.13-7.771,10.878c-4.373,1.844-5.779,6.653-9.324,9.325c-10.162,3.824-21,6.975-31.082,10.878
		c-15.659-4.024-36.307-3.063-55.947-3.107c-2.583-3.116-4.174-7.225-9.325-7.771c-0.562-13.763-1.803-21.196,3.108-31.082
		c3.722-0.941,7.09-2.235,12.433-1.555c6.515,5.918,15.7,9.166,20.203,17.096c10.523-1.715,13.224,4.389,20.203,6.216
		c9.704-1.175,16.342-5.415,24.866-7.771c0.904-10.229-3.684-14.967-6.216-21.757c-8.461,0.173-14.208-2.368-20.203-4.662
		c-3.25-0.659-4.116,1.065-6.218,1.554c-2.46,0.131-5.927-0.747-6.216,1.554c-7.001-3.118-14.092-4.534-20.203-7.77
		c-6.365-3.371-10.144-9.019-17.095-10.879c-2.551-6.775-6.604-12.046-9.325-18.649c-0.527-7.779,3.636-10.87,3.108-18.649
		c4.584-3.187,8.634-6.907,10.879-12.433c5.058-0.842,8.707-5.368,12.433-7.771c4.313-2.78,8.706-4.36,12.433-7.771
		c5.391-1.246,5.974,2.314,10.879,1.554c4.173-2.044,8.26-4.172,12.433-6.217c7.789,4.223,18.575,1.602,26.419,4.663
		c0.744,0.29,0.967,2.844,1.554,3.108c2.933,1.322,5.081,1.15,7.771,3.108c2.253,2.928,2.284,8.077,6.216,9.325
		c0,4.662,0,9.324,0,13.987C164.885,106.49,169.05,107.677,165.662,110.926z"/>
	<path fill-rule="evenodd" clip-rule="evenodd" fill="#000C0C" stroke="#000C0C" d="M277.556,87.615
		c-0.358,10.375,3.897,19.235-1.554,26.419c-2.658-0.068-4.025,1.155-4.662,3.108c-9.039-1.325-15.129-5.951-21.757-10.878
		c-1.474-1.096-5.929-1.299-4.662-4.662c-8.568,1.833-10.791-2.679-17.095-3.108c-6.16,0.575-8.962,4.506-10.878,9.325
		c-3.584-0.475-1.727,4.489-4.663,4.662c-1.518,1.59-3.072,3.143-4.662,4.662c0.786,3.418-1.034,6.74,0,10.879
		c0.358,1.434,1.672,9.725,3.108,13.986c1.546,4.588,5.52,7.907,6.216,12.433c0.975,1.698,3.043,2.029,4.662,3.108
		c1.037,0.69,2.154,2.481,3.108,3.108c1.027,0.674,1.996,0.845,3.108,1.554c1.667,1.063,2.191,2.612,6.216,3.108
		c15.061,1.857,29.713-13.01,37.298-21.758c8.766-0.994,12.16,3.38,17.095,6.217c-2.547,4.654-0.82,12.21-4.663,15.541
		c-1.637,1.419-4.753,2.581-6.216,6.216c-1.778,2.321-5.29,5.605-7.771,9.325c-4.011,1.008-8.336,3.224-12.433,4.662
		c-4.442,1.559-9.234,1.731-12.433,4.662c-4.23-0.729-8.109-2.2-12.433-3.108c-3.988-0.838-9.665-0.45-12.433-1.554
		c-0.657-0.263,0.074-1.469-1.554-1.554c-4.566-0.24-10.579-8.407-13.987-12.434c-2.59,0-5.181,0-7.771,0
		c-0.071-6.145-3.422-9.012-4.663-13.986c-0.125-6.094-2.739-9.693-4.662-13.987c2.939-8.362,0.387-21.23-3.108-27.973
		c5.548-16.728,15.48-29.071,27.974-38.853c6.199,0.853,4.68,0.853,10.879,0c1.079-3.065,8.671,0.382,9.325-3.108
		c8.813,1.546,15.235,5.485,26.419,4.662c2.686,0.004,3.216,1.832,4.662,3.108c1.053,0.93,2.578,1.634,3.108,3.108
		C271.08,84.766,273.154,87.355,277.556,87.615z"/>
	<path fill-rule="evenodd" clip-rule="evenodd" fill="#000C0C" stroke="#000C0C" d="M369.247,115.588
		c-5.638-1.613-9.647-4.857-12.432-9.325c-8.902,0.096-13.184-4.429-21.757-4.662c-6.867,2.457-10.913,7.735-17.095,10.878
		c1.354,6.816-2.721,10.482-1.554,18.649c0.067,0.474-0.328,2.84,0,3.108c2.379,1.945,0.146,7.445,1.554,12.433
		c0.147,0.523-0.383,2.794,0,3.108c1.974,1.614,0.835,3.164,1.554,6.216c0.805,3.424,5.192,8.531,1.554,13.987
		c-1.111,1.666-2.311,2.728-3.108,4.662c-6.512-0.223-6.935-6.533-15.541-4.662c-3.296-23.24-1.399-43.85-4.663-68.38
		c-1.947-4.913-5.503-14.327-1.554-20.203c2.071-2.116,2.404-0.275,4.662,0c2.44,0.297,5.943-0.875,6.216,1.554
		c4.213,0.967,3.868,6.493,9.325,6.216c3.169,1,3.349-2.386,4.662-3.108c2.034-1.117,4.167-0.36,6.216-1.554
		c0.835-0.487-0.218-1.461,1.554-1.554c0.477-0.025,2.564-1.191,3.108-1.554c0.584-0.389,2.673-2.985,3.108-3.108
		c10.748-3.04,17.747,3.858,26.419,6.216c4.131-1.337,2.768,2.926,6.216,3.108c-0.143-0.008,5.643,3.783,6.217,4.662
		c0.699,1.073-0.51,3.471,0,4.662c0.37,0.865,3.367,2.418,3.108,6.216C376.629,108.877,372.253,110.914,369.247,115.588z"/>
</g>
<g>
	<linearGradient id="SVGID_1_" gradientUnits="userSpaceOnUse" x1="28" y1="104.645" x2="709.1651" y2="104.645">
		<stop  offset="0" style="stop-color:#009C97"/>
		<stop  offset="0.5" style="stop-color:#90FCFC"/>
		<stop  offset="1" style="stop-color:#009C97"/>
	</linearGradient>
	<path fill-rule="evenodd" clip-rule="evenodd" fill="url(#SVGID_1_)" d="M719.025,169.09c-0.178-5.476-1.198-8.651-1.554-10.879
		c-1.043-6.561-1.982-12.991-4.661-18.649c3.525-1.652,0.591-9.769,1.555-13.986c-1.034-5.478-2.749-11.553-3.108-17.095
		c-0.515-7.931,1.723-16.433,1.554-24.865c-0.08-3.957-1.02-8.203-1.554-12.433c-0.567-4.492-1.484-9.491-1.554-13.987
		c-0.076-4.835,1.519-9.109,1.554-13.987c0.028-4.228-0.832-9.558-1.554-13.987c-0.664-4.054-1.182-8.585-3.11-12.433
		c-9.782,0.366-20.223-0.498-27.972,0c-4.666,0.301-5.911,1.372-7.772,1.554c-6.456,0.63-18.209-0.126-21.756,1.554
		c-0.59,0.279-0.851,2.745-1.556,3.108c-2.349,1.211-5.654,1.201-7.769,3.108c1.611,5.64,4.856,9.648,9.324,12.433
		c11.03,2.852,22.884,1.104,32.635-1.554c-0.282,3.391,1.271,4.945,4.664,4.663c-1.133,4.24,3.087,3.128,3.107,6.216
		c0,7.253,0,14.504,0,21.757c1.24,4.975,4.59,7.842,4.661,13.987c0.315,7.133-0.424,13.439,0,20.203
		c0.143,2.284,1.284,3.172,1.554,4.662c0.456,2.501-0.291,5.242,0,7.771c1.15,9.955,0.534,17.626,0,26.419
		c-0.53,8.762,1.629,17.826-1.554,26.42c-8.775-0.489-16.168,0.408-21.757,3.108c-7.716-2.872-13.277-0.283-18.647,3.107
		c0,4.146,0,8.288,0,12.433c8.453,8.123,29.706,3.447,45.068,4.663c2.898-3.04,7.553-2.771,10.879-4.663
		c3.95-2.249,5.537-5.856,9.322-7.77C718.954,176.411,719.121,172.023,719.025,169.09z"/>
	<linearGradient id="SVGID_2_" gradientUnits="userSpaceOnUse" x1="28" y1="96.8813" x2="709.1652" y2="96.8813">
		<stop  offset="0" style="stop-color:#009C97"/>
		<stop  offset="0.5" style="stop-color:#90FCFC"/>
		<stop  offset="1" style="stop-color:#009C97"/>
	</linearGradient>
	<path fill-rule="evenodd" clip-rule="evenodd" fill="url(#SVGID_2_)" d="M566.727,108.48c-2.581-7.99-2.181-18.453-6.218-21.757
		c-0.515-0.422,0.415-2.557,0-3.108c-0.849-1.131-3.002-1.114-3.107-3.108c-0.086-1.623-2.249-3.445-3.107-4.662
		c-1.372-1.941-3.685-3.234-4.663-4.663c-0.166-0.241,0.017-1.25,0-1.554c-0.117-2.231-2.753-2.61-3.109-4.663
		c-5.806-2.055-6.017-3.242-12.433-4.662c-7.377-1.633-9.301-0.685-15.539,0c-7.402,0.812-10.065,0.674-13.988,1.554
		c-1.792,0.402-4.438-0.39-4.663,1.554c-4.816-0.528-7.424,3.597-10.878,0c-3.82-6.81,1.286-11.508,1.555-18.649
		c-2.287-2.627-1.813-6.18-3.109-9.325c-1.233-2.999-2.98-5.287-4.66-7.77c-4.668-2.069-11.89-1.58-18.65-1.554
		c2.068,4.667,1.58,11.889,1.555,18.649c1.381,3.281,4.73,4.592,4.663,9.325c-3.445,8.47,2.501,11.733,3.106,20.203
		c0.343,5.004-2.749,6.576-1.553,12.433c5.546,16.728,6.158,38.393,9.323,57.502c-1.362,4.336-3.72,7.676-4.662,12.433
		c2.404,2.258,3.264,6.063,3.108,10.878c15.006,1.492,26.597-6.815,40.407-1.554c1.405-3.257,8.771-0.553,9.324-4.662
		c4.798-0.383,8.785-1.577,12.433-3.108c6.625-4.253,10.469-11.288,17.094-15.541c2.529-9.904,7.279-17.586,9.326-27.974
		C565.978,114.408,566.855,110.94,566.727,108.48z M537.197,139.562c-6.092,1.16-8.442,6.062-13.987,7.771
		c-8-0.806-12.468-5.145-20.202-6.216c-3.672-5.653-6.49-12.16-9.324-18.649c2.177-13.364,3.839-27.242,7.77-38.852
		c6.544-1.914,13.802-5.423,21.757-4.663c5.843,0.559,10.917,4.749,15.542,6.216c1.73,2.858,2.509,5.946,4.663,9.325
		C549.248,103.646,541.192,129.96,537.197,139.562z"/>
	<linearGradient id="SVGID_3_" gradientUnits="userSpaceOnUse" x1="28" y1="108.9385" x2="709.1652" y2="108.9385">
		<stop  offset="0" style="stop-color:#009C97"/>
		<stop  offset="0.5" style="stop-color:#90FCFC"/>
		<stop  offset="1" style="stop-color:#009C97"/>
	</linearGradient>
	<path fill-rule="evenodd" clip-rule="evenodd" fill="url(#SVGID_3_)" d="M669.295,155.103c3.427,0.813,6.188-4.102,6.218-4.662
		c0.129-2.451,3.972-1.216,3.108-4.662c1.877-0.329,0.954-1.726,0-3.108c0-2.591,0-5.18,0-7.771c-1.286-6.335-0.24-5.352,0-12.433
		c-5.826-6.606-11.483-13.383-17.096-20.203c-7.051,1.037-14.945-3.677-23.312-4.662c-7.051-0.83-14.823,1.001-21.757,0
		c-2.874-0.416-6.679-2.043-9.326-3.108c-3.063-1.232-8.459-1.131-7.77-6.216c-1.518-6.699,5.839-4.522,6.217-9.325
		c4.213-0.967,3.868-6.492,9.324-6.216c7.771,0,15.542,0,23.312,0c7.917,5.033,13.848,12.055,26.42,12.433
		c1.682-3.172,7.45-6.351,3.106-10.878c-0.99-7.519,2.054-10.991,0-15.541c-1.565,0.325-1.031-0.771-1.552-1.554
		c-2.665-3.998-4.812-5.506-7.772-7.77c-2.479-1.897-5.313-2.829-6.215-4.663c-15.287-1.783-28.063-3.947-40.407,0
		c-3.374,1.079-7.266,4.063-10.879,6.216c-3.829,2.284-8.271,4.025-10.878,6.216c-5.616,4.717-8.481,11.957-13.987,15.541
		c0.952,6.094-3.39,10.795-3.108,15.541c-0.017-0.282,1.371,0.818,1.555,1.554c1.106,4.427,0.153,4.671,1.554,7.771
		c0.87,1.924,2.045,1.718,3.109,3.108c0.956,1.252,0.51,3.374,1.554,4.663c2.319,2.864,8.964,6.55,10.879,7.77
		c1.74,1.111,1.86,1.584,3.106,3.108c0.372,0.454,2.545-0.267,3.109,0c0.194,0.091-0.149,1.372,0,1.554
		c0.42,0.513,4.136,1.219,4.662,1.554c1.638,1.044,2.916,2.41,4.661,3.108c2.98,1.191,7.114,2.548,9.326,3.108
		c2.867,0.727,5.295,1.255,7.77,1.554c6.498,0.786,13.201-2.859,15.542,0c0.349,0.428,2.554-0.221,3.106,0
		c3.157,1.263,8.507,1.098,9.326,4.662c0.495,3.648,2.454,5.834,1.555,10.879c-1.368,4.332-6.244,5.154-10.881,6.217
		c-9.601,8.267-22.161,1.739-32.635,0c-3.113-2.586-5.758-5.64-10.879-6.217c-0.405-2.184-3.409-1.771-4.663-3.108
		c-0.753-1.836-1.655-3.523-3.106-4.662c-0.346-4.834-7.735-2.625-12.433-3.108c-1.861,4.356-1.71,10.725-1.555,17.096
		c1.045,7.571-2.736,10.308,0,15.541c7.079,5.87,17.126,8.774,31.081,7.771c4.367,0.922,7.984,2.812,12.433,3.107
		c5.693,0.38,11.675-2.937,18.65-1.554c-0.038-2.511,2.846-0.775,4.661-1.554c0.76-0.327,2.168-2.716,3.107-3.108
		c5.605-2.342,10.527-3.066,13.988-4.662C663.133,160.336,667.688,159.193,669.295,155.103z"/>
	<linearGradient id="SVGID_4_" gradientUnits="userSpaceOnUse" x1="28" y1="140.583" x2="709.1651" y2="140.583">
		<stop  offset="0" style="stop-color:#009C97"/>
		<stop  offset="0.5" style="stop-color:#90FCFC"/>
		<stop  offset="1" style="stop-color:#009C97"/>
	</linearGradient>
	<path fill-rule="evenodd" clip-rule="evenodd" fill="url(#SVGID_4_)" d="M80.295,209.496c-11.044-0.871-25.674,1.846-34.19-1.554
		c-5.082-10.953-2.039-24.349-3.108-37.299c-0.521-6.301-2.623-12.507-3.108-18.649c-0.286-3.636,2.375-11.611,1.554-12.433
		c-2.453-2.452-2.528-7.711-3.108-10.878c-1.921-5.03,5.029-1.188,3.108-6.217c-2.301-0.288-1.424-3.755-1.554-6.216
		c-2.28-0.29-1.455-3.755-1.554-6.216c-0.509-12.506-0.799-30.467,1.554-40.406c9.569-2.486,16.904,0.14,26.419,1.554
		c7.14-3.739,14.859-6.897,24.865-7.771c-0.418-13.05-8.034-18.904-23.311-17.095c-20.725,0.8-29.558,4.28-49.731,1.554
		c-3.379,8.018-0.698,22.096-1.554,32.636c1.923,4.293,4.539,7.895,4.662,13.987c-0.144,5.968-1.796,12.402-1.554,18.649
		c0.164,4.218,2.231,7.772,3.108,12.433c2.353,12.496,0.374,26.413,1.554,38.853c0.519,5.474,2.926,10.262,3.108,15.541
		c0.099,2.844-1.208,3.545-1.554,6.216c-2.207,17.044-1.288,31.017,1.554,43.515c11.827,9.957,27.693,3.325,45.069,3.108
		c5.24-5.639,16.611-5.146,24.865-7.771C99.612,211.488,90.806,205.774,80.295,209.496z"/>
	<linearGradient id="SVGID_5_" gradientUnits="userSpaceOnUse" x1="28" y1="113.1133" x2="709.1652" y2="113.1133">
		<stop  offset="0" style="stop-color:#009C97"/>
		<stop  offset="0.5" style="stop-color:#90FCFC"/>
		<stop  offset="1" style="stop-color:#009C97"/>
	</linearGradient>
	<path fill-rule="evenodd" clip-rule="evenodd" fill="url(#SVGID_5_)" d="M461.047,128.684c0.742-12.919-4.09-24.108-1.553-34.19
		c-3.869-3.624-0.959-8.899-1.555-13.987c-0.185-1.574-1.271-1.803-1.555-3.108c-1.178-5.418,0.602-8.853-1.554-12.433
		c-4.241,1.132-3.128-3.088-6.218-3.108c-4.428,2.293-3.814-0.487-6.215,0c-3.465,0.703-6.483,3.742-10.879,4.662
		c-2.339,5.558,2.699,10.794,3.109,12.433c2.718,10.874,2.225,22.63,3.106,34.19c0.167,2.178,1.4,3.289,1.554,4.663
		c0.313,2.8-1.63,4.825-1.554,6.216c-0.016-0.296,1.373,0.829,1.554,1.554c1.036,4.139-0.784,7.461,0,10.879
		c-4.114,2.115-8.555,2.431-12.433,3.107c-1.997,0.35-2.137,1.641-4.661,1.555c-1.501-0.052-2.823-1.011-4.663-1.555
		c-2.508-0.74-3.936-0.526-6.215-1.554c-1.175-0.528-3.548-0.674-4.663-1.554c-0.504-0.398,0.387-2.563,0-3.108
		c-0.566-0.802-3.577,0.318-3.108-1.555c-1.784-6.419-1.784-12.228,0-18.649c0.005-5.184-5.055-5.306-4.661-10.878
		c0.133-13.085,0.675-26.577-3.109-35.744c-4.996-0.759-8.309,0.566-10.878,1.554c-3.177,1.22-2.696,1.099-4.663,3.108
		c-1.271,1.296-1.858,3.707-4.663,4.663c0.498,8.828,5.838,12.812,7.771,20.203c4.249,12.127,0.543,23.976,1.555,40.407
		c4.04,5.284,6.904,11.743,12.433,15.54c-0.477,3.584,4.489,1.728,4.661,4.663c4.817,0.88,4.088,7.311,9.326,7.771
		c10.105-1.808,20.36-3.469,29.526-6.217c8.768,2.191,12.849-0.498,23.312,0c0.115-6.62,2.6-10.869,1.555-18.649
		C465.714,134.376,460.653,134.256,461.047,128.684z"/>
	<linearGradient id="SVGID_6_" gradientUnits="userSpaceOnUse" x1="28" y1="133.3457" x2="709.1652" y2="133.3457">
		<stop  offset="0" style="stop-color:#009C97"/>
		<stop  offset="0.5" style="stop-color:#90FCFC"/>
		<stop  offset="1" style="stop-color:#009C97"/>
	</linearGradient>
	<path fill-rule="evenodd" clip-rule="evenodd" fill="url(#SVGID_6_)" d="M168.878,141.116
		c-4.384-5.376-10.933-13.825-18.649-15.541c-11.175-2.486-23.171,3.782-38.853,1.554c-4.73-1.485-6.252-6.18-13.986-4.662
		c-2.411-4.841-7.533-6.972-10.878-10.878c2.616-2.905,4.818-6.816,7.771-9.325c0.577-0.49,2.398,0.32,3.108,0
		c0.458-0.207,1.049-2.723,1.554-3.108c1.591-1.217,3.884-3.571,6.216-3.108c8.806,0,17.613,0,26.42,0
		c8.868,5.118,16.825,11.149,31.082,10.878c3.388-3.249-0.776-4.436,0-9.324c0-4.663,0-9.325,0-13.987
		c-3.932-1.248-3.963-6.397-6.216-9.325c-2.689-1.958-4.837-1.786-7.771-3.108c-0.587-0.264-0.811-2.818-1.554-3.108
		c-7.845-3.061-18.631-0.44-26.419-4.663c-4.173,2.044-8.26,4.172-12.433,6.217c-4.905,0.76-5.488-2.8-10.879-1.554
		c-3.727,3.41-8.12,4.99-12.433,7.771c-3.726,2.402-7.375,6.928-12.433,7.771c-2.245,5.526-6.294,9.246-10.879,12.433
		c0.528,7.779-3.635,10.87-3.108,18.649c2.72,6.604,6.774,11.875,9.325,18.649c6.951,1.86,10.729,7.508,17.095,10.879
		c6.111,3.235,13.202,4.651,20.203,7.77c0.289-2.301,3.755-1.423,6.216-1.554c2.102-0.488,2.968-2.213,6.218-1.554
		c5.994,2.294,11.741,4.835,20.203,4.662c2.533,6.79,7.121,11.528,6.216,21.757c-8.523,2.355-15.162,6.596-24.866,7.771
		c-6.979-1.827-9.68-7.931-20.203-6.216c-4.503-7.93-13.688-11.178-20.203-17.096c-5.343-0.681-8.71,0.613-12.433,1.555
		c-4.911,9.886-3.67,17.319-3.108,31.082c5.151,0.546,6.742,4.654,9.325,7.771c19.64,0.045,40.288-0.917,55.947,3.107
		c10.083-3.903,20.92-7.054,31.082-10.878c3.545-2.672,4.951-7.481,9.324-9.325c1.468-4.748,7.562-4.87,7.771-10.878
		c-0.853-5.567-3.476-15.209,0-20.204C172.524,149.063,170.959,143.669,168.878,141.116z"/>
	<linearGradient id="SVGID_7_" gradientUnits="userSpaceOnUse" x1="28" y1="127.9063" x2="709.1652" y2="127.9063">
		<stop  offset="0" style="stop-color:#009C97"/>
		<stop  offset="0.5" style="stop-color:#90FCFC"/>
		<stop  offset="1" style="stop-color:#009C97"/>
	</linearGradient>
	<path fill-rule="evenodd" clip-rule="evenodd" fill="url(#SVGID_7_)" d="M268.34,139.562c-7.585,8.748-22.238,23.615-37.298,21.758
		c-4.025-0.496-4.549-2.046-6.216-3.108c-1.112-0.709-2.081-0.88-3.108-1.554c-0.954-0.627-2.072-2.418-3.108-3.108
		c-1.619-1.079-3.687-1.41-4.662-3.108c-0.697-4.525-4.67-7.845-6.216-12.433c-1.437-4.262-2.75-12.553-3.108-13.987
		c-1.034-4.139,0.786-7.461,0-10.879c1.59-1.519,3.144-3.072,4.662-4.662c2.936-0.173,1.079-5.137,4.663-4.662
		c1.916-4.819,4.718-8.75,10.878-9.325c6.305,0.43,8.527,4.941,17.095,3.108c-1.267,3.363,3.188,3.566,4.662,4.662
		c6.628,4.928,12.719,9.554,21.757,10.878c0.637-1.953,2.004-3.176,4.662-3.108c5.452-7.185,1.196-16.045,1.554-26.419
		c-4.402-0.26-6.477-2.849-10.878-3.108c-0.531-1.474-2.055-2.178-3.108-3.108c-1.446-1.276-1.976-3.104-4.662-3.108
		c-11.185,0.823-17.606-3.116-26.419-4.662c-0.653,3.49-8.246,0.042-9.325,3.108c-6.199,0.853-4.68,0.853-10.879,0
		c-12.493,9.781-22.426,22.125-27.974,38.853c3.496,6.743,6.047,19.611,3.108,27.973c1.923,4.294,4.538,7.894,4.662,13.987
		c1.241,4.975,4.591,7.842,4.663,13.986c2.59,0,5.18,0,7.771,0c3.408,4.026,9.421,12.193,13.987,12.434
		c1.627,0.085,0.896,1.291,1.554,1.554c2.769,1.104,8.445,0.716,12.433,1.554c4.324,0.908,8.203,2.379,12.433,3.108
		c3.198-2.931,7.99-3.104,12.433-4.662c4.096-1.438,8.421-3.654,12.433-4.662c2.481-3.72,5.993-7.004,7.771-9.325
		c1.463-3.635,4.579-4.797,6.216-6.216c3.843-3.331,2.116-10.887,4.663-15.541C280.5,142.941,277.106,138.567,268.34,139.562z"/>
	<linearGradient id="SVGID_8_" gradientUnits="userSpaceOnUse" x1="28" y1="122.0864" x2="709.1652" y2="122.0864">
		<stop  offset="0" style="stop-color:#009C97"/>
		<stop  offset="0.5" style="stop-color:#90FCFC"/>
		<stop  offset="1" style="stop-color:#009C97"/>
	</linearGradient>
	<path fill-rule="evenodd" clip-rule="evenodd" fill="url(#SVGID_8_)" d="M370.91,92.939c-0.51-1.191,0.699-3.589,0-4.662
		c-0.574-0.879-6.36-4.67-6.217-4.662c-3.449-0.182-2.085-4.445-6.216-3.108c-8.672-2.358-15.671-9.256-26.419-6.216
		c-0.436,0.123-2.524,2.72-3.108,3.108c-0.544,0.362-2.631,1.528-3.108,1.554c-1.772,0.093-0.719,1.067-1.554,1.554
		c-2.049,1.194-4.183,0.437-6.216,1.554c-1.313,0.722-1.493,4.108-4.662,3.108c-5.457,0.276-5.112-5.25-9.325-6.216
		c-0.273-2.428-3.776-1.256-6.216-1.554c-2.258-0.275-2.591-2.116-4.662,0c-3.949,5.876-0.393,15.29,1.554,20.203
		c3.263,24.53,1.366,45.14,4.663,68.38c8.606-1.871,9.029,4.439,15.541,4.662c0.797-1.935,1.997-2.996,3.108-4.662
		c3.638-5.456-0.749-10.563-1.554-13.987c-0.718-3.052,0.42-4.602-1.554-6.216c-0.383-0.314,0.147-2.585,0-3.108
		c-1.409-4.987,0.825-10.487-1.554-12.433c-0.328-0.269,0.067-2.635,0-3.108c-1.167-8.167,2.909-11.833,1.554-18.649
		c6.182-3.143,10.228-8.421,17.095-10.878c8.573,0.233,12.855,4.758,21.757,4.662c2.785,4.468,6.794,7.711,12.432,9.325
		c3.006-4.674,7.382-6.711,7.771-12.433C374.277,95.357,371.28,93.804,370.91,92.939z"/>
</g>
</svg>
