<?xml version="1.0" encoding="UTF-8" standalone="no"?>
<!-- Created with Inkscape (http://www.inkscape.org/) -->

<svg
   xmlns:dc="http://purl.org/dc/elements/1.1/"
   xmlns:cc="http://creativecommons.org/ns#"
   xmlns:rdf="http://www.w3.org/1999/02/22-rdf-syntax-ns#"
   xmlns:svg="http://www.w3.org/2000/svg"
   xmlns="http://www.w3.org/2000/svg"
   version="1.1"
   width="814.96063"
   height="141.73228"
   viewBox="0 0 814.96064 141.73228"
   id="Logo-SHERLOCK"
   xml:space="preserve"><metadata
   id="metadata23"><rdf:RDF><cc:Work
       rdf:about=""><dc:format>image/svg+xml</dc:format><dc:type
         rdf:resource="http://purl.org/dc/dcmitype/StillImage" /><dc:title></dc:title></cc:Work></rdf:RDF></metadata><defs
   id="defs21" />
<path
   d="m 22.961699,112.22925 c 9.301,9.122 23.522,15.462 39.706,15.202 20.21,-0.325 34.342,-15.015 34.342,-31.3 0,-36.308 -49.903,-28.52 -49.903,-50.259 0,-6.261 6.595,-11.625 15.383,-11.625 6.125,0 16.992,4.471 22,9.121 l 10.016,-16.276 c -12.897,-9.379999 -20.99,-11.446999 -34.163,-11.446999 -20.283,0 -34.699,14.957999 -34.699,32.015999 0,32.909 51.333,30.049 51.333,48.471 0.001,7.162 -6.989,11.312 -16.098,11.442 -8.352,0.12 -18.487,-3.139 -26.65,-10.548 l -11.267,15.203 z"
   id="path3" />
<polygon
   points="157.786,4.999 157.786,49.354 110.998,49.354 110.998,4.999 90.659,4.999 90.659,112.263 110.998,112.263 110.998,66.219 157.786,66.219 157.786,112.263 178.125,112.263 178.125,4.999 "
   transform="translate(22.961699,12.844251)"
   id="polygon5" />
<polygon
   points="221.77,66.219 257.505,66.219 257.505,49.354 221.77,49.354 221.77,22.646 266.607,22.646 266.607,4.999 201.433,4.999 201.433,112.264 268.883,112.264 268.883,94.618 221.77,94.618 "
   transform="translate(22.961699,12.844251)"
   id="polygon7" />
<path
   d="m 369.0447,125.10925 -21.035,-41.405 h -16.468 v 41.402 h -20.34 V 17.846251 c 0,0 38.761,0 38.951,0 22.375,0 35.521,14.019999 35.521,32.889999 0,12.651 -7.529,23.566 -17.733,29.099 l 25.961,45.274 h -24.857 z m -22.583,-57.674 c 10.514,0 17.855,-6.407 17.855,-16.699 0,-10.086 -6.704,-15.76 -17.68,-15.76 h -15.095 v 32.459 c 0,0 8.619,0 14.92,0 z"
   id="path9" />
<polygon
   points="383.588,112.263 383.588,112.263 448.925,112.263 448.925,94.618 407.756,94.618 403.929,94.618 403.929,4.999 383.588,4.999 "
   transform="translate(22.961699,12.844251)"
   id="polygon11" />
<path
   d="m 476.9137,70.40125 c 0.007,-31.792 25.764,-57.548999 57.556,-57.556999 l 0,0 c 31.79,0.008 57.547,25.764999 57.555,57.556999 l 0,0 c -0.008,31.789 -25.765,57.549 -57.555,57.555 l 0,0 c -31.792,-0.007 -57.551,-25.766 -57.556,-57.555 l 0,0 z m 20.631,0 c 0.04,20.388 16.536,36.885 36.925,36.923 l 0,0 c 20.385,-0.038 36.885,-16.535 36.922,-36.923 l 0,0 c -0.037,-20.388 -16.537,-36.888 -36.922,-36.923 l 0,0 c -20.388,0.035 -36.884,16.534 -36.925,36.923 l 0,0 0,0 z"
   id="path13" />
<path
   d="m 661.5597,107.32225 c -20.389,0 -36.887,-16.535 -36.925,-36.921 0.038,-20.388 16.536,-36.923 36.925,-36.923 15.104,0 27.642,8.322 34.311,18.975 v -28.261 c -9.579,-7.124999 -21.451,-11.344999 -34.311,-11.347999 -31.792,0.006 -57.548,25.763999 -57.558,57.555999 0.007,31.789 25.766,57.548 57.558,57.553 12.86,-0.002 24.731,-4.222 34.311,-11.346 v -27.951 c -6.868,10.967 -20.314,18.666 -34.311,18.666 z"
   id="path15" />
<polygon
   points="713.225,4.999 692.885,4.999 692.885,112.263 713.225,112.263 713.225,69.811 749.759,112.263 779.167,112.263 726.176,55.157 776.367,5.002 748.007,5.002 713.225,42.274 "
   transform="translate(22.961699,12.844251)"
   id="polygon17" />
</svg>