<svg xmlns="http://www.w3.org/2000/svg" viewBox="0 0 2490.34 668.47"><defs><style>.cls-1,.cls-2{fill:#fff;stroke:#5eb1cf;}.cls-2{stroke-width:0.03px;}</style></defs><title>suits</title><g id="Layer_2" data-name="Layer 2"><g id="Layer_1-2" data-name="Layer 1"><path class="cls-1" d="M2230,1.66c-37.61,2.66-69.36,11.2-101.37,26.94-24.28,12-31.22,17.07-52.29,37.88-19.74,19.74-26.41,28.55-35.22,47-17.87,36.28-22.67,60.29-21.07,105.11.8,28.81,2.67,42.15,7.2,56.29,14.94,47,39.48,75.76,83.5,97.37,33.88,16.54,44.82,19.47,120.32,30.68,67.23,10.14,81.37,14.67,91.5,30.14,11.47,17.61,10.67,47-2.13,64.83-6.94,9.87-29.35,20.54-50.69,24-53.62,9.07-137.66-9.07-170.2-36.55l-8.81-7.2L2039,529.87l-51.49,51.49,5.87,6.67c10.67,11.74,45.89,36.28,65.89,46.15,49.89,24.28,117.12,36.29,189.15,33.35,56.56-2.13,103.24-14.14,144.06-37.08,27.21-15.47,62.42-50.69,75.5-75.77,16.54-31.48,21.87-55.49,21.87-97.1-.53-66.43-14.67-107.25-49.62-140.33-35.21-33.34-71.49-46.68-164.87-59.76-75-10.4-92.3-18.67-98.7-46.15-5.87-26.14,13.87-55.75,42.95-64.29,16.27-5.07,63.76-5.6,90.43-1.33,20.55,3.2,45.89,14.4,59,25.87l9.34,8.27L2428.22,130c27.48-27.48,49.88-51,49.88-52,0-2.4-17.87-18.67-32.54-29.34-16.54-11.74-56-29.61-80.84-36C2327.11,2.72,2273.22-1.81,2230,1.66Z"/><path class="cls-2" d="M217.17,5.39c-27.48,4.27-41.08,8-63.76,17.6C109.93,41.41,71.78,76.09,53.1,114.51c-14.4,29.6-18.92,48.27-20.54,84.82C28,301.5,73.65,364.47,170.49,389.82c8,2.13,40.55,7.47,72,12,74.42,10.67,88,16.28,97.64,41.35,6.4,17.07,4,38.15-5.87,52.29-14.41,20.54-40.55,28.81-90.44,28.81-58.42,0-101.11-12.8-139.26-41.35-2.66-1.86-16,9.88-54.15,48L0,581.37,5.89,588c19.2,20.82,65.63,48.3,101.64,60,43.48,14.13,111,21.07,168.07,17.33,115.78-8,200.08-69.36,219.29-160.06,3.2-14.94,4-29.08,2.93-58.42-2.13-61.64-14.94-96-47.21-128-32.56-32.55-74.17-47.76-164.07-60-57.89-7.74-72.57-12-85.91-23.48-22.67-20-21.87-49.88,1.88-73.63,17.33-17.33,28.27-20.28,73.35-20,54.43.25,80.3,7.47,104.05,28.27l9.6,8.27,49.36-49.08c26.94-26.95,48.81-50.16,48.28-51.76-2.13-6.66-37.61-32-61.89-44-55-27.48-139.53-38.94-208.09-28ZM1471,7.53c-.8,1.87-1.06,33.88-.8,71.23l.81,68,80.82.8,80.57.54V663h162.73V148.12h160.07V4.06H1713.79c-192.61,0-242,.79-242.76,3.47ZM597.87,239.35c1.06,231.3,1.06,233.17,6.93,254,27.48,98.44,108.31,163,215,172.07q79.65,6.83,147-26.4c59.22-29.09,100.84-80,119.24-145.67,5.88-21.07,6.14-22.4,6.94-254l.81-232.63H936.4L935.59,230c-.8,211-1.33,224.37-5.86,236.9-14.68,38.69-42.16,57.37-84.57,57.37-27.21,0-46.16-6.94-62.43-22.95-14.67-14.14-22.14-30.41-25.34-55.76-1.34-10.13-2.67-113.11-2.67-228.89V6.72H597.06Zm618.38,95.51V663h160.07V6.72H1216.25Z"/></g></g></svg>