<?xml version="1.0" encoding="UTF-8" standalone="no"?>
<!DOCTYPE svg PUBLIC "-//W3C//DTD SVG 1.0//EN" "http://www.w3.org/TR/2001/REC-SVG-20010904/DTD/svg10.dtd">
<!-- Created with Inkscape (http://www.inkscape.org/) -->
<svg
   xmlns:svg="http://www.w3.org/2000/svg"
   xmlns="http://www.w3.org/2000/svg"
   version="1.0"
   width="800"
   height="550"
   id="svg2">
  <defs
     id="defs4" />
  <g
     id="layer1">
    <path
       d="M 604.94767,305.31554 L 574.01975,362.05549 C 602.17669,371.10019 625.61154,386.04752 646.33992,404.37791 L 692.383,342.28953 C 666.99984,325.49755 640.13708,310.4626 604.94767,305.31554 z"
       id="path6312"
       style="fill:#000000;fill-rule:evenodd;stroke:#000000;stroke-width:1.86032617px;stroke-linecap:butt;stroke-linejoin:miter;stroke-opacity:1" />
    <path
       d="M 610.5,394.75 A 9.625,5.25 0 1 1 591.25,394.75 A 9.625,5.25 0 1 1 610.5,394.75 z"
       transform="matrix(1.9493127,0,0,2.0677615,-644.32712,-441.73081)"
       id="path6310"
       style="opacity:1;fill:#000000;fill-opacity:1;fill-rule:nonzero;stroke:none;stroke-width:1;stroke-linecap:round;stroke-linejoin:miter;stroke-miterlimit:4;stroke-dasharray:none;stroke-dashoffset:0;stroke-opacity:1" />
    <path
       d="M 558.23145,275.91061 L 523.35034,350.78874 L 555.44096,350.32366 L 588.46176,294.97896 L 558.23145,275.91061 z"
       id="path6308"
       style="fill:#000000;fill-rule:evenodd;stroke:none;stroke-width:1px;stroke-linecap:butt;stroke-linejoin:miter;stroke-opacity:1" />
    <path
       d="M 444.72568,275.91628 L 436.3542,388.9311 C 508.72826,375.65928 565.45019,275.91628 469.37499,275.91628 L 444.72568,275.91628 z M 461.46861,327.07526 L 460.07336,363.35162 C 484.17332,353.59777 492.7718,326.06547 475.88614,326.61017 L 461.46861,327.07526 z"
       id="path6306"
       style="fill:#000000;fill-rule:evenodd;stroke:none;stroke-width:1px;stroke-linecap:butt;stroke-linejoin:miter;stroke-opacity:1" />
    <path
       d="M 348.79397,417.60978 L 343.67807,307.85054 C 342.26822,277.60277 429.9945,268.6289 427.39275,298.54891 L 419.02129,394.82078 C 418.39879,392.33076 395.1495,402.58175 395.76721,401.79701 C 397.78083,399.23887 393.90688,380.40326 393.90688,380.40326 L 372.51313,383.65883 L 370.6528,409.70339 C 362.46364,410.53312 355.82113,414.45608 348.79397,417.60978 z M 372.51313,361.8 L 396.23229,352.49837 L 395.30213,346.45231 C 393.89997,337.33825 374.58005,336.99707 373.44329,350.63804 L 372.51313,361.8 z"
       id="path6304"
       style="fill:#000000;fill-rule:evenodd;stroke:none;stroke-width:1px;stroke-linecap:butt;stroke-linejoin:miter;stroke-opacity:1" />
    <path
       d="M 191.10248,355.35384 L 213.13627,518.14068 C 377.73277,416.90685 343.07925,277.04267 273.40576,312.9443 L 191.10248,355.35384 z M 237.81985,408.15425 L 244.79608,456.05765 C 296.4471,414.16236 287.28185,373.68073 253.16755,397.45737 L 237.81985,408.15425 z"
       id="path6302"
       style="fill:#000000;fill-rule:evenodd;stroke:none;stroke-width:1px;stroke-linecap:butt;stroke-linejoin:miter;stroke-opacity:1" />
    <path
       d="M 702.17624,226.7431 L 667.29512,312.31811 L 684.50315,320.92212 L 696.59527,296.73787 L 701.24608,329.75866 L 717.05885,338.13013 L 754.963,265.11233 L 738.91768,250.46226 C 738.91768,250.46226 722.40729,284.64575 722.40729,283.7156 C 722.40729,282.78543 722.40729,239.30031 722.40729,239.30031 L 702.17624,226.7431 z"
       id="path6300"
       style="fill:#000000;fill-rule:evenodd;stroke:none;stroke-width:1px;stroke-linecap:butt;stroke-linejoin:miter;stroke-opacity:1" />
    <path
       d="M 609.08937,285.53694 L 636.52918,207.1707 C 643.57297,187.05414 704.14978,209.9267 688.15323,237.63355 L 657.22531,304.83783 L 640.48237,298.09414 L 651.17925,277.39802 L 637.69188,271.5845 L 626.29739,292.97825 L 609.08937,285.53694 z M 641.64508,255.30665 L 646.29589,245.77247 C 650.30743,237.54882 664.88237,248.38608 661.64359,254.14394 L 657.45785,261.58524 L 641.64508,255.30665 z"
       id="path6298"
       style="fill:#000000;fill-rule:evenodd;stroke:none;stroke-width:1px;stroke-linecap:butt;stroke-linejoin:miter;stroke-opacity:1" />
    <path
       d="M 634.70781,189.52184 C 597.88157,173.78132 561.21661,181.41063 551.69075,216.96166 C 543.02635,249.29758 559.36488,280.35815 603.08226,285.79373 L 610.52357,267.19046 C 578.25682,266.40459 569.68911,245.62133 574.47975,233.23951 C 581.57085,214.91195 613.21152,220.56329 620.75536,230.21648 C 621.32812,230.94939 634.94035,189.75439 634.70781,189.52184 z"
       id="path6296"
       style="fill:#000000;fill-rule:evenodd;stroke:none;stroke-width:1px;stroke-linecap:butt;stroke-linejoin:miter;stroke-opacity:1" />
    <path
       d="M 509.74445,264.30196 L 531.37074,158.72843 L 559.97325,164.54195 L 532.53345,268.0226 L 509.74445,264.30196 z"
       id="path6294"
       style="fill:#000000;fill-rule:evenodd;stroke:none;stroke-width:1px;stroke-linecap:butt;stroke-linejoin:miter;stroke-opacity:1" />
    <path
       d="M 461.68457,150.48019 L 442.61624,262.09977 L 462.61474,262.09977 L 464.00999,242.10127 L 474.9394,263.26248 L 497.26331,263.26248 L 483.54341,228.14882 C 575.98015,158.56744 473.68578,148.94027 461.68457,150.48019 z M 474.47432,196.98835 C 489.93134,196.03278 491.35784,211.5322 470.05604,210.47572 L 474.47432,196.98835 z"
       id="path6292"
       style="fill:#000000;fill-rule:evenodd;stroke:none;stroke-width:1px;stroke-linecap:butt;stroke-linejoin:miter;stroke-opacity:1" />
    <path
       d="M 377.94391,268.61311 L 385.07798,152.8032 C 407.9445,151.56225 430.81099,150.87603 453.67751,150.24525 L 441.58539,198.84628 C 431.12106,198.38635 420.65672,198.69446 410.19239,200.70661 L 410.19239,211.17094 L 428.5631,211.17094 L 422.74958,231.40199 L 407.63443,230.70437 L 407.4019,245.1219 L 434.37662,245.58698 L 432.05121,263.26008 C 414.01544,262.70217 395.97968,264.21327 377.94391,268.61311 z"
       id="path6290"
       style="fill:#000000;fill-rule:evenodd;stroke:none;stroke-width:1px;stroke-linecap:butt;stroke-linejoin:miter;stroke-opacity:1" />
    <path
       d="M 601.80836,299.50202 L 570.88045,356.24197 C 599.03739,365.28667 622.47224,380.23401 643.20062,398.5644 L 689.2437,336.47601 C 663.86054,319.68403 636.99778,304.64908 601.80836,299.50202 z"
       id="path6263"
       style="fill:#c04134;fill-opacity:1;fill-rule:evenodd;stroke:#000000;stroke-width:1.86032617px;stroke-linecap:butt;stroke-linejoin:miter;stroke-opacity:1" />
    <path
       d="M 270.2084,296.79724 L 270.2084,180.52685 L 305.32205,168.8998 L 322.76261,201.22298 L 333.69203,161.92358 L 374.61921,154.94736 L 362.99217,273.31062 L 332.99441,278.8916 L 332.99441,244.01048 L 320.20466,262.84628 L 307.18238,247.03351 L 307.18238,284.24004 L 270.2084,296.79724 z"
       id="path6288"
       style="fill:#000000;fill-rule:evenodd;stroke:none;stroke-width:1px;stroke-linecap:butt;stroke-linejoin:miter;stroke-opacity:1" />
    <path
       d="M 268.57743,291.13056 L 268.57743,174.86016 L 303.69108,163.23312 L 321.13164,195.55629 L 332.06106,156.2569 L 372.98824,149.28067 L 361.3612,267.64394 L 331.36344,273.22491 L 331.36344,238.3438 L 318.57369,257.1796 L 305.55142,241.36683 L 305.55142,278.57335 L 268.57743,291.13056 z"
       id="path6187"
       style="fill:#c34338;fill-opacity:1;fill-rule:evenodd;stroke:#000000;stroke-width:3.72065234;stroke-linecap:butt;stroke-linejoin:miter;stroke-miterlimit:4;stroke-dasharray:none;stroke-opacity:1" />
    <path
       d="M 375.62088,263.92788 L 382.75495,148.11797 C 405.62146,146.87702 428.48797,146.1908 451.35448,145.56002 L 439.26236,194.16104 C 428.79802,193.70112 418.33369,194.00922 407.86935,196.02138 L 407.86935,206.48571 L 426.24008,206.48571 L 420.42656,226.71676 L 405.31141,226.01914 L 405.07886,240.43666 L 432.0536,240.90175 L 429.72819,258.57485 C 411.69242,258.01694 393.65665,259.52804 375.62088,263.92788 z"
       id="path6209"
       style="fill:#c34338;fill-opacity:1;fill-rule:evenodd;stroke:#000000;stroke-width:3.72065234;stroke-linecap:butt;stroke-linejoin:miter;stroke-miterlimit:4;stroke-dasharray:none;stroke-opacity:1" />
    <path
       d="M 508.32698,258.80739 L 529.95326,153.23387 L 558.55578,159.04739 L 531.11597,262.52804 L 508.32698,258.80739 z"
       id="path6213"
       style="fill:#c34338;fill-opacity:1;fill-rule:evenodd;stroke:#000000;stroke-width:3.72065234;stroke-linecap:butt;stroke-linejoin:miter;stroke-miterlimit:4;stroke-dasharray:none;stroke-opacity:1" />
    <path
       d="M 635.0617,184.1618 C 598.23546,168.42127 561.57049,176.05059 552.04464,211.60161 C 543.38025,243.93754 559.71876,274.9981 603.43616,280.43368 L 610.87746,261.83042 C 578.61071,261.04454 570.04299,240.26129 574.83363,227.87946 C 581.92474,209.5519 613.5654,215.20324 621.10925,224.85643 C 621.682,225.58934 635.29424,184.39434 635.0617,184.1618 z"
       id="path6215"
       style="fill:#c34338;fill-opacity:1;fill-rule:evenodd;stroke:#000000;stroke-width:3.72065234;stroke-linecap:butt;stroke-linejoin:miter;stroke-miterlimit:4;stroke-dasharray:none;stroke-opacity:1" />
    <path
       d="M 703.89377,220.20562 L 669.01266,305.78062 L 686.22067,314.38463 L 698.31279,290.20039 L 702.9636,323.22118 L 718.77638,331.59265 L 756.68052,258.57485 L 740.63522,243.92478 C 740.63522,243.92478 724.12482,278.10827 724.12482,277.17811 C 724.12482,276.24795 724.12482,232.76282 724.12482,232.76282 L 703.89377,220.20562 z"
       id="path6219"
       style="fill:#c34338;fill-opacity:1;fill-rule:evenodd;stroke:#000000;stroke-width:3.72065234;stroke-linecap:butt;stroke-linejoin:miter;stroke-miterlimit:4;stroke-dasharray:none;stroke-opacity:1" />
    <path
       d="M 555.99784,271.36459 L 521.11671,346.24272 L 553.20735,345.77764 L 586.22814,290.43293 L 555.99784,271.36459 z"
       id="path6227"
       style="fill:#c34338;fill-opacity:1;fill-rule:evenodd;stroke:#000000;stroke-width:3.72065234;stroke-linecap:butt;stroke-linejoin:miter;stroke-miterlimit:4;stroke-dasharray:none;stroke-opacity:1" />
    <path
       d="M 610.5,394.75 A 9.625,5.25 0 1 1 591.25,394.75 A 9.625,5.25 0 1 1 610.5,394.75 z"
       transform="matrix(1.9493127,0,0,2.0677615,-644.36302,-446.9846)"
       id="path6229"
       style="opacity:1;fill:#c34338;fill-opacity:1;fill-rule:nonzero;stroke:#000000;stroke-width:1.85322487;stroke-linecap:round;stroke-linejoin:miter;stroke-miterlimit:4;stroke-dasharray:none;stroke-dashoffset:0;stroke-opacity:1" />
    <path
       d="M 460.19103,145.32748 L 441.12269,256.94706 L 461.12119,256.94706 L 462.51644,236.94855 L 473.44585,258.10976 L 495.76977,258.10976 L 482.04986,222.99611 C 574.48661,153.41473 472.19223,143.78755 460.19103,145.32748 z M 472.98077,191.83564 C 488.43779,190.88007 489.8643,206.37949 468.5625,205.32301 L 472.98077,191.83564 z"
       id="path6211"
       style="fill:#c34338;fill-opacity:1;fill-rule:evenodd;stroke:#000000;stroke-width:3.72065234;stroke-linecap:butt;stroke-linejoin:miter;stroke-miterlimit:4;stroke-dasharray:none;stroke-opacity:1" />
    <path
       d="M 611.34254,280.89876 L 638.78235,202.53252 C 645.82614,182.41595 706.40296,205.28851 690.40641,232.99536 L 659.47848,300.19965 L 642.73555,293.45596 L 653.43242,272.75983 L 639.94506,266.94631 L 628.55055,288.34007 L 611.34254,280.89876 z M 643.89825,250.66846 L 648.54907,241.13429 C 652.5606,232.91064 667.13555,243.7479 663.89675,249.50576 L 659.71102,256.94706 L 643.89825,250.66846 z"
       id="path6217"
       style="fill:#c34338;fill-opacity:1;fill-rule:evenodd;stroke:#000000;stroke-width:3.72065234;stroke-linecap:butt;stroke-linejoin:miter;stroke-miterlimit:4;stroke-dasharray:none;stroke-opacity:1" />
    <path
       d="M 187.90911,350.18226 L 209.94288,512.9691 C 374.5394,411.73528 339.88588,271.8711 270.21237,307.77271 L 187.90911,350.18226 z M 234.62647,402.98267 L 241.6027,450.88607 C 293.25373,408.99078 284.08848,368.50915 249.97416,392.28579 L 234.62647,402.98267 z"
       id="path6221"
       style="fill:#c34338;fill-opacity:1;fill-rule:evenodd;stroke:#000000;stroke-width:3.72065234;stroke-linecap:butt;stroke-linejoin:miter;stroke-miterlimit:4;stroke-dasharray:none;stroke-opacity:1" />
    <path
       d="M 348.57146,410.88906 L 343.45556,301.12981 C 342.04571,270.88204 429.77198,261.90818 427.17024,291.82818 L 418.79878,388.10006 C 418.17627,385.61003 394.92699,395.86103 395.54469,395.07628 C 397.55831,392.51815 393.68437,373.68253 393.68437,373.68253 L 372.29061,376.9381 L 370.43029,402.98267 C 362.24113,403.81239 355.59862,407.73535 348.57146,410.88906 z M 372.29061,355.07927 L 396.00977,345.77764 L 395.07962,339.73158 C 393.67745,330.61752 374.35753,330.27634 373.22078,343.91731 L 372.29061,355.07927 z"
       id="path6223"
       style="fill:#c34338;fill-opacity:1;fill-rule:evenodd;stroke:#000000;stroke-width:3.72065234;stroke-linecap:butt;stroke-linejoin:miter;stroke-miterlimit:4;stroke-dasharray:none;stroke-opacity:1" />
    <path
       d="M 441.12269,271.82967 L 432.75122,384.84449 C 505.12528,371.57267 561.8472,271.82967 465.77201,271.82967 L 441.12269,271.82967 z M 457.86563,322.98864 L 456.47038,359.265 C 480.57033,349.51115 489.16881,321.97885 472.28316,322.52356 L 457.86563,322.98864 z"
       id="path6225"
       style="fill:#c34338;fill-opacity:1;fill-rule:evenodd;stroke:#000000;stroke-width:3.72065234;stroke-linecap:butt;stroke-linejoin:miter;stroke-miterlimit:4;stroke-dasharray:none;stroke-opacity:1" />
    <path
       d="M 112.00746,380.34521 C 132.22422,366.02558 152.43648,351.68787 173.86331,342.20853 L 162.23627,286.86383 L 196.18723,267.79548 L 203.62853,325.93068 C 222.04602,315.79307 240.72076,306.81303 260.36848,302.21151 L 260.36848,87.343826 C 260.36848,4.222217 22.059554,77.459113 56.338744,192.88913 L 112.00746,380.34521 z M 159.37112,252.7318 L 191.27077,233.65778 L 187.65329,201.75814 C 185.37843,181.69789 144.31087,199.7196 151.14958,223.79192 L 159.37112,252.7318 z"
       id="path6286"
       style="fill:#000000;fill-rule:evenodd;stroke:none;stroke-width:1px;stroke-linecap:butt;stroke-linejoin:miter;stroke-opacity:1" />
    <path
       d="M 107.65921,373.21745 C 127.87596,358.89781 148.08823,344.56011 169.51505,335.08076 L 157.88802,279.73606 L 191.83897,260.66771 L 199.28027,318.80291 C 217.69777,308.6653 236.3725,299.68526 256.02022,295.08375 L 256.02022,80.21606 C 256.02022,-2.905549 17.711302,70.331346 51.990492,185.76136 L 107.65921,373.21745 z M 155.02287,245.60404 L 186.92252,226.53002 L 183.30504,194.63037 C 181.03017,174.57011 139.96262,192.59183 146.80133,216.66415 L 155.02287,245.60404 z"
       id="path6183"
       style="fill:#c34338;fill-opacity:1;fill-rule:evenodd;stroke:#000000;stroke-width:3.72065234;stroke-linecap:butt;stroke-linejoin:miter;stroke-miterlimit:4;stroke-dasharray:none;stroke-opacity:1" />
    <path
       d="M 625.00602,314.8614 C 646.06782,321.35507 665.3884,333.48067 683.66272,343.45223"
       id="path6251"
       style="fill:none;fill-rule:evenodd;stroke:#ffffff;stroke-width:5.58097887;stroke-linecap:butt;stroke-linejoin:miter;stroke-miterlimit:4;stroke-dasharray:none;stroke-opacity:1" />
    <path
       d="M 619.72569,323.49362 C 640.09362,331.63475 658.6088,341.29245 675.29126,352.5048"
       id="path6253"
       style="fill:none;fill-rule:evenodd;stroke:#ffffff;stroke-width:5.58097887;stroke-linecap:butt;stroke-linejoin:miter;stroke-miterlimit:4;stroke-dasharray:none;stroke-opacity:1" />
    <path
       d="M 614.28092,332.33017 C 634.37992,339.90353 652.59922,351.4942 668.41136,363.35441"
       id="path6255"
       style="fill:none;fill-rule:evenodd;stroke:#ffffff;stroke-width:5.58097887;stroke-linecap:butt;stroke-linejoin:miter;stroke-miterlimit:4;stroke-dasharray:none;stroke-opacity:1" />
    <path
       d="M 601.80836,299.50202 L 585.97135,328.55641 L 612.2727,339.03396 C 618.49741,327.95815 624.79627,316.93177 632.84369,307.07111 C 623.18407,303.73406 612.91064,301.12592 601.80836,299.50202 z"
       id="path6249"
       style="fill:#2e4598;fill-opacity:1;fill-rule:evenodd;stroke:none;stroke-width:1px;stroke-linecap:butt;stroke-linejoin:miter;stroke-opacity:1" />
    <path
       d="M 584.86111,331.16748 C 616.50336,341.6053 641.57618,355.69281 662.06465,372.32719"
       id="path6257"
       style="fill:none;fill-rule:evenodd;stroke:#ffffff;stroke-width:5.58097887;stroke-linecap:butt;stroke-linejoin:miter;stroke-miterlimit:4;stroke-dasharray:none;stroke-opacity:1" />
    <path
       d="M 580.18208,339.96412 C 610.21093,350.45104 634.23255,364.28085 654.59513,381.58892"
       id="path6259"
       style="fill:none;fill-rule:evenodd;stroke:#ffffff;stroke-width:5.58097887;stroke-linecap:butt;stroke-linejoin:miter;stroke-miterlimit:4;stroke-dasharray:none;stroke-opacity:1" />
    <path
       d="M 576.22888,347.87051 C 604.53276,357.78081 627.41605,373.11173 648.31653,390.42547"
       id="path6261"
       style="fill:none;fill-rule:evenodd;stroke:#ffffff;stroke-width:5.58097887;stroke-linecap:butt;stroke-linejoin:miter;stroke-miterlimit:4;stroke-dasharray:none;stroke-opacity:1" />
    <path
       d="M 604.25004,306.82706 L 603.14548,308.2223 L 601.51769,307.58281 L 602.50599,309.0362 L 601.40142,310.43143 L 603.08734,309.96636 L 604.13378,311.41974 L 604.13378,309.61755 L 605.8197,309.15247 L 604.19191,308.57111 L 604.25004,306.82706 z M 611.74949,308.45484 L 610.70305,309.90823 L 609.01713,309.26874 L 610.06357,310.72211 L 608.959,312.11736 L 610.64491,311.59414 L 611.63322,313.10566 L 611.69135,311.30347 L 613.37727,310.83838 L 611.69135,310.25704 L 611.74949,308.45484 z M 621.05112,311.88482 L 620.00468,313.33819 L 618.31876,312.69871 L 619.36519,314.15209 L 618.26063,315.54734 L 619.94655,315.02412 L 620.93485,316.53563 L 620.99298,314.73344 L 622.6789,314.26836 L 620.99298,313.68701 L 621.05112,311.88482 z M 606.05224,313.62887 L 605.0058,315.08226 L 603.31988,314.44277 L 604.36631,315.89615 L 603.26175,317.29139 L 604.94767,316.76817 L 605.93597,318.27969 L 605.9941,316.4775 L 607.68002,316.01242 L 605.9941,315.43107 L 606.05224,313.62887 z M 613.55167,315.60547 L 612.50525,317.05885 L 610.81932,316.41936 L 611.86576,317.87274 L 610.76118,319.26799 L 612.44711,318.74478 L 613.4354,320.25629 L 613.49354,318.4541 L 615.17946,317.98902 L 613.49354,317.40766 L 613.55167,315.60547 z M 598.66906,317.4658 L 597.62264,318.91918 L 595.93671,318.27969 L 596.98315,319.73307 L 595.87857,321.12832 L 597.5645,320.6051 L 598.55279,322.11662 L 598.61093,320.31442 L 600.29685,319.84934 L 598.61093,319.26799 L 598.66906,317.4658 z M 606.808,320.25629 L 605.76156,321.70967 L 604.07564,321.07018 L 605.12207,322.52356 L 604.01751,323.91881 L 605.70343,323.39559 L 606.69173,324.90711 L 606.74986,323.10491 L 608.43578,322.63983 L 606.74986,322.05848 L 606.808,320.25629 z M 615.58641,323.33745 L 614.53997,324.79084 L 612.85406,324.15135 L 613.90049,325.60472 L 612.79592,326.99997 L 614.48184,326.47675 L 615.47014,327.98827 L 615.52828,326.18608 L 617.21419,325.72099 L 615.52828,325.13965 L 615.58641,323.33745 z M 600.5294,324.96524 L 599.48296,326.41862 L 597.79704,325.77913 L 598.84347,327.23251 L 597.73891,328.62775 L 599.42482,328.10454 L 600.41312,329.61605 L 600.47126,327.81387 L 602.15718,327.34878 L 600.47126,326.76743 L 600.5294,324.96524 z M 608.55205,327.81387 L 607.50561,329.26724 L 605.8197,328.62775 L 606.86613,330.08114 L 605.76156,331.47638 L 607.44748,330.95317 L 608.43578,332.46468 L 608.49391,330.66249 L 610.17983,330.19741 L 608.49391,329.61605 L 608.55205,327.81387 z"
       id="path6265"
       style="opacity:1;fill:#ffffff;fill-opacity:1;fill-rule:nonzero;stroke:none;stroke-width:3;stroke-linecap:round;stroke-linejoin:miter;stroke-miterlimit:4;stroke-dasharray:none;stroke-dashoffset:0;stroke-opacity:1" />
    <path
       d="M 601.80836,299.50202 L 570.88045,356.24197 C 599.03739,365.28667 622.47224,380.23401 643.20062,398.5644 L 689.2437,336.47601 C 663.86054,319.68403 636.99778,304.64908 601.80836,299.50202 z"
       id="path6247"
       style="fill:none;fill-rule:evenodd;stroke:#000000;stroke-width:1.86032617px;stroke-linecap:butt;stroke-linejoin:miter;stroke-opacity:1" />
    <path
       d="M 662.38206,407.05253 L 662.38206,398.96751 L 659.36191,398.96751 L 659.36191,397.88577 L 666.62779,397.88577 L 666.62779,398.96751 L 663.59514,398.96751 L 663.59514,407.05253 L 662.38206,407.05253 z M 667.84087,407.05253 L 667.84087,397.88577 L 669.66671,397.88577 L 671.83648,404.37628 C 672.03655,404.98073 672.18246,405.43304 672.27418,405.73316 C 672.37839,405.39968 672.54097,404.90988 672.7619,404.26373 L 674.95667,397.88577 L 676.58868,397.88577 L 676.58868,407.05253 L 675.41939,407.05253 L 675.41939,399.38021 L 672.75565,407.05253 L 671.66138,407.05253 L 669.01016,399.24891 L 669.01016,407.05253 L 667.84087,407.05253 z"
       id="text6314"
       style="font-size:6.88372278px;font-style:normal;font-variant:normal;font-weight:normal;font-stretch:normal;text-align:start;line-height:100%;writing-mode:lr-tb;text-anchor:start;fill:#000000;fill-opacity:1;stroke:none;stroke-width:1px;stroke-linecap:butt;stroke-linejoin:miter;stroke-opacity:1;font-family:Arial;-inkscape-font-specification:Arial" />
  </g>
</svg>
