<?xml version="1.0" encoding="utf-8"?>
<!-- Generator: Adobe Illustrator 23.0.1, SVG Export Plug-In . SVG Version: 6.00 Build 0)  -->
<svg version="1.1" id="Layer_1" xmlns="http://www.w3.org/2000/svg" xmlns:xlink="http://www.w3.org/1999/xlink" x="0px" y="0px"
	 viewBox="0 0 368.6 219.6" style="enable-background:new 0 0 368.6 219.6;" xml:space="preserve">
<style type="text/css">
	.st0{fill:#FFFFFF;}
</style>
<title>Breaking Bad logo</title>
<g>
	<path class="st0" d="M43.6,58.6H28.9v17.7h14.8c6.9,0,11.1-2.1,11.1-8.4C54.7,61,50.5,58.6,43.6,58.6z"/>
	<path class="st0" d="M0.8,0.8v109.1h109.1V0.8H0.8z M87.2,17.7h-0.9v-1.9h0h0.9c0.9,0,1.6-0.4,1.6-1.4c0-1-0.6-1.7-1.6-1.7
		c-1.3,0-1.7,1.1-1.8,2.1L83,14.3c0.4-2.4,1.9-3.7,4.4-3.7c2,0,3.9,1.1,3.9,3.3c0,1.4-0.7,2.3-2,2.6v0c1.6,0.4,2.3,1.5,2.4,3.1
		c0,2.6-2.1,3.8-4.5,3.8c-2.4,0-4.3-1.1-4.3-4.3h2.3c0,1.3,0.7,2.2,2,2.2c1.2,0,1.9-0.8,1.9-1.9C89,18.2,88.1,17.7,87.2,17.7z
		 M43.2,86.3H17.4V25.7H46c10,0,18,5,18,15.1c0,6.6-3.7,11-10.3,12.3v0.2c8.3,0.9,13,7.8,13,15C66.7,83.3,55.8,86.3,43.2,86.3z
		 M97.7,52.8c-7.1,0-13.5,3.3-13.5,12.7v20.9H73.8V43.2h10.4v6h0.2c2.5-4.9,7.2-7,13.3-7V52.8z M97.1,23.5c-2.3,0-4.2-1.1-4.3-3.6
		l2.6-0.2c0,1,0.7,1.9,1.8,1.9c1.5,0,2-1.3,2-2.6c0-1.6-0.8-2.3-2.1-2.3c-0.9,0-1.4,0.4-1.8,1.2l-2.1-0.2l0.9-6.8h6.9l-0.2,2.2H96
		l-0.4,2.6c0.6-0.6,1.4-0.9,2.2-0.9c2.6,0,3.9,2,3.9,4.2C101.8,21.9,99.8,23.5,97.1,23.5z"/>
	<path class="st0" d="M52,42.3c0-4.6-3-7.6-9.6-7.6H28.9V50h13.5C47.4,50,52,48.1,52,42.3z"/>
</g>
<path class="st0" d="M128.9,64c-2.9,0-3.3,0.1-3.3,2.4c0,6.8,5.5,13,13.1,13c3.1,0,6-0.9,8.7-2.9c1.9-1.3,3.2-2.9,4.9-2.9
	c1.3,0,2.2,0.9,2.2,2.1c0,1.3-1.3,3.4-3.9,5.5c-4.6,3.8-8.9,5.7-14.7,5.7c-12.2,0-21.3-9.4-21.3-21.6c0-13.4,9.2-22.9,22.3-22.9
	c11,0,17.9,6.7,17.9,17.4c0,3.9-1,4.3-4.8,4.3h-20.5C129.2,64,129,64,128.9,64z M142.5,59.1c2,0,2.7-0.3,2.7-1.6
	c0-5.3-3.9-9.7-9.7-9.7c-5.6,0-9.4,4.5-9.4,9.7c0,1.3,0.6,1.6,2.6,1.6H142.5z"/>
<path class="st0" d="M196.5,79c2.5,0.8,4,0.8,4,2.5c0,2.5-4.1,5.4-9.6,5.4c-3.2,0-5.4-4.5-6.2-4.5c-1.3,0-5,4.5-12.5,4.5
	c-8.3,0-13.9-5.3-13.9-13.1c0-9,6.7-14.5,18.8-14.5c2.2,0,4.9,0.3,8,0.8v-4.5c0-5-2.3-7.8-6.3-7.8c-2.9,0-5.2,1.3-7.4,3.8
	c-1.8,2-2.9,4.4-6.4,4.4c-2.3,0-3.7-1.6-3.7-4c0-4.9,6.5-9.5,17.7-9.5c6.5,0,11,1.8,13.4,4.9c2.2,2.8,2.4,7,2.4,13V74
	C194.8,76.9,195.3,78.7,196.5,79z M178.9,64.8c-6.2,0-9.7,2.9-9.7,7.7c0,4.5,3.1,7.5,8.2,7.5c5.8,0,7.7-2.4,7.7-8.2v-6.3
	C182.8,65,180.7,64.8,178.9,64.8z"/>
<path class="st0" d="M217.6,57c0,1.8,0.1,2.6,0.8,2.6c0.4,0,2.2-1.1,4.9-3.5c3.4-3.2,5.4-5.1,5.4-6.1c0-1.1-3.2-1-3.2-3.4
	c0-2.9,3.4-3.4,10.6-3.4c5.2,0,7.8,1,7.8,3.2c0,3.3-4,2.3-7.6,4.4c-1.7,1-3.5,2.9-5.9,5.3c-1.2,1.2-1.9,1.9-1.9,2.4
	c0,0.8,1.5,2.8,4.2,6.3c6,7.7,10,12.2,12,13.7c2.9,2,6.6,1.3,6.6,4.2c0,2.5-2.7,3.4-8.6,3.4c-2.4,0-4-0.3-4.5-0.4
	c-2.4-0.8-4.3-3.9-7.7-8.2c-7.4-9.4-11.3-14.4-12.1-14.4c-0.8,0-0.8,0.7-0.8,2.3c0,0.5,0,1.1,0,1.8c0,7.1,0.2,11.1,1.2,12.3
	c1.2,1.3,4.4,0.9,4.4,3.6c0,2.4-3.1,3-9.8,3c-7.5,0-10.7-0.4-10.7-3.3c0-1.9,1.8-1.9,3.2-2.7c1.8-1,2.1-4,2.1-9.7
	c0-3.2-0.1-7.1-0.1-11.9c0-1.8,0-3.6,0-5.3c0-12.5-0.1-17.3-1.2-18.6c-0.7-0.8-2.1-0.9-3.9-1.5c-1.3-0.4-1.9-0.8-1.9-2
	c0-1.8,1.6-2.4,4.7-3.5c4.9-1.7,8.6-2.2,10.2-2.2c1.9,0,2.4,1.1,2.4,3.6c0,4.5-0.5,8.9-0.5,17.3L217.6,57L217.6,57z"/>
<path class="st0" d="M268.4,72.1c0,4.5,0.3,7.1,1.7,7.9c1.9,1.1,3.8,0.8,3.8,3.1c0,2.4-3,3-9.7,3c-7.5,0-10.8-0.4-10.8-3.3
	c0-1.9,1.8-1.9,3.2-2.7c1.7-0.9,2-3,2-6.7c0-1.8-0.1-3.8-0.1-6.3c0-1.6,0-3.1,0-4.5c0-6.9-0.1-10.5-1.5-11.3c-2.1-1.1-4.6-0.9-4.6-3
	c0-1.3,1.2-2.3,3.4-3.2c5.8-2.3,10.2-2.9,11-2.9c1.7,0,2.2,1.2,2.2,3.6c0,1.1,0,2.6-0.1,4.5l-0.3,10.9
	C268.5,65,268.4,68.6,268.4,72.1z M262.9,26.7c3.9,0,6.5,2.4,6.5,5.5c0,3-2.9,5.6-7,5.6c-3.8,0-6.4-2.3-6.4-5.2
	C256,29.4,258.9,26.7,262.9,26.7z"/>
<path class="st0" d="M305.2,42.3c4.4,0,8.3,2.1,10.8,5c3.4,4,3.6,9,3.6,15.7c0,3.2,0,5.1,0,5.8c0,2-0.1,3.7-0.1,5.2
	c0,3.4,0.3,5.2,1.9,6.1c1.4,0.8,3.2,0.8,3.2,2.7c0,2.9-3.2,3.2-10.5,3.2c-6.9,0-10.1-0.4-10.1-2.9c0-2.3,1.8-2,3.8-3.1
	c1.5-0.8,1.8-3.7,1.8-8.9c0-13.5-0.2-20.5-8-20.5c-3,0-6.1,1.9-7.6,5c-1.6,3.2-1.7,8.8-1.7,17c0,4.2,0.1,6.6,1.6,7.4
	c1.9,1.1,3.8,0.8,3.8,3.1c0,2.4-3,3-9.7,3c-7.5,0-10.8-0.4-10.8-3.3c0-1.9,1.8-1.9,3.2-2.7c1.7-0.9,2-3,2-6.7c0-1.8-0.1-3.8-0.1-6.3
	c0-1.6,0-3.1,0-4.5c0-6.9-0.1-10.5-1.5-11.3c-2.1-1.1-4.6-0.9-4.6-3c0-1.3,1.2-2.3,3.4-3.2c5.5-2.1,9.5-2.7,10.6-2.7
	c1.6,0,2.3,0.8,2.3,2.7v2.4c0,0.3,0,0.4,0,0.5c0,0.3,0,0.5,0.3,0.5c0.2,0,0.3-0.1,0.4-0.2l1-0.9C296.8,45.2,299.1,42.3,305.2,42.3z"
	/>
<path class="st0" d="M327.9,58.5c0-9.2,7.7-16.2,18.6-16.2c2.9,0,6.6,0.7,11.1,1.7c2.3,0,4.7-1.2,8-3.4c1.2,0.8,1.9,1.8,1.9,2.8
	c0,2.4-1.8,4.7-5.2,6.5c1.2,2.3,1.8,4.5,1.8,7c0,9.2-7.4,16-18.8,16c-3.1,0-6-0.4-8.6-1.3c-1.2,1.3-1.8,2.4-1.8,3.4
	c0,2.8,2.8,3.9,8.3,3.9c4.3,0,8.7-0.9,13.2-0.9c8,0,12.3,3.4,12.3,9.3c0,8.7-9.4,15.9-23.7,15.9c-11.6,0-19-5.5-19-11.3
	c0-3.1,2-5.2,6.1-7.6c-3.4-1.2-5.2-3.4-5.2-6.3c0-2.9,2.1-5.7,6.2-8.2C329.6,66.6,327.9,62.9,327.9,58.5z M335.1,90.8
	c0,3.8,4.1,6.6,11.3,6.6c8.1,0,13.3-3.6,13.3-7.6c0-2.7-1.9-4.3-5.6-4.3c-2.6,0-6.5,0.8-11.4,0.8c-1.7,0-3.4-0.1-5.4-0.3
	C335.8,87.4,335.1,89,335.1,90.8z M345.7,67.2c4.8,0,8.4-3.9,8.4-9.7c0-6-3.5-9.8-8.3-9.8c-4.4,0-7.9,3.9-7.9,9.7
	C337.9,63.4,341.2,67.2,345.7,67.2z"/>
<path class="st0" d="M255.6,190.8c0-0.8-0.2-1.1-0.3-1.1c-0.3,0-1.3,0.9-3.2,2.4c-3.3,2.4-6.5,3.7-10.1,3.7
	c-10.4,0-18.1-8.1-18.1-20.8c0-13.9,8.6-23.5,20.7-23.5c5.9,0,9.5,2.5,10.2,2.5c0.5,0,0.6-0.8,0.6-2.1v-3c0-3.9-0.5-5.1-2.7-5.9
	c-2-0.7-3.8-0.7-3.8-2.6c0-1.8,1.8-2.7,5.3-3.9c3.7-1.3,6.6-1.8,8.7-1.8c1.9,0,2.7,1,2.7,3.5c0,1.4-0.5,8.9-0.5,26.6
	c0,14.4,0.1,21.7,1.3,22.5c1.8,1.3,5.2,0.5,5.2,3c0,2-2.3,2.7-6.6,4.1c-2.9,1-6,1.3-7.1,1.3c-1.6,0-2.3-0.8-2.3-2.8V190.8z
	 M255.2,166.6c0-2.4,0-3.9-0.8-5c-1.8-2.4-5.4-4.3-9.1-4.3c-6.1,0-10.4,5.3-10.4,14.5c0,10,4.9,16.2,11,16.2c6,0,9.3-3.3,9.3-9.7
	V166.6z"/>
<g>
	<path class="st0" d="M152.6,151.3c0-4.6-3-7.6-9.6-7.6h-13.5v15.3H143C148,159.1,152.6,157.1,152.6,151.3z"/>
	<path class="st0" d="M144.1,167.6h-14.7v17.7h14.8c6.9,0,11.1-2.1,11.1-8.4C155.3,170,151,167.6,144.1,167.6z"/>
	<path class="st0" d="M206.2,129.8c1.2,0,1.8-0.8,1.8-2s-0.6-2-1.8-2c-1.2,0-1.8,0.8-1.8,2S205,129.8,206.2,129.8z"/>
	<path class="st0" d="M195.1,175.3l-5.7,1.2c-3.9,0.8-7.2,1.9-7.2,6c0,3.2,3,5.4,6.7,5.4c4.9,0,11.1-2.4,11.1-7.9v-6.1h0
		C198.6,174.5,196.9,175,195.1,175.3z"/>
	<path class="st0" d="M109.8,109.8v109.1h109.1V109.8H109.8z M206.4,119c2.1,0,3.5,1.1,3.8,3.2l-2.4,0.3c-0.1-0.9-0.6-1.4-1.5-1.4
		c-1.8,0-2.2,2.3-2.2,3.8h0c0.3-0.5,1-1.1,2.4-1.1c2.3,0,3.7,1.7,3.7,4.1c0,2.3-1.7,4.1-4.1,4.1c-3.6,0-4.4-3.2-4.4-6.1
		C201.7,121.8,203.3,119,206.4,119z M195.7,125c-0.9,0-1.4,0.4-1.8,1.2l-2.1-0.2l0.9-6.8h6.9l-0.2,2.2h-4.8l-0.4,2.6
		c0.6-0.6,1.4-0.9,2.2-0.9c2.6,0,3.9,2,3.9,4.2c0,2.8-2,4.5-4.6,4.5c-2.3,0-4.2-1.2-4.3-3.6l2.6-0.2c0,1,0.7,1.9,1.8,1.9
		c1.5,0,2-1.3,2-2.6C197.8,125.7,197,125,195.7,125z M143.8,195.3H118v-60.6h0h28.5c10,0,18,5,18,15.1c0,6.6-3.7,11-10.3,12.3v0.2
		c8.3,0.8,13,7.7,13,15C167.2,192.4,156.4,195.3,143.8,195.3z M201,195.3c-0.7-1-1-2.8-1-3.9c-4,3.2-8.7,4.9-14.1,4.9
		c-8.2,0-14.6-5.2-14.6-13.5c0-8.4,6.7-12.2,13.1-13.5l4.3-0.8c3.7-0.8,8.6-1.6,11.2-2.6v-1.3c0-4.3-3.7-5.4-8.2-5.4
		c-6,0-8,1.8-8,6.5l-10.4-0.4c0-10.1,8.9-14,18.4-14c9.3,0,18.6,1.9,18.6,14.1v22.7h0c0,4.4,1,6.3,1.6,7.2H201z"/>
</g>
</svg>
