<?xml version="1.0" encoding="utf-8"?>
<!-- Generator: Adobe Illustrator 23.0.1, SVG Export Plug-In . SVG Version: 6.00 Build 0)  -->
<svg version="1.1"
	 id="svg2" xmlns:cc="http://creativecommons.org/ns#" xmlns:dc="http://purl.org/dc/elements/1.1/" xmlns:rdf="http://www.w3.org/1999/02/22-rdf-syntax-ns#" xmlns:svg="http://www.w3.org/2000/svg"
	 xmlns="http://www.w3.org/2000/svg" xmlns:xlink="http://www.w3.org/1999/xlink" x="0px" y="0px" viewBox="0 0 335.2 200.2"
	 style="enable-background:new 0 0 335.2 200.2;" xml:space="preserve">
<style type="text/css">
	.st0{fill:#FFFFFF;}
</style>
<path id="path10" class="st0" d="M61.9,17c4.8-0.6,9.7-1.4,14.6-1.2c0.2,2.4,0.5,4.8,0.7,7.1c0.9,6.5,1.8,13.1,2.2,19.6
	c0.1,1.4,0.1,2.7,0.3,4.1c-4.5,0.8-9.1,1.1-13.7,1.8c-4.2,0.7-8.4,1.7-12.6,2.8c-1.5,0.5-3,0.8-4.4,1.5c-0.2,0.1-0.5,0.3-0.6,0.5
	c-0.4,1.3-0.3,2.7-0.3,4.1c-0.1,2.3-0.1,4.7,0,7c0,0.5,0.2,1.1,0.7,1.2c1.1,0.1,2.1-0.2,3.1-0.5c2.2-0.7,4.5-1.1,6.7-1.6
	c2.3-0.6,4.6-1.4,7-1.9c0.5,1.6,1,3.3,1.6,4.8c1.1,2.9,1.9,5.8,2.6,8.8c0.6,2.1,1.2,4.1,1.8,6.2c-5.8,2-11.7,3.5-17.3,5.8
	c-0.9,0.4-1.9,0.7-2.8,1.1c-0.9,0.4-1.1,1.4-1.1,2.3c-0.1,8.5,1.3,16.9,2.3,25.2c-3.9,0.6-7.6,1.8-11.5,2.1
	c-2.9,0.3-5.8,0.6-8.8,0.7c-3.8,0-7.6,0.4-11.4,0c-1.8-6.1-3.1-12.3-4.4-18.5c-0.5-1.9-0.7-3.9-1.2-5.8c-1.2-4.2-1.4-8.6-2.1-12.8
	c-0.2-2.4-0.6-4.7-0.9-7.1c-0.4-4.5-0.9-9-1.2-13.5c-0.4-6.3-0.7-12.6-0.3-18.8c0-3.4,0.1-6.7,0.4-10.1c0.1-1.3,1.5-1.8,2.5-2.3
	c9.9-5,20.6-8.1,31.5-9.9C50.8,18.6,56.3,17.7,61.9,17L61.9,17z"/>
<path id="path12" class="st0" d="M202.2,22.8c1.3-1.5,3.5-1.5,5.3-1.2c1,0.1,1.7,0.8,2.4,1.4C207.4,22.9,204.8,22.9,202.2,22.8z"/>
<g>
	<path class="st0" d="M268.9,90.7c-0.2-3.8-0.1-7.7-0.1-11.5c0.1-0.7-0.7-0.7-1.2-0.7c-3.4,0.1-6.9,0.1-10.3,0.4
		c-1.9,0.2-3.7,0.4-5.6,0.4c-1.4-11.6-1.9-23.2-2.4-34.9c-0.2-2.2,0-4.4-0.4-6.6c0-0.5-0.7-0.6-1.1-0.7c-5.4-0.4-10.8,0.7-16.1,1.5
		c-3.4,0.6-6.7,1.6-10,2.4c-1.1,0.3-2.2,0.5-3.1,1.2c-0.2,0.7-0.1,1.4,0,2.2c-0.9,0.3-1.9,0.4-2.8,0.8c-0.5,0.2-0.6,0.8-0.9,1.3
		c-5.4-0.4-10.9-0.6-16.3,0.2c-2.1,0.3-4.3,0.7-6.4,1c-0.6-2.5-1.1-4.9-1.5-7.4c0.6,0.9,1.1,1.8,2,2.4c2.2,1.5,5,2,7.6,2.3
		c2.3,0.4,4.7,0.3,7.1,0.3c2.2,0,4.4-0.1,6.4-1.1c0.9-0.5,1.4-1.5,1.9-2.3c1.5-0.8,2.6-2.2,3-3.9c0.5-2.6,0.5-5.3,0.3-7.9
		c-0.2-1.9-0.6-3.9-2.1-5.2c-1.6-1.1-3.6-1.4-5.5-1.7c-0.5-0.6-1.1-1.2-1.7-1.8c0.2-0.4,0.4-0.8,0.6-1.3c2.5-4.6,4.4-9.5,7-14.1
		c0.3-0.5,0.9-0.9,1.3-1.4c0.3-0.7-0.3-1.1-0.8-1.4h-0.6c-0.9,0.6-0.8,1.8-1.3,2.6c-2.4,5-4.7,10.1-7.4,15c-1.7-0.4-3.5-0.4-5.2,0.1
		c-2.2-5-5-9.6-6.9-14.7c-0.2-0.5,0.2-1.3-0.4-1.5c-0.7-0.2-1.5,0.2-1.9,0.8c0,0.9,0.9,1.4,1.2,2.2c2.2,4.7,4.4,9.4,6.9,13.9
		c-0.6,0.6-1.1,1.2-1.6,1.8c-1.8-0.1-3.6,0.4-5.3,1c-1.1,0.4-2.3,0.8-3.2,1.5c-0.9,0.6-1.2,1.8-1.5,2.8c-0.8,2.5-1,5.2-0.8,7.8
		c-4.1-0.4-8.1-1.2-12.2-1.2c-2.6,0-5.2-0.3-7.8-0.1c-1.4,0.1-2.9,0.1-4.3,0.1c-0.3,0.7-0.5,1.5-1.1,2.1c-1.3,0.1-2.6-0.1-3.9,0.2
		c-1.3,3.4-2.1,7.1-3.5,10.5c-2-2.9-4-5.8-5.9-8.8c-0.6-0.9-1.1-1.9-1.8-2.8c-0.2-0.3-0.6-0.5-1-0.5c-4.1-0.3-8.2-0.2-12.3,0.3
		c-3.1,0.5-6.3,0.8-9.3,1.8c-1.2,0.3-1.1,1.7-1.4,2.6c-1.2,0.4-2.5,0.8-3.8,1.1c-0.5-1.1-0.9-2.2-1.7-3.1c-0.3-0.4-0.9-0.5-1.4-0.6
		c-3.5-0.5-7-1.1-10.6-1.3c-1.8-0.1-3.5-0.3-5.3-0.4c-3.1-0.3-6.2,0-9.3,0.1c-1.8,0.2-3.6,0.1-5.3,0.6c-0.9,0.7-0.9,1.9-1.3,2.9
		c-0.9,0.4-2.2-0.1-2.8,0.8c-0.8,2.2-1.2,4.7-2.1,6.9c-0.4-7.5-1.2-15.1-2.2-22.5c-0.3-2.7-0.6-5.4-0.8-8.1
		c-0.1-0.8-0.2-1.6-0.5-2.4c-4.2-0.5-8.5,0.3-12.7,0.6c-7.4,0.8-14.8,2.1-22.2,3.5c-3.3,0.6-6.5,1.4-9.7,2.2
		c-2.6,0.7-5.1,1.6-7.7,2.4c-3.9,1.2-7.6,2.8-11.3,4.3c-1.5,0.6-3,1.3-4.1,2.4c-0.8,0.8-0.7,2-0.9,3c-1,0.5-2.3,0.4-3.2,1.2
		c-0.5,0.9-0.6,2-0.7,3C5.2,38.9,5.1,41,5.1,43v2.4C5.2,51.2,5.4,57,5.7,62.8c0.1,4,0.5,7.9,0.8,11.8c0.3,4.4,1,8.7,1.7,13
		c0.9,5.7,1.9,11.4,3,17.1c1.1,5.8,2.8,11.5,4.1,17.2c0.2,0.6,0.4,1.1,0.7,1.7c1.3,0.2,2.6,0.2,3.9,0.2c3-0.3,6,0.2,9,0
		c3.6-0.1,7.2-0.6,10.8-0.8c3.8-0.2,7.6-1.1,11.3-2.1c-0.1-1-0.3-1.9-0.4-2.9c1.5-0.3,2.9-0.7,4.4-1.1c-0.4-3-0.6-6-1.1-8.9
		c-0.5-3.2-0.8-6.4-1.1-9.6c-0.1-1.7-0.4-3.4-0.2-5.1c0.1-0.1,0.1-0.2,0.2-0.3c1.6-1.2,3.5-1.6,5.3-2.4c4.6-1.9,9.4-3,14.1-4.6
		c-0.2-0.9-0.6-1.8-1-2.7c0.8-0.3,1.6-0.6,2.4-1c-0.2-2.3-1.1-4.4-1.6-6.6c-1-3.9-2-7.8-3.4-11.5c-0.6-1.6-1-3.3-1.7-4.9
		c-1.5-0.1-2.9,0.4-4.3,0.8c-4.1,1.2-8.3,2.2-12.5,3.4c-0.2-1.8-0.3-3.7,0.1-5.5c2.3-0.9,4.7-1.5,7-2.2c4.6-1.3,9.3-2,14-2.7
		c2-0.3,3.9-0.4,5.9-0.8c-0.2-1-0.4-2.1-0.6-3.1c1.4-0.4,3-0.6,4.5-0.8c-0.5,2.6-1.3,5.2-2,7.8c-1.2,4.4-2.2,8.9-3.1,13.4
		c-0.9,5.2-1.5,10.6-2.4,15.8c-0.3,3-0.9,6-1,9.1c-0.3,5-1.5,10-0.7,14.9c0.4,0.3,0.9,0.6,1.4,0.7c7.6,1.9,15.4,2.7,23.1,3.2
		c0.6,0.1,1.3,0.1,1.9,0c0.1-0.9,0.2-1.8,0.2-2.6c0.8,0,1.5,0,2.3,0c0-4.6-0.5-9.2-0.1-13.7c1.5-0.4,3-0.9,4.5-1.3
		c1.1,3.7,1.4,7.7,2.3,11.5c0.6,2.4,1.1,4.9,1.4,7.4c2.7-0.4,5.3-1.4,7.7-2.7c2.4-1.2,5-2.1,7.3-3.6c0.9-0.5,1.8-1.3,2.9-1.6
		c1.2-0.1,2.3,0.1,3.5,0.2c4.4,0.3,8.9,0.7,13.3,1c2.2,0.1,4.4,0.6,6.7,0.3c0.5-1,0.3-2.2,0.5-3.4c0.8,0,1.6,0,2.5-0.1
		c0.7-2.1,0.4-4.3,0.7-6.4c0.1-2.5,0.3-5.1,0.5-7.6c1.5,2.4,3.3,4.6,5.1,6.7c0.9-1,1.1-2.3,1.5-3.6c0.5,0.3,1.1,0.9,1.7,0.5
		c0.6-0.5,0.9-1.2,1.2-1.9c0.9-1.7,1.8-3.2,2.8-4.8c1.4,7.3,1.1,14.8,2.8,22.1c2.8-0.2,5.6-0.5,8.4-0.8c4.6-0.8,9.2-1.3,13.6-2.5
		c1.5-0.3,3.1-1,4.7-0.7c5.1,0.7,10.2,1,15.3,0.7c2.8-0.3,5.7-0.6,8.5-0.8c0.4,2.7,0.9,5.4,1.9,7.9c4.2,0,8.2-0.9,12.4-1.1
		c6.6-0.4,13.3-0.8,19.9-1.6c3.8-0.4,7.7-0.9,11.5-1.6c-0.1-0.9-0.1-1.8-0.3-2.8c1.1-0.1,2.2-0.2,3.2-0.6
		C269.1,100.8,268.9,95.8,268.9,90.7z M193.6,28.9c0.3-1.3,0.7-2.7,2-3.5c1.4-0.8,3.1-0.9,4.7-1h0c2.8-0.2,5.6-0.4,8.4-0.2
		c1.9,0.1,3.8,0.2,5.7,0.8c1,0.4,2.1,0.9,2.6,1.9c1.1,2.4,0.8,5.2,0.8,7.8c-0.1,1.6-0.2,3.3-1.3,4.6c-2.3,2-5.6,2.7-8.6,2.8
		c-3.8,0.2-7.7-0.1-11.3-1.4c-0.9-0.4-2-0.7-2.6-1.6c-0.6-0.9-0.7-2-0.8-3.1C193.1,33.6,193,31.2,193.6,28.9z"/>
	<path class="st0" d="M196.8,38.9c3.6,1.8,7.7,1.9,11.6,1.4c1.2-0.2,2.7-0.7,3-2.1c0.7-3.1,1-6.4,0.8-9.6c-0.1-1.3-1-2.6-2.3-2.8
		c-2.6-0.5-5.3-0.5-8-0.3h0c-1.3,0.1-2.7,0.2-4,0.7c-1,0.4-1.7,1.4-2.1,2.5c-0.8,2.1-0.4,4.3-0.6,6.5
		C195.1,36.5,195.4,38.2,196.8,38.9z M197.2,28.3c1-1.3,2.8-1.4,4.2-1.7v0c2.6-0.4,5.2-0.4,7.8,0.1c0.5,0.1,1,0.2,1.3,0.7
		c0.7,1.3,0.7,2.8,0.6,4.2c-0.1,2.2-0.1,4.5-1,6.6c-0.4,1-1.7,1-2.6,1.1c-2.3,0.2-4.6,0.5-6.8-0.2c-1.2-0.4-2.5-0.8-3.6-1.4
		c-1.1-0.8-0.9-2.4-0.9-3.6C196.4,32.2,196.1,30.1,197.2,28.3z"/>
</g>
<path id="path20" class="st0" d="M213.9,27.7c1.1-0.7,2.6,0.5,2.3,1.7c-0.1,1.4-2.5,1.5-3,0.2C213,29,213.2,28,213.9,27.7z"/>
<path id="path24" class="st0" d="M302.9,30.9c0.4-0.7,0.9-1.5,1.4-2.2c1.4-0.1,2.6,0.9,3.9,1.3c2.8,1.1,5.5,2.3,8.4,3.1
	c1.9,0.6,3.7,1.4,5.5,1.9c2.7,0.8,5.5,1.4,8.1,2.4v0.8c-1.7,3.1-2.8,6.4-4.7,9.3c-2.7,3.9-5.8,7.6-8.8,11.3
	c-1.1,1.4-2.3,2.8-3.6,4.1c-1.9,2-3.8,3.9-6,5.6c-0.6,0.4-0.6,1.2-0.7,1.9c-0.4,6.1-0.1,12.2,0.3,18.2c0.2,3.8,0.5,7.5,1,11.2
	c0.1,0.9,0.1,1.8,0.1,2.7c-1.1,0.4-2.2,0.5-3.3,0.6c-0.1,0.9,0.5,2.3-0.4,2.9c-4.5,1.2-9.2,1-13.8,1.5c-3.1,0.2-6.2,0-9.3,0.2
	c-2.4,0-4.7-0.1-7.1-0.1c-1.1,0-1.3-1.3-1.3-2.1c0-3.1-0.1-6.2-0.1-9.3c0-2.6-0.2-5.2-0.2-7.8c0-4.7,0.1-9.3,0-14
	c-2.8-2.2-5.3-4.8-7.5-7.6c-2.3-2.8-4.6-5.6-6.3-8.8c-1.6-3.1-2.8-6.3-4.1-9.5c-0.4-1.2-1.1-2.7-0.6-4c0.6-0.4,1.4-0.5,2.1-0.8
	c-0.1-1.2-0.6-2.5-0.2-3.7c0.5-0.9,1.6-1.2,2.5-1.6c3.6-1.6,7.2-3,10.9-4.3c4.1-1.4,8.3-2.3,12.5-3.5c1-0.3,2-0.3,2.9-0.3
	c0.7,1.9,1.2,3.9,1.9,5.9c1,2.8,2.3,5.5,4.2,7.8c0.7-0.7,1.4-1.5,1.9-2.3c1-1.5,2.2-2.8,3.1-4.4c1.4-2.5,2.7-5.1,4.4-7.5
	C301.1,30,302,30.5,302.9,30.9L302.9,30.9z"/>
<path id="path26" class="st0" d="M301.9,37c1.2-2.1,2.3-4.1,3.3-6.3c2.1,1.1,4.5,1.7,6.8,2.6c5.2,2.1,10.5,3.5,15.8,5.4
	c-1.7,4-3.6,8.1-6.5,11.4c-1.2,1.4-2.1,2.9-3.3,4.3c-1.6,2-3.2,4-5,5.8c-1.8,1.9-3.7,3.6-5.6,5.4c-0.7,0.7-1.5,1.2-2.3,1.7
	c-0.6,0.3-0.6,1.1-0.7,1.7c-0.4,5.9-0.5,11.7,0,17.6c0.3,4.9,0.9,9.7,1.3,14.6c-5.8,1.6-11.8,1.4-17.7,1.8c-3.5,0.1-7,0.2-10.4-0.3
	c-0.6-2.8-0.6-5.6-0.7-8.4c-0.2-4.7-0.2-9.4-0.1-14c0-2.9,0.3-5.7,0.2-8.6c-2.5-2.3-5-4.5-7.3-7.1c-2.3-2.6-4.2-5.5-6.1-8.4
	c-1.7-2.6-3-5.4-4.2-8.3c-0.9-2.3-1.6-4.8-1.7-7.3c1.3-0.6,2.6-1.1,4-1.6c2.4-0.8,4.7-2,7.1-2.7c4.8-1.4,9.5-3.3,14.4-4.2
	c0.7,2.8,1.7,5.6,3,8.2c1.2,2.8,3,5.3,5.3,7.3c0.6,0.5,1.3,0.9,2.1,0.8c1.6-1.6,2.9-3.4,4.2-5.2C299.1,41.3,300.7,39.3,301.9,37z"/>
<path id="path28" class="st0" d="M214,32.3c1.3-0.7,2.9,0.7,2.3,2.1c-0.5,1.3-2.6,1-3-0.3C213,33.5,213.3,32.7,214,32.3z"/>
<path id="path32" class="st0" d="M166.1,36.8c3.3-0.3,6.5-0.2,9.8,0c4.1,0.1,8.3,0.4,12.4,1c0.3,1.4,0.7,2.8,0.9,4.2
	c0.5,2.9,1.2,5.7,1.6,8.5c0.4,4,0.8,8,1,12c0.1,3,0.2,6,0.5,9.1c0.4,3.5,0.4,7.1,0.6,10.6c0.5,6.5,0.4,13,0.6,19.4
	c-4.9,1.8-10.2,2.4-15.3,3.2c-1.6,0.2-3.1,0.5-4.7,0.6c-1.2-7.8-1.4-15.7-2.7-23.5c-0.1-1-1.4-1.5-2.2-0.9c-0.6,0.4-1,1.2-1.4,1.8
	c-1,2-2.3,4-3.3,6c-0.6,1.1-1.1,2.2-1.9,3.2c-0.3,0.1-0.5-0.4-0.7-0.6c-2.3-3.1-4.1-6.6-6.3-9.8c-0.3-0.5-0.9-1-1.6-0.8
	c-0.7,0.1-1,0.8-1,1.4c-0.1,1.4,0,2.9,0,4.3c0.1,5.5-0.3,11-0.8,16.4c-3.6,0-7.1-0.4-10.7-0.6c-3.3-0.3-6.6-0.4-9.8-0.9
	c1.1-1.1,2.5-1.9,3.5-3.1c-0.5-4.2-0.9-8.4-1.5-12.6c-0.7-4.9-1.9-9.6-2.7-14.5c-1.2-6-2.6-11.9-4.5-17.7c-0.4-1.7-1.5-3.3-1-5.1
	c0.7-2.8,1.2-5.7,1.9-8.5c0.1-0.5,0.7-0.7,1.1-0.8c2.7-0.8,5.6-1.2,8.4-1.7c3.5-0.3,7-0.2,10.4-0.1c0.8-0.1,1.1,0.9,1.5,1.4
	c2.6,4.3,5.4,8.3,8.1,12.5c0.5,0.8,0.9,1.6,1.6,2.2c0.8,0.7,2.3,0.2,2.5-0.8C162.2,47.2,164.1,42,166.1,36.8L166.1,36.8z"/>
<path id="path34" class="st0" d="M89,38.2c5.1-0.5,10.2-0.6,15.3-0.1c3.9,0.3,7.8,0.6,11.7,1.3c0.7,0.2,1.7,0,2.1,0.8
	c1.2,1.8,2,3.8,2.7,5.8c2.4,5.8,3.9,11.9,5.5,17.9c1.6,5.6,2.6,11.3,3.6,17c0.4,2.7,0.9,5.4,1.2,8.1c0.4,2.8,0.8,5.5,1,8.3
	c-1,1.2-2.5,2-3.8,2.8c-2.5,1.6-5.2,3-7.7,4.6c-2.6,1.7-5.5,2.6-8.4,3.7c-0.7-2.2-0.9-4.5-1.3-6.7c-0.7-3.2-1.1-6.5-1.9-9.8
	c-0.1-0.5-0.4-1-0.9-1.1c-2.7,0.3-5.2,1.6-7.8,2.1c-0.7,0.1-1.5,0.4-1.8,1.1c-0.2,0.8-0.1,1.6-0.1,2.4c0.1,4,0,8.1,0.3,12.1
	c-6.1-0.2-12.3-0.8-18.3-2c-1.3-0.3-2.5-0.4-3.7-0.9c-0.1-2.8,0.4-5.7,0.6-8.5c0.3-3.9,0.4-7.9,1.1-11.8c0.6-4.5,1.4-9,2.2-13.4
	c0.8-5.2,2.2-10.3,3.3-15.4c0.7-3.3,1.8-6.5,2.6-9.8c0.7-2.6,1.2-5.3,2.1-7.8C88.6,38.7,88.6,38.2,89,38.2L89,38.2z"/>
<path id="path36" class="st0" d="M238.7,39.6c2.1-0.2,4.2-0.4,6.3-0.5c0.6-0.1,1.3,0,1.9,0.2c0.3,1.2,0.2,2.5,0.4,3.7
	c0.8,9.1,0.4,18.3,1.5,27.4c0.3,2.8,0.6,5.7,0.9,8.5c0,0.9,0.1,1.7,0.3,2.6c1,0.5,2.2,0.2,3.3,0.1c4.5-0.4,9-0.8,13.6-0.8
	c0.1,3.9-0.1,7.8,0.2,11.7c0.1,4.1,0.2,8.3,0.1,12.5c-7.5,0.7-15,1.6-22.5,2.4c-6.6,0.5-13.1,1.2-19.7,1.5c-0.4-2-0.8-4-1.1-6
	c0.7-0.4,1.5-0.7,1.7-1.6c0.8-6,0.1-12.1,0.1-18.2c0-5.2-0.8-10.4-1.1-15.6c-0.6-5.8-1.3-11.5-2.4-17.2c-0.2-1-0.3-2.3-1.3-2.9
	c-0.3-1.2-0.5-2.4-0.5-3.7c2.9-1,6-1.5,9-2.3C232.4,40.7,235.5,40,238.7,39.6L238.7,39.6z"/>
<path id="path38" class="st0" d="M192.9,49.5c5.5-1.5,11.3-1.8,17-1.6c3.3,0,6.6,0.5,9.9,1.4c1.3,5.8,1.9,11.7,2.5,17.5
	c0.4,5.2,1,10.3,1.2,15.4c0.1,5.9,0.4,11.9-0.2,17.8c-5.7,1.5-11.5,2.2-17.4,1.9c-1.5-0.2-3-0.1-4.5-0.2c-1.8-0.2-3.6-0.5-5.4-0.8
	c-0.3-6-0.2-12.1-0.7-18.1c-0.3-7.1-0.7-14.2-1.2-21.4C193.7,57.4,193.4,53.4,192.9,49.5L192.9,49.5z"/>
<path id="path40" class="st0" d="M102.2,69.3c0-0.5,0.5-1.1,1.1-0.8c0.6,0.8,0.8,1.9,1.2,2.8c0.3,1,0.8,2.1,0.5,3.1
	c-1.1,0.6-2.3,0.9-3.5,1C101.4,73.4,101.8,71.4,102.2,69.3z"/>
<path id="path42" class="st0" d="M209,114.6c-0.5,0-1,0.1-1.4,0.2c-2.9,0.6-5.8,1.5-8.8,2.2c-2.9,0.9-6,1.6-8.8,2.8
	c-0.8,0.3-1.7,0.7-2.5,0.7c-2,0-4-0.3-6-0.3c-3-0.1-6,0.6-9.1,0.8c-0.9,0.1-1.7,0.2-2.6,0.2c0,0.6,0,1.3,0,1.9
	c-1,0.1-2.1,0.2-3.1,0.4c-0.2,1.8,0.2,3.6,0.2,5.3c0.3,3.6,0.4,7.2,0,10.8c-0.2,2-0.6,4.5-2.5,5.7c-1.2,0.4-2.3-0.4-3.1-1.2
	c-1.6-1.6-2.7-3.5-3.5-5.6c-0.8-2.3-1-4.8-1.4-7.2c-0.4-3.3-0.6-6.6,0.2-9.8c0.2-0.8,0.6-1.5,0.4-2.3c-0.6-0.6-1.6-0.4-2.3-0.3
	c-3.7,0.5-7.4,0.6-11,1.3c-3.3,0.7-6.4,2-9.6,2.8c-0.1-0.5-0.3-1-0.4-1.5c-4.7-2.7-9.8-4.7-15.1-5.6c-1.4-0.3-2.8-0.6-4.2-0.7
	c-8.4-0.9-16.6,1.5-24.5,4.1c-3.6,1.7-7.1,3.3-10.3,5.7c-2.5,1.8-4.7,4-6.9,6.2c-0.9,0.9-2.2,1.3-3.2,2.1c-1.8,1.5-3.6,3.1-4.9,5.1
	c-2.3,3.6-3.4,7.7-4.2,11.8c-1.1,5.5-0.5,11.1,0.7,16.5c1,4.1,3.1,7.9,5.5,11.3c1.3,1.9,2.8,3.6,4.5,5.1c3.8,3.3,7.7,6.4,12.3,8.6
	c1.7,0.8,3.6,1.3,5.5,1.9c5.1,1.8,10.5,3,16,3.5h6.1c2.3-0.2,4.6-0.5,6.9-0.8c2.9-0.5,5.7-1.4,8.6-2.1c2.4-0.6,4.6-1.5,6.8-2.6
	c0.4-0.2,0.8-0.5,1.1-0.9c0.2-1.2,0-2.4,0-3.6c0.7-0.5,1.3-1,2-1.5c0.1-3.5-0.1-6.9,0.1-10.3c1,1.2,1.9,2.5,3.2,3.5
	c2,1.6,4.1,3.1,6.3,4.3c3.9,1.8,8.1,3.4,12.5,3.4c3.5,0.1,7-0.6,10.3-1.8c2.5-0.8,4.9-2.2,6.5-4.2c0.6-0.8,1.7-1.2,2.5-1.7
	c2.4-1.3,4.9-2.7,6.8-4.8c3.7-3.5,6.7-7.7,8.6-12.5c1.1-2.8,2.5-5.6,3.5-8.4c1.6,1.5,2.8,3.3,4.6,4.6c0.8,0.6,1.7,1.1,2.4,1.9
	c0.7,0.7,0.4,1.8,0.4,2.7c0,4.8-0.1,9.6,0,14.3c0.3,4.9,0.7,9.7,1.3,14.6c0.1,0.5,0.2,1.1,0.3,1.6c1.2,0.3,2.5,0.2,3.8,0.2
	c3.3-0.3,6.7-0.4,10-0.8c3.8-0.3,7.5-0.9,11.3-1.2c3-0.4,6-0.7,8.9-1.5c0-0.9-0.1-1.8-0.2-2.8c0.9-0.2,1.9-0.3,2.8-0.8
	c0.4-0.4,0.2-1.1,0.2-1.6c-0.7-5.9-1.7-11.9-2.2-17.8c-0.3-3.3-1-6.6-1.2-10c6.7-6.2,12.7-13.4,17.3-21.4c2-3.4,3.8-7,4.6-10.9
	c-0.8-0.9-1.9-1.4-2.9-1.9c-2.3-1.2-4.7-2.2-7.2-3.2c-2.9-1.3-6-2.2-9.2-2.9c-2.8-0.7-5.5-1.5-8.4-1.8c-0.3,0.6-0.5,1.2-0.8,1.8
	c-0.1,0.3-0.6,0.3-0.8,0.2c-0.7-0.3-1.3-1-2.1-1c-0.6,0.4-0.9,1.1-1.2,1.7c-1.6,3.4-3.5,6.7-5.2,10.1c-0.4,0.8-0.9,1.5-1.4,2.3
	c-1.8-1.1-3.2-2.7-4.6-4.3c-1.2-1.4-2.7-2.7-3.8-4.2c-1.6-2-2.9-4.3-4-6.6C209.3,114.6,209.2,114.6,209,114.6L209,114.6z
	 M115.9,147.6c2.3,0,4.7,0,7,0.2c1.3,0.1,2.6,0,3.8,0.4c0.5,0.2,0.5,0.8,0.6,1.3c0.1,1,0.1,2.1,0.3,3.1c-3.4-0.1-6.8-0.5-10.2-0.3
	c-2,0.2-4-0.2-6,0.1c-2.2,0.1-4.4,0.1-6.6,0.4c-0.1,0.7-0.1,1.4,0,2.1c-1.2,0.1-2.4,0.2-3.6,0.2c-0.1,3.7,0.4,7.5,0.4,11.2
	c-2.4-1.4-4.5-3.6-5.3-6.4c-0.3-1.4,0.3-2.8,0.9-4c1.4-2.9,4-5.1,7-6.3C107.8,147.8,111.9,147.6,115.9,147.6z"/>
<path id="path44" class="st0" d="M207.6,116.2c0.3,0,0.7-0.3,0.9,0.1c1.3,2.6,3,5,4.9,7.2c2.9,3.3,5.8,6.7,9.6,9
	c0.6,0.4,1.5,1.1,2.1,0.4c2.4-2.5,3.7-5.7,5.5-8.6c1.4-2.5,2.5-5.2,3.8-7.8c2,0.2,4,0.8,6,1.3c3.2,0.8,6.3,1.7,9.3,2.9
	c3.2,1.3,6.5,2.6,9.5,4.3c-1.4,4.4-3.4,8.6-6,12.4c-1.5,2.5-3.3,4.9-5.1,7.2c-2.1,2.7-4.4,5.3-6.8,7.8c-0.9,0.9-1.7,2-2.8,2.7
	c-0.5,0.5-1.2,0.9-1.4,1.6c0.1,1.6,0.6,3.1,0.8,4.7c1,6.7,1.4,13.5,2.4,20.3c0.2,1.1,0.3,2.3,0.3,3.4c-3,0.8-6.2,1.1-9.2,1.6
	c-2.9,0.4-5.9,0.7-8.8,1.1c-4.1,0.4-8.2,0.6-12.3,1c-0.7-5.5-1.1-11.1-1.1-16.7c0-4.1,0-8.2,0-12.3c0-0.7,0.1-1.5-0.5-1.9
	c-1.7-1.5-3.8-2.6-5.3-4.2c-1.2-1.3-2.6-2.3-3.6-3.7c-0.6-0.9-1.3-1.8-1.9-2.7c-0.1-1.6,0.1-3.2,0-4.7c0.1-5-0.6-9.9-1.2-14.8
	c-0.3-2.1-0.6-4.2-1.2-6.2c-0.8-0.6-1.9-0.7-2.8-1C197.6,118.9,202.6,117.5,207.6,116.2L207.6,116.2z"/>
<path id="path46" class="st0" d="M99.2,118.3c5.4-1.4,11.1-2.2,16.7-1.3c1.6,0.3,3.2,0.6,4.8,1c4,1.4,8.1,2.5,11.6,4.8
	c0.7,3,1,6.2,1.2,9.3c0.3,4.2,0.5,8.5-0.3,12.7c-1.4-0.2-2.7-0.6-4.1-0.9c-1.5-0.4-3-0.4-4.6-0.6c-3.2-0.4-6.4-0.5-9.5-0.3
	c-2.2,0-4.4,0.1-6.5,0.7c-2,0.6-4,1.2-5.9,2.2c-2.8,1.7-5.3,4-6.8,6.9c-1.4,2.8-1.9,6.3-0.5,9.2c1.1,2.6,3.4,4.5,5.8,5.9
	c3,1.7,6.6,2.3,10,1.7c2-0.4,3.6-2.1,4.5-3.9c0.2-0.6,0.4-1.4-0.1-1.8c-1.2-0.4-2.4-0.1-3.6-0.1c-1.6,0-3.3,0.1-4.9,0.1
	c0-3.3-0.5-6.6-0.3-9.8c3.8-0.4,7.7-0.3,11.5-0.3c3.7-0.1,7.4,0.3,11.1,0.4c1.2,0.2,2.5,0,3.7,0.3c0.1,0.1,0.2,0.2,0.3,0.3
	c0.7,2.7,0.6,5.5,0.7,8.3c0.5,6.4,1,12.9,1,19.3c0,0.8,0.1,1.6-0.1,2.4c-0.7,0.7-1.6,1.1-2.4,1.6c-7.1,4-15.3,5.9-23.4,6.1
	c-2.5,0.1-4.9-0.1-7.4-0.5c-2.6-0.4-5.1-1.2-7.7-1.8c-4.1-0.9-7.9-2.8-11.5-4.9c-2.2-1.6-4.5-3.1-6.4-5.2c-3.5-3.7-6.3-7.9-8.1-12.7
	c-1.5-3.8-2.2-7.8-2.6-11.9c-0.1-2.5-0.2-5.1,0.3-7.6c0.4-2.8,1.3-5.4,2.5-7.9c1.1-2.4,3-4.2,4.6-6.2c1.5-1.8,3.4-3.3,5.1-5
	c2.2-2.2,5-3.8,7.7-5.3C89.6,121,94.4,119.5,99.2,118.3L99.2,118.3z"/>
<path id="path48" class="st0" d="M142.3,122.4c4.2-1.1,8.5-1.3,12.8-1.5c-1,4.5-0.6,9.2,0,13.8c0.3,1.9,0.7,3.8,1.3,5.5
	c0.9,2.5,2.6,4.9,5,6.3c1.8,1,3.9,0.7,5.8,0.1c1.7-0.5,3.2-1.8,3.9-3.5c1.4-3.4,1.3-7.3,1.3-10.9c0-3.1-0.3-6.1-0.4-9.2
	c1.6-0.1,3.1-0.4,4.6-0.6c4.3-0.4,8.6-0.5,12.9,0.1c1.3,0.2,2.6,0.3,3.8,0.7c0.5,0.8,0.5,1.8,0.8,2.7c1.4,8.2,2.4,16.7,1.4,25
	c-0.2,1.8-0.9,3.4-1.6,5.1c-1.2,2.8-2.3,5.5-3.7,8.2c-0.7,1.4-1.4,2.8-2.4,4.1c-1.2,1.6-2.7,3-4.2,4.4c-2.9,3.1-6.7,5.1-10.6,6.8
	c-3,1.5-6.4,1.8-9.7,1.8c-3.2,0.1-6.5-0.4-9.6-1.4c-2.2-0.7-4.3-1.9-6.4-2.9c-3.3-1.5-6-4-8.4-6.7c-1.3-1.5-2.4-3.2-2.7-5.2
	c-0.7-3.7-0.4-7.5-1.3-11.1c-0.4-1-1.7-0.8-2.3-1.5c-0.6-1.7-0.6-3.4-0.8-5.2c0.8,0.2,1.6,0.3,2.3,0.4c0.5-0.8,1-1.6,1.1-2.5
	c1.1-6.7,0.2-13.5-0.3-20.2C137.4,123.9,139.9,123.2,142.3,122.4L142.3,122.4z"/>
</svg>
