<?xml version="1.0" encoding="UTF-8" standalone="no"?>
<!-- Created with Inkscape (http://www.inkscape.org/) -->

<svg
   xmlns:svg="http://www.w3.org/2000/svg"
   xmlns="http://www.w3.org/2000/svg"
   version="1.0"
   width="1000.36"
   height="200"
   id="svg2">
  <defs
     id="defs4" />
  <g
     id="layer1">
    <rect
       width="177.65329"
       height="176.92159"
       ry="0"
       x="12.431803"
       y="12.791639"
       id="rect2396"
       style="fill:none;stroke:#000000;stroke-width:12.97409439;stroke-linecap:butt;stroke-linejoin:miter;stroke-miterlimit:4;stroke-opacity:1;stroke-dasharray:none" />
    <path
       d="m 255.06352,571.7821 a 19.950512,19.950512 0 1 1 -39.90103,0 19.950512,19.950512 0 1 1 39.90103,0 z"
       transform="matrix(2.5948189,0,0,2.5948189,-304.51496,-1381.5742)"
       id="path3174"
       style="fill:none;stroke:#000000;stroke-width:6;stroke-linecap:butt;stroke-linejoin:round;stroke-miterlimit:4;stroke-opacity:1;stroke-dasharray:none" />
    <path
       d="m 441.86118,46.397134 0,69.460816 c 0,49.23082 68.15022,53.27713 68.15022,0 l 0,-70.116106"
       id="path3176"
       style="fill:none;stroke:#000000;stroke-width:15.56891346;stroke-linecap:butt;stroke-linejoin:miter;stroke-miterlimit:4;stroke-opacity:1;stroke-dasharray:none" />
    <path
       d="m 255.05711,571.27665 a 19.950512,19.950512 0 1 1 -39.89462,0.50545"
       transform="matrix(1.4944883,0,0,1.4944883,280.29839,-729.8697)"
       id="path3182"
       style="fill:none;stroke:#000000;stroke-width:10.41755486;stroke-linecap:butt;stroke-linejoin:round;stroke-miterlimit:4;stroke-opacity:1;stroke-dasharray:none" />
    <path
       d="m 255.05711,571.27665 a 19.950512,19.950512 0 1 1 -39.89462,0.50545"
       transform="matrix(-1.2243391,0,0,-1.2243391,922.23224,774.7523)"
       id="path3184"
       style="fill:none;stroke:#000000;stroke-width:12.71617794;stroke-linecap:butt;stroke-linejoin:round;stroke-miterlimit:4;stroke-opacity:1;stroke-dasharray:none" />
    <path
       d="m 609.8941,73.682334 c 0,30.504486 51.66468,17.67141 51.66468,52.591456"
       id="path3186"
       style="fill:none;stroke:#000000;stroke-width:15.56891346;stroke-linecap:butt;stroke-linejoin:miter;stroke-miterlimit:4;stroke-opacity:1;stroke-dasharray:none" />
    <path
       d="m 65.213813,161.02581 0,-116.303496 0,52.82309 74.137657,0 3e-5,-53.28645 0,114.913396"
       id="path3200"
       style="fill:none;stroke:#000000;stroke-width:15.56891346;stroke-linecap:butt;stroke-linejoin:miter;stroke-miterlimit:4;stroke-opacity:1;stroke-dasharray:none" />
    <path
       d="m 811.22423,54.452884 -50.50629,0 0,96.842356 51.89638,0"
       id="path3202"
       style="fill:none;stroke:#000000;stroke-width:15.56891346;stroke-linecap:butt;stroke-linejoin:miter;stroke-miterlimit:4;stroke-opacity:1;stroke-dasharray:none" />
    <path
       d="m 761.1813,97.082044 50.04293,0"
       id="path3204"
       style="fill:none;stroke:#000000;stroke-width:15.56891346;stroke-linecap:butt;stroke-linejoin:miter;stroke-miterlimit:4;stroke-opacity:1;stroke-dasharray:none" />
    <path
       d="m 245.27398,185.97406 579.27698,0"
       id="path3208"
       style="fill:none;stroke:#000000;stroke-width:9.08186626;stroke-linecap:round;stroke-linejoin:miter;stroke-miterlimit:4;stroke-opacity:1;stroke-dasharray:none" />
    <path
       d="m 884.551,196.8273 0,0 -0.002,-0.68358 5.1107,-41.20525 0.23732,-0.74601 13.28869,41.2833 13.34658,-40.9267 0.17417,0.49481 0.21054,1.26329 6.54066,39.2438 0.001,0.96917"
       id="path3210"
       style="fill:none;stroke:#000000;stroke-width:7.78445673;stroke-linecap:butt;stroke-linejoin:bevel;stroke-miterlimit:4;stroke-opacity:1;stroke-dasharray:none" />
    <path
       d="m 953.64325,192.36312 0,-33.91127 c 11.32,0 24.90104,0.80416 24.90104,16.54607 0,16.69444 -15.82943,17.3652 -24.90104,17.3652 z"
       id="path3212"
       style="fill:none;stroke:#000000;stroke-width:7.78445673;stroke-linecap:butt;stroke-linejoin:miter;stroke-miterlimit:4;stroke-opacity:1;stroke-dasharray:none" />
    <rect
       width="3.3017933"
       height="3.3017933"
       ry="0"
       x="935.44629"
       y="190.7122"
       id="rect3214"
       style="fill:none;stroke:#000000;stroke-width:4.48266315;stroke-linecap:butt;stroke-linejoin:miter;stroke-miterlimit:4;stroke-opacity:1;stroke-dasharray:none" />
    <rect
       width="3.3017933"
       height="3.3017933"
       ry="0"
       x="990.32684"
       y="189.89308"
       id="rect3216"
       style="fill:none;stroke:#000000;stroke-width:4.48266315;stroke-linecap:butt;stroke-linejoin:miter;stroke-miterlimit:4;stroke-opacity:1;stroke-dasharray:none" />
  </g>
</svg>
