<svg xmlns="http://www.w3.org/2000/svg" width="1042.534" height="83.88" viewBox="0 0 1042.534 83.88">
  <defs>
    <style>
      .cls-1 {
        fill: #fff;
        fill-rule: evenodd;
      }
    </style>
  </defs>
  <path id="PLANET_EARTH_II" data-name="PLANET EARTH II" class="cls-1" d="M249.17,1905.48V1869.3h8.837q11.821,0,18.151-2.54a20.828,20.828,0,0,0,9.971-8.15,23.151,23.151,0,0,0,3.642-12.89q0-10.875-7.105-17.32t-19.047-6.45h-26.45v83.53h12Zm28.242-60.06q0,6.39-3.941,9.82t-11.225,3.43H249.17v-26.09h12.36q15.882,0,15.882,12.84h0Zm31.92,60.06h49.5v-10.86H321.273v-72.55H309.332v83.41Zm59.922,0h12.272l10.423-24.72h35.587l11.117,24.72h12.222l-37.4-83.89h-8.393Zm27.435-35.34,12.48-30.22,13.458,30.22H396.689Zm138.768,16.72-56.245-64.79H469.54v83.41h11.225v-64.24l55.767,64.24H546.8v-83.41H535.457v64.79Zm38.368,18.5h48.423v-10.62H585.767v-25.92H619.92v-10.69H585.767V1832.7h35.347v-10.63H573.825v83.29Zm63.207-72.78h28.6v72.9h12v-72.9h29.078v-10.63H637.032v10.63Zm133.28,72.78h48.423v-10.62H782.253v-25.92h34.153v-10.69H782.253V1832.7H817.6v-10.63H770.312v83.29Zm61.116,0.12H843.7l10.423-24.72H889.71l11.117,24.72h12.222l-37.4-83.89h-8.393Zm27.435-35.34,12.48-30.22,13.458,30.22H858.863Zm84.792,35.34v-36.3h3.109q5.857,0,8.338,1.34a26.207,26.207,0,0,1,5.56,4.38,65.658,65.658,0,0,1,6.776,8.18l3.994,6.51,3.7,6.1,2.325,3.28q0.537,0.72.716,1.02l3.638,5.49h14.21l-4.418-5.97q-2.628-3.585-6.986-10.69A145.155,145.155,0,0,0,973.867,1873a36.931,36.931,0,0,0-7.821-7.16,20.865,20.865,0,0,0,14.091-20.54q0-10.695-7.434-16.96t-20.092-6.27h-20.9v83.41h11.941Zm16.151-71.95a11.2,11.2,0,0,1,5.881,4.51,12.764,12.764,0,0,1,2.09,7.14,13.57,13.57,0,0,1-1.881,7.13,11.648,11.648,0,0,1-5.254,4.69q-3.374,1.56-12.449,1.55h-4.538v-26.33h3.583Q956.015,1832.22,959.806,1833.53Zm36.488-.95h28.6v72.9h12v-72.9h29.08v-10.63H996.294v10.63Zm148.946,25.55h-46.87v-36.06h-11.94v83.41h11.94v-36.3h46.87v36.3h11.94v-83.41h-11.94v36.06Zm82.77,47.35h11.94v-83.41h-11.94v83.41Zm39.74,0h11.94v-83.41h-11.94v83.41Z" transform="translate(-237.156 -1821.59)"/>
</svg>
