<?xml version="1.0" encoding="utf-8"?>
<!-- Generator: Adobe Illustrator 16.0.0, SVG Export Plug-In . SVG Version: 6.00 Build 0)  -->
<!DOCTYPE svg PUBLIC "-//W3C//DTD SVG 1.1//EN" "http://www.w3.org/Graphics/SVG/1.1/DTD/svg11.dtd">
<svg version="1.1" id="Layer_1" xmlns="http://www.w3.org/2000/svg" xmlns:xlink="http://www.w3.org/1999/xlink" x="0px" y="0px"
	 width="1000px" height="293.064px" viewBox="0 0 1000 293.064" enable-background="new 0 0 1000 293.064" xml:space="preserve">
<g>
	<path fill="#11B0C8" d="M683.542,252.254c0.399-5.251-1.055-9.865-3.934-14.23c-2.935-4.445-4.402-9.247-2.191-14.542l0.35-1.205
		c1.299-4.771,0.705-9.179-2.822-12.838c-2.647-2.754-3.372-5.913-2.598-9.547c1.023-4.776,0.687-9.204-2.191-13.486
		c-2.491-3.716-2.922-7.818-0.942-12.214c1.673-3.69,2.766-7.675,3.826-11.602c0.825-3.06,0.831-6.3-0.324-9.278
		c-0.937-2.429-0.693-4.634-0.112-7.025c0.618-2.522,0.962-5.126,1.299-7.705c0.262-1.985-0.399-3.74-1.88-5.102
		c-1.948-1.785-2.622-4.008-2.298-6.537c0.388-2.904,0.949-5.776-0.567-8.573c-0.269-0.487-0.112-1.236-0.069-1.861
		c0.375-5.045-0.899-9.741-2.879-14.312c-1.136-2.635-1.616-5.407-1.317-8.273c0.575-5.563,0.225-11.114-0.742-16.565
		c-1.043-5.863-2.686-11.608-3.922-17.44c-0.431-2.017-0.711-4.139-0.586-6.181c0.255-4.165,0.755-8.323,1.311-12.469
		c0.675-4.996,1.898-9.841,4.052-14.449c2.067-4.458,3.984-8.991,5.901-13.518c0.687-1.636,1.273-3.328,1.686-5.052
		c0.5-2.073,0.475-4.165-0.78-6.05c-1.667-2.504-3.865-2.972-6.051-0.874c-1.779,1.729-3.465,3.703-4.658,5.863
		c-2.347,4.246-5.045,8.179-8.298,11.77c-2.267,2.504-3.234,5.489-3.372,8.898c-0.256,6.625-1.768,12.832-6.568,17.845
		c-1.368,1.43-2.566,3.041-3.671,4.689c-1.112,1.636-2.279,3.328-2.911,5.17c-1.504,4.339-3.14,8.71-3.908,13.218
		c-1.018,6-2.592,11.808-4.184,17.665c-1.323,4.864-3.584,8.86-6.993,12.37c-2.16,2.223-3.672,4.858-4.614,7.767
		c-1.131,3.484-2.117,7.006-3.06,10.547c-0.425,1.611-0.719,3.278-0.874,4.932c-0.725,7.917-1.3,15.848-2.104,23.746
		c-0.194,1.873-0.024,3.953-1.324,5.651l-0.555-0.486c-2.073-2.854-2.323-6.157-2.642-9.529c-0.737-7.905-1.542-15.791-1.224-23.752
		c0.094-2.404,0-4.814,0.074-7.218c0.063-1.967-0.761-3.428-2.248-4.602c-0.567-0.443-1.154-0.855-1.811-1.343
		c0.119-1.48,0.237-2.935,0.351-4.383c0.268-3.534-0.213-6.818-2.499-9.784c-0.817-1.049-1.173-2.71-1.16-4.084
		c0.03-3.546,0.361-7.099,0.644-10.64c0.218-2.935-0.838-5.32-2.886-7.336c-0.524-0.506-1.205-0.918-1.58-1.511
		c-0.586-0.924-1.436-1.992-1.379-2.953c0.18-3.428,0.48-6.881,1.148-10.24c0.524-2.648,1.729-5.152,2.485-7.762
		c1.361-4.721,2.784-9.422,3.858-14.211c0.55-2.448-0.668-4.159-2.729-5.088c-1.973-0.906-3.622-0.688-5.201,1.467
		c-2.717,3.697-5.258,7.549-7.568,11.501c-1.018,1.754-1.436,3.902-1.892,5.926c-0.756,3.397-1.567,6.775-4.102,9.347
		c-2.742,2.785-4.24,6.175-5.214,9.878c-0.156,0.612-0.47,1.186-0.831,2.073c-1.711-4.408-2.41-4.839-6.119-3.953
		c-0.132-0.599-0.181-1.23-0.412-1.786c-1.03-2.491-2.99-2.878-4.839-0.887c-0.774,0.825-1.561,1.773-1.942,2.816
		c-1.43,3.928-2.872,7.862-3.99,11.876c-1.111,4.027-1.673,8.205-2.753,12.238c-2.385,8.879-4.14,17.945-7.968,26.4
		c-0.468,1.03-0.644,2.204-0.855,3.328c-1.111,6.051-0.942,12.07,0.337,18.083c1.53,7.155,1.381,14.348,0.263,21.542
		c-0.712,4.651-3.44,8.241-6.381,11.682c-4.658,5.438-6.694,11.694-6.113,18.856c0.28,3.484,1.018,6.795,2.422,9.998
		c2.437,5.531,3.335,11.194,1.131,17.058c-0.369,0.975-0.637,2.012-0.762,3.041c-0.331,2.598-0.431,5.146,0.749,7.687
		c0.669,1.455,0.968,3.203,0.98,4.826c0.044,6.388-0.106,12.77-0.119,19.157c-0.006,1.13,0.206,2.292,0.513,3.385
		c0.431,1.586,1.354,2.885,3.048,3.277c1.834,0.425,2.959-0.774,3.907-2.065c1.698-2.317,2.897-4.878,3.185-7.757
		c0.525-5.176,2.224-9.958,4.246-14.698c0.912-2.159,1.287-4.639,1.442-6.999c0.3-4.633-0.718-9.153-1.68-13.662
		c-0.237-1.105-0.411-2.311-0.219-3.403c0.956-5.376,3.011-10.353,7.101-14.023c3.365-3.041,4.764-6.476,4.184-10.858
		c-0.132-1.043-0.051-2.117-0.27-3.135c-0.692-3.153-0.28-6.194,0.425-9.304c0.962-4.277,2.048-8.579,2.404-12.931
		c0.593-7.226,1.829-14.293,3.528-21.312c1.186-4.871,1.205-9.704-0.531-14.518c-1.686-4.683-1.536-9.428,0.094-14.167
		c0.812-2.367,1.261-4.852,2.041-7.231c0.862-2.635,1.462-5.432,3.91-8.111c0.199,1.518,0.474,2.498,0.431,3.453
		c-0.169,3.135-0.388,6.263-0.7,9.373c-0.393,4.04,0.469,7.505,4.053,9.872c1.592,1.042,2.41,2.548,2.717,4.396
		c0.317,1.855,1.248,3.603,2.84,4.334c3.771,1.742,4.402,4.982,4.752,8.498l0.094,0.936c0.743,6.256,1.842,12.357,4.951,18.026
		c1.256,2.286,1.425,5.189,1.979,7.83c0.375,1.73,0.219,3.635,0.881,5.227c1.305,3.165,1.087,6.307,0.756,9.565
		c-0.681,6.938,1.192,10.946,7.336,12.164c1.518,0.299,2.367,1.224,2.511,2.791c0.156,1.555,0.361,3.109,0.562,4.664
		c0.524,4.059,1.156,8.105,3.69,11.514c1.48,1.992,3.371,3.142,5.964,2.542c2.135-0.5,3.902-2.679,4.139-5.332
		c0.225-2.398,0.419-4.821,0.281-7.212c-0.375-6.519,1.537-12.369,4.64-17.989c0.887-1.605,1.586-3.453,1.835-5.265
		c0.45-3.303,0.606-6.661,0.706-10.003c0.181-6.031,1.268-11.669,6.119-15.884l0.631-0.7c4.358-5.969,6.825-12.419,5.295-19.962
		c-1.168-5.794-0.162-11.439,1.38-17.021c0.3-1.093,0.749-2.148,1.137-3.222c0.53,1.287,0.53,2.436,0.53,3.584
		c0.007,3.547,1.093,6.563,4.146,8.68c0.763,0.53,1.406,1.255,2.023,1.966c1.512,1.755,2.316,3.734,1.655,6.082
		c-0.612,2.216-1.23,4.427-1.905,6.631c-1.311,4.29-3.228,8.498-3.858,12.881c-0.893,6.219-0.587,12.544,1.836,18.557
		c0.493,1.243,0.993,2.572,1.074,3.89c0.162,3.029,0.249,6.082,0.056,9.104c-0.668,10.19,2.11,19.231,8.698,27.062
		c1.711,2.023,1.86,4.152,1.224,6.719c-0.868,3.521-1.448,7.149-1.724,10.765c-0.305,3.884,1.299,6.931,5.17,8.417l0.537,0.563
		c0,1.973,0.019,4.064-0.012,6.149c-0.031,2.772,0.886,5.164,2.984,6.981c1.648,1.437,3.341,2.891,5.207,4.015
		c1.905,1.155,2.479,2.635,2.204,4.733c-0.262,1.967-0.361,3.952-0.492,5.938c-0.106,1.666,0.312,3.134,1.923,3.977
		c1.492,0.78,2.585-0.125,3.702-0.931l0.605-0.037l0.4,0.438c1.829,1.842,3.009,2.153,4.627,1.229c1.61-0.924,1.947-2.272,1.36-4.62
		C683.818,255.146,683.436,253.66,683.542,252.254"/>
	<path fill="#11B0C8" d="M183.694,264.331c-0.612-3.877-2.197-7.374-4.97-10.284c-3.334-3.527-5.37-7.604-5.682-12.563
		c-0.362-5.695-3.627-9.448-8.797-11.446c-1.699-0.661-2.904-1.554-3.715-3.103c-0.968-1.849-2.073-3.646-2.878-5.563
		c-1.024-2.429-2.81-4.064-5.214-4.596c-2.804-0.631-4.04-2.335-4.658-4.839c-0.231-0.918-0.543-1.817-0.681-2.748
		c-0.942-6-4.221-10.396-9.366-13.431c-1.642-0.974-2.46-2.329-3.234-4.009c-1.574-3.403-3.01-7.031-5.333-9.878
		c-3.31-4.053-7.474-7.175-13.356-4.852l-0.743-0.206c-0.711-1.492-1.355-3.153-2.254-4.665c-2.198-3.665-3.634-3.989-7.318-1.866
		l-0.505,0.031c-0.319-0.662-0.662-1.393-1.024-2.123c-1.261-2.522-2.392-5.127-3.827-7.549c-1.287-2.174-2.841-4.146-5.882-4.003
		c-0.774,0.037-1.58-0.687-2.947-1.329c1.53-1.063,2.322-1.768,3.234-2.217c2.841-1.418,4.989-3.479,6.063-6.476
		c0.487-1.349,1.393-2.098,2.61-2.473c1.492-0.456,3.028-0.861,4.577-0.999c4.171-0.375,6.937-2.86,8.966-6.132
		c2.092-3.372,3.634-7.068,4.284-11.052c0.331-2.061,0.693-3.934,2.816-5.188c1.005-0.593,1.63-2.161,1.998-3.409
		c0.45-1.586,0.644-3.304,0.625-4.952c-0.031-2.866,0.687-5.263,2.747-7.399c3.772-3.877,4.839-8.673,3.959-13.937
		c-0.712-4.252-1.161-8.417,0.419-12.669c1.879-5.033,0.68-9.51-3.622-12.9c-1.317-1.037-1.805-2.179-1.58-3.771
		c0.137-0.931,0.231-1.874,0.274-2.816c0.15-3.228,0.337-6.456,0.356-9.69c0-0.887-0.313-1.936-0.843-2.642
		c-3.74-4.964-6.744-6.481-12.02-4.639c-1.087,0.381-2.18,0.8-3.303,0.974c-1.817,0.299-2.46-0.287-2.654-2.117
		c-0.137-1.349-0.156-2.722-0.431-4.046c-0.55-2.778-2.154-4.127-5.008-4.277c-1.037-0.057-2.104-0.006-3.122,0.194
		c-3.153,0.618-5.863,0.094-8.423-2.08c-1.798-1.542-4.021-2.616-6.15-3.727c-3.703-1.936-7.518-3.659-11.196-5.639
		c-2.272-1.236-4.626-1.886-7.181-1.979c-1.249-0.05-2.535,0.125-3.759-0.094c-4.058-0.73-7.337,0.75-10.446,3.179
		c-3.465,2.704-6.993,5.338-10.615,7.83c-4.758,3.278-9.909,4.92-15.71,3.066l-1.224-0.25c-2.36-0.743-4.49-0.131-6.656,0.88
		c-3.49,1.636-6.394,3.971-8.873,6.862c-1.455,1.705-2.935,2.354-5.183,1.324c-1.998-0.906-3.153-0.531-4.102,1.037
		c-2.272,3.753-3.74,9.953,0.974,14.423c0.762,0.718,1.524,1.437,2.33,2.104c3.266,2.704,3.708,6.1,2.503,9.94
		c-0.524,1.692-1.105,3.391-1.417,5.126c-1.268,7.149-0.711,13.793,5.383,18.895c1.273,1.062,2.36,2.392,3.378,3.715
		c1.823,2.367,3.197,4.883,2.367,8.099c-0.625,2.422-0.893,4.932-1.505,7.349c-0.519,2.042-0.519,3.883,0.687,5.707
		c0.431,0.649,0.737,1.579,0.662,2.329c-0.199,1.96,0.219,3.727,1.062,5.463c0.906,1.854,0.98,3.697,0.394,5.757
		c-0.962,3.359-0.593,6.631,1.773,9.459c1.011,1.205,1.923,2.479,2.934,3.684c1.505,1.786,2.248,3.678,1.542,6.076
		c-0.799,2.71-0.381,5.295,0.843,7.898c2.598,5.538,4.284,11.408,4.309,17.546c0.006,3.479,0.337,7.118-1.748,10.347
		c-1.761,2.717-0.756,5.457,1.042,7.529c2.498,2.885,3.666,6.275,4.914,9.723c0.587,1.63,0.45,3.017-0.468,4.459
		c-2.754,4.339-2.904,8.997-1.786,13.893c0.787,3.44,2.335,6.5,4.208,9.397c1.336,2.066,2.341,4.202,2.716,6.612
		c0.313,2.048,1.124,3.765,2.748,5.126c0.512,0.431,1.011,1.156,1.067,1.799c0.337,3.408,1.149,6.769,0.169,10.266
		c-0.999,3.552-0.175,5.438,3.066,7.367c2.173,1.292,2.972,3.129,3.097,5.426c0.094,1.773-0.025,3.566,0.063,5.339
		c0.175,3.134,1.13,5.963,3.628,8.062c1.13,0.949,2.348,1.923,3.946,1.248c1.629-0.674,2.292-2.135,2.323-3.796
		c0.043-1.979-0.05-3.978-0.181-5.957c-0.225-3.452-0.1-6.73,3.447-8.679l0.462-0.419c3.722-3.689,4.109-7.562,1.524-12.145
		c-1.898-3.372-2.766-6.95-1.068-10.789c0.668-1.512,1.225-3.179,1.343-4.814c0.106-1.599-0.038-3.416-0.73-4.814
		c-1.343-2.697-3.109-5.195-4.777-7.73c-2.616-3.971-4.096-8.022-1.28-12.544l0.387-0.855c2.672-4.876,2.909-9.747-0.112-14.573
		c-0.924-1.475-1.043-2.891-0.006-4.377c1.929-2.735,1.548-5.47,0.043-8.268c-0.893-1.648-1.667-3.384-2.292-5.145
		c-1.199-3.372-0.112-5.421,3.903-6.844c1.592,1.735,3.309,3.702,5.12,5.582c2.691,2.784,6.038,3.858,9.735,2.804
		c2.785-0.793,4.433,0.362,5.788,2.41c1.442,2.186,2.666,4.508,4.146,6.656c1.18,1.704,2.466,3.384,3.965,4.808
		c1.567,1.505,2.791,1.305,4.358-0.207c2.91-2.833,3.534-2.884,6.313,0.007c1.524,1.605,3.166,2.747,5.464,2.474
		c1.717-0.213,2.81,0.505,3.49,2.01c1.455,3.234,3.016,6.425,4.352,9.703c1.674,4.121,4.44,5.42,8.43,3.734
		c0.574-0.243,1.137-0.524,1.723-0.762c2.254-0.911,2.485-0.956,3.778,1.229c1.592,2.691,3.047,5.477,4.383,8.311
		c1.792,3.779,4.739,6.257,8.717,6.956c2.422,0.431,3.696,1.568,4.67,3.534c0.506,1.031,1.118,2.018,1.624,3.048
		c2.348,4.764,5.008,9.21,10.496,10.978l1.049,0.674c2.704,1.873,5.258,3.814,5.439,7.561c0.187,3.723,1.71,7.081,3.097,10.478
		c0.949,2.317,2.329,4.184,4.565,5.383c1.817,0.98,3.053,2.441,3.777,4.415c0.693,1.86,1.53,3.677,2.41,5.45
		c1.23,2.461,3.465,3.991,5.033,3.578c1.63-0.431,2.491-2.223,2.41-5.301c-0.031-1.349-0.724-2.847-0.331-4.016
		C185.012,270.006,184.144,267.178,183.694,264.331 M88.429,131.164c-0.649,0.412-1.474,0.581-2.242,0.75
		c-1.705,0.399-3.484,0.568-5.139,1.118c-1.873,0.625-3.728,1.411-5.451,2.385c-1.324,0.756-2.604,1.761-3.559,2.928
		c-1.374,1.692-2.991,2.866-5.202,3.753c-0.75-0.63-1.467-1.374-2.31-1.942c-3.697-2.492-5.932-2.672-8.885-0.456
		c-0.806,0.606-1.749,1.012-3.341,1.911c0.3-1.973,0.381-3.259,0.712-4.477c0.306-1.099,0.93-2.104,1.336-3.178
		c1.249-3.297,0.868-4.677-2.142-6.588c-1.236-0.78-1.705-1.68-1.673-3.065c0.05-2.092,0.019-4.19,0.006-6.288
		c-0.012-3.091-1.243-5.401-4.127-6.794c-1.936-0.937-2.104-1.611-1.629-3.759c0.299-1.311,0.549-2.66,0.699-4.002
		c0.531-4.521-1.729-7.668-5.051-10.347c-0.568-0.456-1.149-1.324-1.13-1.992c0.075-3.203-0.993-6.406,0.263-9.622
		c0.793-2.042-0.5-3.678-1.886-4.996c-2.173-2.048-2.429-4.533-1.892-7.218c0.443-2.26,1.48-2.941,3.747-2.629
		c0.618,0.094,1.268,0.106,1.86,0.281c5.146,1.555,9.198-0.399,12.782-3.921c0.593-0.587,1.217-1.156,1.798-1.755
		c1.967-2.036,4.396-2.754,7.144-2.466c1.773,0.181,3.521,0.605,5.289,0.699c2.285,0.125,4.571,0.038,7.118,0.038
		c4.995,9.072,7.137,10.159,14.83,7.361c1.848,1.867,3.927,3.56,2.572,6.856c-0.618,1.518-0.056,3.135,1.024,4.402
		c1.486,1.755,2.972,3.516,4.602,5.133c1.105,1.105,2.454,1.967,3.722,2.96c-0.812,1.342-1.199,2.054-1.655,2.71
		c-1.854,2.679-2.223,4.552-0.206,6.862c2.785,3.178,1.324,6.525,1.161,9.866l-0.393,0.824c-1.985,2.236-4.009,4.452-5.988,6.694
		c-1.96,2.217-2.547,4.989-2.997,7.78c-0.262,1.648-0.355,3.329-0.618,4.983C91.232,128.104,90.327,129.977,88.429,131.164"/>
	<path fill="#11B0C8" d="M997.936,129.072c-1.467-0.711-2.871-0.375-4.246,0.219c-3.54,1.53-7.131,2.972-10.571,4.702
		c-2.223,1.111-4.569,2.348-6.243,4.109c-5.239,5.532-12.781,7.542-18.401,12.432l-0.562,0.274
		c-5.033,2.029-9.973,4.358-15.136,5.988c-4.502,1.418-9.129,2.272-12.163,6.581c-0.075-1.123,0.024-2.035,0.336-2.872
		c0.925-2.466,0.5-4.739-0.842-6.888c-0.993-1.598-2.123-3.115-3.109-4.72c-0.476-0.768-1.063-1.667-1.05-2.492
		c0.051-2.054-0.861-3.546-2.01-5.12c-0.737-1.03-1.343-2.422-1.38-3.665c-0.194-6.475-0.163-12.951-0.288-19.419
		c-0.063-3.259-1.467-5.789-4.326-7.524c-0.831-0.506-1.762-1.38-2.005-2.254c-1.736-6.326-5.545-12.002-5.832-18.776
		c-0.038-0.718-0.25-1.455-0.506-2.129c-2.061-5.37-4.04-10.771-6.281-16.059c-0.924-2.186-2.36-4.19-3.766-6.132
		c-0.537-0.725-1.86-1.592-2.473-1.374c-0.898,0.306-1.898,1.455-2.079,2.392c-0.324,1.705-0.131,3.515-0.063,5.289
		c0.175,5.414,0.394,10.84,0.605,16.347c-3.409,0.762-4.233,3.035-4.04,5.757c0.263,3.641,0.687,7.262,1.1,10.883
		c0.237,2.073,0.768,4.122,0.83,6.194c0.113,4.077,0.044,8.167-0.025,12.244c-0.074,4.571,0.668,8.992,2.636,13.113
		c1.636,3.458,2.653,7.03,2.822,10.839c0.094,1.98,0.2,3.972,0.138,5.952c-0.057,1.96,0.655,3.502,2.16,4.646
		c1.049,0.793,2.248,1.385,3.99,2.435c-1.361,4.938-2.617,10.003-4.165,14.985c-1.479,4.783-3.485,9.372-2.116,14.643
		c0.623,2.379-0.332,3.354-2.705,4.171c-1.479,0.513-3.027,0.844-4.488,1.411c-3.791,1.479-7.65,2.835-11.296,4.634
		c-3.141,1.555-3.322,3.546-1.1,6.287l0.481,0.693l-0.362,0.587c-0.706,0.437-1.43,0.855-2.173,1.236
		c-4.739,2.454-8.566,5.988-11.945,10.034c-2.291,2.747-2.329,4.596-0.468,7.399c2.167,3.253,2.116,4.34-0.749,6.93
		c-3.484,3.16-7.057,6.227-10.641,9.267c-1.623,1.38-2.997,2.86-3.746,4.921c-0.25,0.692-0.855,1.523-1.498,1.755
		c-3.797,1.379-6.17,4.195-8.018,7.586c-1.643,3.022-3.84,5.482-6.912,7.075c-1.661,0.854-3.472,1.436-5.102,2.348
		c-7.287,4.077-13.269,9.821-19.226,15.541c-1.368,1.312-2.173,3.291-2.966,5.083c-0.831,1.854-1.229,3.84,0.692,5.432
		c1.618,1.336,3.547,1.343,5.839-0.006l1.28-0.899c4.245-3.565,8.423-7.205,12.737-10.684c1.6-1.293,3.397-2.554,5.313-3.19
		c3.747-1.249,7.624-2.142,11.495-3.01c4.184-0.949,7.824-2.66,10.859-5.845c4.033-4.246,8.305-8.267,12.494-12.369
		c0.668-0.649,1.387-1.305,2.18-1.779c2.709-1.636,4.688-3.959,5.825-6.813c2.011-5.07,5.357-9.191,8.823-13.256
		c1.555-1.83,3.277-3.534,4.726-5.452c0.919-1.211,1.761-2.627,2.124-4.09c1.148-4.521,3.733-7.829,7.58-10.352
		c5.332-3.509,10.564-7.137,15.872-10.689c2.322-1.549,4.021-3.578,5.282-6.076c0.793-1.567,1.805-3.065,2.93-4.42
		c3.228-3.903,7.367-6.313,12.257-7.75c7.842-2.304,13.417-7.461,16.945-14.773c0.925-1.91,2.329-3.203,4.028-4.239
		c1.148-0.712,2.403-1.287,3.671-1.761c3.684-1.387,6.819-3.578,9.765-6.157c1.725-1.511,3.548-3.003,5.553-4.071
		c6.068-3.209,11.426-7.368,16.39-12.051c2.892-2.722,5.651-5.6,8.342-8.517C1000.69,131.957,1000.197,130.165,997.936,129.072"/>
	<path fill="#11B0C8" d="M487.942,185.581c-1.742-4.171-3.291-8.349-3.01-13.013c0.194-3.216-0.081-6.456,0.038-9.678
		c0.094-2.604,0.194-5.252,0.774-7.774c1.03-4.471,2.385-8.879,3.678-13.288c0.606-2.054,0.475-4.002-0.862-5.65
		c-1.898-2.354-2.104-4.989-1.461-7.711c0.8-3.347,1.874-6.637,2.761-9.966c0.318-1.192,0.68-2.447,0.618-3.659
		c-0.094-2.066-0.912-3.978-2.96-4.82c-2.186-0.906-4.14-0.063-5.639,1.617c-1.03,1.156-2.104,2.423-2.66,3.841
		c-0.987,2.51-1.692,5.151-2.342,7.78c-1.267,5.151-2.417,10.34-3.621,15.504l-0.418,1.18c-2.46,3.796-3.315,8.067-3.89,12.457
		c-0.293,2.278-1.499,3.778-3.64,5.045c-3.097,1.843-5.982,4.184-8.561,6.712c-2.448,2.393-4.408,5.283-6.568,7.962
		c0.062-1.829-0.037-3.685,0.281-5.457c1.111-6.157,2.398-12.289,3.59-18.445c0.593-3.072,1.237-6.157,1.624-9.26
		c0.193-1.617,0.169-3.39-0.293-4.932c-0.575-1.905-1.736-3.672-4.078-3.815c-2.229-0.15-3.752,1.067-4.827,2.91
		c-0.362,0.631-0.681,1.299-0.956,1.973c-2.747,6.813-5.476,13.631-8.398,20.906c-0.974-4.446-2.791-7.675-7.78-6.531
		c-1.748-2.904-2.179-5.92-2.772-8.873c-0.474-2.342-1.592-4.29-3.222-5.994c-1.261-1.318-2.859-1.318-4.371-0.762
		c-1.542,0.575-2.579,1.68-2.579,3.553c0,1.555-0.243,3.109-0.356,4.67c-0.188,2.591-0.5,5.189-0.512,7.78
		c-0.006,2.71,0.156,5.439,0.468,8.136c0.468,4.034-1.998,6.682-4.109,9.892c-1.042-2.124-2.085-3.834-2.747-5.689
		c-0.45-1.242-0.25-2.696-0.537-4.014c-0.456-2.036-1.143-4.016-1.605-6.051c-0.524-2.329-0.949-4.683-1.349-7.025
		c-0.193-1.136-0.137-2.303-0.343-3.428c-0.999-5.432-2.554-10.764-2.573-16.365c-0.006-1.749-0.256-3.553-0.705-5.245
		c-0.513-1.904-1.93-2.91-3.379-2.579c-1.854,0.431-3.715,1.055-4.714,2.834c-1.011,1.811-1.954,3.69-2.666,5.638
		c-0.75,2.055-1.193,4.221-1.754,6.344c-0.387,1.486-1.218,2.404-2.866,2.323c-3.016-0.137-4.533,1.754-5.607,4.183
		c-0.755,1.724-1.292,3.547-2.167,5.208c-2.304,4.414-2.885,8.904-0.98,13.606c0.649,1.604,0.799,3.24,0.194,4.889
		c-2.08,5.675-3.079,11.757-6.45,16.959c-0.668,1.03-1.255,2.278-1.355,3.478c-0.175,2.029-0.649,4.546,0.281,6.069
		c1.68,2.704,1.999,5.389,1.917,8.336c-0.025,0.618,0.063,1.267,0.207,1.867c0.487,1.923,1.998,3.296,3.652,3.384
		c1.823,0.087,2.947-0.849,3.628-3.21c0.505-1.723,1.111-3.315,2.454-4.626c1.562-1.537,1.893-3.56,1.124-5.539
		c-0.618-1.623-0.15-2.828,0.743-4.065c0.675-0.93,1.48-1.797,2.011-2.796c0.512-0.98,1.055-2.099,1.049-3.154
		c-0.031-3.521,1.86-6.031,3.896-8.76c0.712,0.543,1.137,1.062,1.68,1.255c2.491,0.855,3.377,2.922,4.071,5.151
		c0.98,3.197,1.736,6.476,2.96,9.572c1.673,4.265,3.684,8.393,5.582,12.576l0.774,0.979c1.037,1.099,2.254,1.398,3.709,0.905
		c1.917-0.631,3.066-1.936,3.079-3.909c0.012-4.17-0.131-8.348-0.244-12.524c-0.063-2.336-0.218-4.678-0.343-7.375
		c2.204,1.175,3.072,2.511,2.885,4.521c-0.088,0.931,0.075,1.898-0.069,2.816c-0.568,3.608,1.779,5.588,4.14,7.543
		c0.905,0.743,2.029,0.756,2.891-0.044c2.236-2.085,4.427-4.221,3.997-7.736c-0.119-0.911-0.144-1.904,0.081-2.785
		c0.868-3.378,0.55-6.625-0.768-9.81c-0.438-1.049-0.63-2.054,0.025-3.334c1.523,1.387,3.109,2.366,4.04,3.784
		c2.192,3.297,4.127,6.769,6.038,10.24c1.511,2.741,2.791,5.601,4.258,8.367c0.768,1.442,1.905,2.584,3.715,2.416
		c1.836-0.175,3.066-1.161,3.578-3.022c0.318-1.167,0.787-2.291,1.249-3.608l0.406,0.449l0.125,0.924
		c0.255,4.271,2.572,6.9,6.487,8.343c1.367,0.499,2.703,1.099,3.965,1.805c5.12,2.865,10.92,1.797,14.574-2.742
		c0.575-0.711,1.118-1.448,1.929-2.503c0.344,1.586,0.618,2.791,0.85,3.996c0.599,2.979,2.054,5.482,4.227,7.549
		c2.049,1.948,4.839,2.092,7.188,0.5c2.066-1.405,3.159-3.216,2.94-5.819C490.87,194.279,489.721,189.858,487.942,185.581
		 M388.162,157.62c1.817-4.839,3.528-9.372,5.232-13.912l0.812,0.206c0,2.385-0.343,4.833,0.094,7.137
		c0.412,2.122,1.667,4.09,2.735,6.568H388.162z M469.846,181.285c-1.055,0.874-1.848,2.067-2.847,3.029
		c-1.711,1.66-3.853,1.366-4.19-0.825c-0.318-2.029,0.231-4.221,0.568-6.313c0.331-2.049,1.18-3.516,3.441-4.421
		c2.017-0.824,3.609-2.691,5.938-4.515C473.281,173.287,474.104,177.744,469.846,181.285"/>
	<path fill="#11B0C8" d="M340.145,88.973c-2.242,0.375-4.589,0.562-6.669,1.399c-2.497,0.999-4.976,2.329-7.099,3.977
		c-6.351,4.933-12.557,10.065-18.77,15.179c-1.542,1.274-2.885,2.841-5.114,2.629c-1.923-0.181-3.478,0.575-4.901,1.717
		c-2.286,1.823-4.496,3.759-6.807,5.557c-1.062,0.825-2.21,1.599-3.44,2.136c-2.066,0.912-4.227,1.617-6.375,2.416
		c-1.442-2.541-1.561-5.195-0.15-7.948c0.575-1.111,1.062-2.316,1.262-3.534c0.593-3.584,1.398-7.156-0.7-10.665
		c-0.63-1.049-0.418-2.616-0.531-3.958c-0.15-1.761,0.244-3.772-0.462-5.245c-1.187-2.454-0.75-4.596,0.031-6.887
		c0.299-0.893,0.625-1.78,0.868-2.685c1.081-3.99,1.43-8.036,0.605-12.113c-0.905-4.521-4.795-5.932-8.492-3.128
		c-0.668,0.5-1.33,0.999-1.936,1.455c-3.709-0.937-4.421-0.837-6.05,1.585c-0.731,1.087-1.268,2.448-1.424,3.741
		c-0.206,1.854,0.075,3.759,0.037,5.644c-0.105,5.845,0.4,11.808-0.581,17.502c-1.273,7.38-2.947,14.761-5.694,21.823
		c-0.824,2.116-1.074,4.458-1.586,6.693c-0.481,2.129-0.831,4.296-1.468,6.376c-0.993,3.284-2.267,6.487-3.253,9.784
		c-0.343,1.162-0.362,2.504-0.212,3.729c0.25,2.022,1.455,3.471,3.402,4.12c1.755,0.587,3.035-0.324,4.103-1.604
		c1.261-1.53,2.485-3.091,3.777-4.608c0.556-0.65,1.218-1.206,1.835-1.805l0.743,0.418c-0.437,1.773-0.905,3.553-1.311,5.346
		c-0.306,1.311-0.718,2.641-0.737,3.965c-0.063,4.87-0.75,9.51-3.353,13.799c-1.086,1.799-1.705,4.246,0.144,5.819
		c2.017,1.724,1.78,3.603,1.411,5.664c-1.155,6.487-2.329,12.962-3.553,19.431c-0.212,1.124-0.556,2.248-1.043,3.278
		c-1.686,3.541-2.26,7.343-3.109,11.12c-0.905,4.059,0.98,6.632,3.384,9.186c1.455,1.555,2.916,1.717,4.383,0.199
		c1.424-1.467,2.897-3.19,3.497-5.07c1.236-3.896,2.566-7.717,4.314-11.407c0.437-0.937,0.68-1.985,0.899-2.997
		c0.855-3.989,1.661-7.986,2.491-11.977c0.78-3.777,1.568-7.549,2.46-11.813c3.334,1.561,4.945-0.624,6.681-2.697
		c0.387-0.474,1.124-0.655,1.873-1.062c0.7,1.86,1.055,3.565,1.942,4.927c0.887,1.354,2.323,2.359,3.49,3.54l0.718,1.023
		c2.635,4.877,5.551,9.686,5.938,15.393c0.243,3.546,2.011,6.082,4.627,8.18c3.097,2.479,4.852,5.825,5.626,9.534
		c1.074,5.083,3.634,9.335,6.681,13.319c1.355,1.772,1.998,3.564,2.235,5.7c0.194,1.748,0.35,3.635,1.125,5.157
		c1.298,2.555,2.291,5.083,2.503,7.98c0.15,2.117,1.823,3.378,3.809,3.409c2.21,0.025,3.291-0.894,3.828-3.297
		c0.093-0.399,0.106-0.824,0.175-1.448c3.141,0.05,4.695-0.781,5.095-3.191c0.549-3.297,0.905-6.644-0.387-9.909
		c-0.618-1.555-1.124-3.153-1.648-4.745c-3.072-9.342-6.025-18.688-6.537-28.654c-0.132-2.354-1.405-4.827-2.71-6.894
		c-2.217-3.496-3.891-7.036-4.552-11.201c-0.899-5.633-3.203-7.612-8.817-8.548c-2.11-0.356-4.021-1.006-5.351-2.892
		c-3.016-4.276-6.119-8.491-9.166-12.731c-0.431-0.6-0.762-1.255-1.136-1.886c-1.018-1.686-1.967-3.416-3.054-5.052
		c-2.198-3.328-0.98-7.243,2.792-8.692c2.347-0.893,4.708-1.729,7.049-2.628c6.668-2.554,11.295-6.887,13.025-14.111
		c1.011-4.189,3.178-7.743,7.549-9.391c0.88-0.331,1.661-0.905,2.516-1.292c4.365-2.017,7.505-5.264,9.547-9.579
		c0.793-1.667,2.085-2.747,3.472-3.921c2.947-2.491,5.664-5.257,8.398-7.992c0.824-0.818,1.355-1.88,0.693-3.128
		C342.387,89.272,341.394,88.76,340.145,88.973"/>
	<path fill="#11B0C8" d="M807.899,224.868c1.037-1.436,1.374-3.122,0.867-4.782c-0.816-2.686-1.734-5.357-2.827-7.949
		c-1.793-4.202-2.816-8.373-2.079-13.087c1.154-7.418-0.488-14.468-5.009-20.5c-1.936-2.578-2.642-5.02-2.217-8.086
		c0.27-1.948,0.251-3.952-0.898-5.781c-2.623-4.165-5.139-8.386-9.673-10.902c-1.586-0.874-1.529-2.754,0.032-3.796
		c0.955-0.631,2.092-0.962,3.097-1.524c1.816-1.005,3.728-1.917,5.363-3.178c2.036-1.574,4.197-2.679,6.73-3.16
		c0.98-0.188,1.924-0.706,2.823-1.192c3.06-1.648,5.064-4.29,6.813-7.206c1.018-1.698,1.386-3.478,1.173-5.408
		c-0.137-1.248-0.155-2.535-0.499-3.727c-0.487-1.673-0.837-3.628-1.942-4.827c-2.085-2.279-3.428-4.958-5.076-7.474
		c-0.999-1.542-1.367-2.735-0.286-4.515c1.592-2.61,0.968-4.939-1.256-7.037c-2.46-2.298-5.276-3.335-8.635-2.573
		c-2.804,0.63-5.401-0.031-7.88-1.292c-3.891-1.986-6.388-1.792-9.248,1.43c-2.903,3.278-5.464,6.869-8.161,10.328
		c-0.425,0.542-0.812,1.117-1.305,1.804c-1.63-1.499-1.499-3.303-1.711-5.026c-0.475-3.834-0.861-7.687-1.63-11.458
		c-0.455-2.241-1.967-3.216-3.722-3.229c-1.916-0.024-3.689,1.349-4.271,3.51c-0.236,0.861-0.137,1.823-0.168,2.741
		c-0.1,2.704-0.038,5.42-0.318,8.111c-0.531,5.189-1.667,10.347-1.798,15.542c-0.138,5.701-0.975,11.214-2.186,16.753
		c-0.406,1.879-0.193,3.921-0.069,5.881c0.157,2.523,1.661,4.165,3.828,5.357c2.697,1.474,3.341,3.304,2.186,6.231
		c-0.644,1.655-1.53,3.21-2.173,4.871c-1.105,2.848-1.287,5.781,0.243,8.504c1.654,2.954,1.705,5.788,0.774,9.023
		c-0.73,2.547-1.03,5.413-0.687,8.028c0.442,3.373,0.474,6.657,0.068,9.985c-0.169,1.348-0.33,2.741-0.156,4.064
		c0.144,1.055,0.581,2.26,1.293,3.028c2.666,2.872,6.938,2.191,8.454-1.536c0.875-2.166,1.23-4.664,1.268-7.012
		c0.063-3.641,0.799-6.969,2.292-10.303c1.087-2.423,1.479-5.195,1.985-7.843c0.299-1.598,0.213-3.259,0.28-4.439
		c0.743,0.55,1.667,1.187,2.561,1.873c4.233,3.24,7.287,7.442,9.891,12.032c0.975,1.718,2.11,3.435,3.509,4.802
		c2.997,2.923,4.141,6.362,3.94,10.471c-0.094,1.961-0.081,4.091,0.593,5.871c1.3,3.452,2.174,6.961,2.872,10.57
		c0.65,3.303,1.949,6.426,4.496,8.81C802.129,228.153,805.782,227.809,807.899,224.868 M783.59,134.004
		c-0.811,1.511-2.129,2.742-3.34,4.228c-0.737-0.518-1.398-0.749-1.667-1.211c-1.212-2.085-2.653-3.915-4.546-5.47
		c-0.693-0.568-0.706-1.948-1.093-3.16c3.253-0.755,5.052-2.479,6.15-5.213c1.867-4.614,2.91-5.089,9.166-4.496
		c-4.596,3.103-4.564,6.806-3.578,10.958C784.997,130.958,784.284,132.7,783.59,134.004"/>
	<path fill="#11B0C8" d="M808.823,149.659c-2.397,0.63-3.402,2.298-2.928,4.683c0.549,2.772,2.229,4.34,5.032,4.09
		c2.448-0.218,4.439,0.656,6.601,1.474c3.253,1.236,5.738,4.283,9.803,3.791c-0.256,0.805-0.318,1.348-0.574,1.772
		c-1.637,2.791-2.242,5.782-2.342,8.997c-0.05,1.462-0.768,3.017-1.536,4.322c-1.03,1.761-1.36,3.521-0.83,5.407
		c0.418,1.504,0.899,3.034,1.661,4.383c0.905,1.604,0.955,2.916,0.174,4.651c-1.667,3.747-2.116,7.644-0.049,11.496
		c0.33,0.624,0.592,1.398,0.562,2.085c-0.231,4.483,0.131,9.147-0.999,13.394c-1.58,5.907-1.718,11.771-1.58,17.721
		c0.063,2.723,0.624,5.445,2.323,7.692c1.629,2.148,3.659,1.967,5.014-0.35c0.313-0.531,0.48-1.154,0.668-1.755
		c0.917-2.984,1.823-5.975,2.704-8.984c0.468-1.599,1.067-3.19,1.267-4.827c0.838-7.043,1.637-14.099,2.28-21.161
		c0.355-3.921,0.979-7.667,3.334-10.952c0.53-0.742,1.005-1.679,1.074-2.56c0.225-3.01,0.643-6.063-0.494-9.011
		c-0.524-1.348-0.462-2.635,0.256-3.908c2.148-3.827,2.354-7.924,1.83-12.17c-0.243-1.936-0.213-3.915-0.307-5.869l0.763-0.556
		c1.086,0.506,2.379,0.78,3.222,1.555c3.59,3.303,7.961,3.641,12.338,2.966c2.423-0.38,4.24-0.006,6.094,1.393
		c2.398,1.816,5.151,2.754,8.168,2.872c4.239,0.149,5.857-1.305,6.05-5.407c0.856-0.618,1.762-1.161,2.548-1.842
		c2.154-1.88,2.354-4.202,0.338-6.27c-0.986-1.018-2.279-1.892-3.604-2.391c-1.741-0.656-3.627-1.013-5.482-1.256
		c-1.329-0.174-2.328-0.624-3.209-1.654c-1.717-2.029-4.009-2.953-6.649-2.997c-1.979-0.031-3.965-0.007-5.989-0.007
		c-2.666-3.671-3.483-3.933-8.447-3.271c-2.129,0.274-4.314,0.812-6.801-0.275c0.507-1.611,0.838-3.253,1.524-4.715
		c2.061-4.395,3.452-8.998,4.314-13.73c0.938-5.151,1.937-10.252,4.371-14.961l0.187-0.599c0.544-3.615,0.65-7.093-2.453-9.822
		c-2.473-2.167-2.529-2.735-0.887-5.57c1.68-2.897,3.509-5.713,5.033-8.686c0.887-1.729,1.654-3.659,1.854-5.563
		c0.387-3.827-2.236-6.019-6.082-5.407c-3.441,0.549-5.501,2.76-6.869,5.801c-0.979,2.179-2.041,4.321-3.085,6.487
		c-2.672,5.545-5.487,11.021-6.275,17.284c-0.28,2.242-1.142,4.421-1.897,6.581c-1.167,3.378-2.123,6.8-2.06,10.403
		c0.037,2.46-0.5,4.746-1.593,6.956c-1.474,2.997-1.867,6.12-1.205,9.46c0.743,3.747-0.419,5.077-4.152,5.095
		c-2.036,0.006-3.989,0.193-5.613,1.561c-1.43,1.205-3.091,1.654-4.914,1.761C810.472,149.315,809.628,149.447,808.823,149.659"/>
	<path fill="#11B0C8" d="M240.752,176.014c-3.74,2.691-6.182,2.717-9.972,0.069c-1.118-0.78-2.173-1.648-3.303-2.398
		c-1.979-1.323-4.052-1.761-6.082-0.112c-1.23,0.993-2.479,0.968-3.791,0.294c-2.204-1.143-4.265-0.705-6.231,0.543
		c-1.504,0.943-2.903,2.067-4.433,2.954c-2.11,1.211-4.065,0.094-4.096-2.329c-0.013-0.813,0.15-1.687,0.48-2.429
		c0.674-1.523,1.474-2.991,2.292-4.44c1.03-1.811,2.335-3.502,3.16-5.401c1.892-4.37,1.199-6.53-2.616-9.06
		c-0.431-0.287-0.868-0.562-1.562-1.012c0.543-4.046,3.141-6.425,5.888-8.729c3.684-3.085,7.405-6.132,10.952-9.373
		c1.986-1.817,3.303-4.089,1.917-6.924c1.979-1.249,3.971-1.724,6.113-1.705c1.78,0.013,3.56,0.019,5.339-0.05
		c4.496-0.175,8.417-1.604,11.177-5.363c1.168-1.599,1.71-3.422,0.725-5.302c-0.899-1.729-2.448-2.516-4.408-2.429
		c-3.441,0.149-6.887,0.2-10.315,0.506c-1.555,0.143-2.81,0.156-3.915-1.174c-1.211-1.455-2.897-1.936-4.802-1.817
		c-4.727,0.306-8.998,1.892-12.613,4.927c-1.117,0.937-2.223,2.466-2.404,3.846c-0.443,3.484-2.354,5.108-5.569,5.688l-1.493,0.462
		c-6.256,1.792-8.323,4.333-9.179,10.702c-0.35,2.66-0.706,5.526-1.929,7.824c-1.749,3.247-2.666,6.525-2.866,10.127
		c-0.125,2.38-1.049,4.434-2.672,6.206c-1.13,1.23-2.41,2.423-3.159,3.879c-0.987,1.904-1.836,3.996-2.18,6.106
		c-0.437,2.629,1.28,4.345,3.928,4.545c0.475,0.037,0.949,0.006,1.723,0.006c-0.681,1.169-1.361,1.992-1.686,2.948
		c-0.631,1.854-1.368,3.753-1.53,5.669c-0.256,2.997,1.167,4.396,4.221,4.633c1.46,0.119,2.928,0.051,4.395,0.082
		c3.048,0.075,4.003,1.08,3.41,4.064c-0.537,2.754,0.012,5.126,2.292,6.687c2.104,1.456,2.535,3.354,2.585,5.646
		c0.031,1.455,0.181,2.941,0.586,4.334c0.306,1.048,0.943,2.098,1.692,2.909c1.286,1.411,3.084,1.566,4.464,0.287
		c1.192-1.117,2.254-2.479,3.035-3.915c1.192-2.198,1.986-4.621,3.153-6.831c0.924-1.735,2.004-3.435,3.271-4.926
		c1.105-1.306,2.485-1.905,4.452-1.162c1.199,0.455,2.904,0.156,4.184-0.331c1.53-0.58,2.985-1.561,4.208-2.66
		c2.129-1.929,4.396-2.459,7.212-1.991c6.463,1.074,12.407-3.197,13.443-9.653c0.218-1.33-0.063-3.004-0.743-4.146
		C246.06,173.855,243.718,173.879,240.752,176.014"/>
	<path fill="#11B0C8" d="M740.951,158.837c-2.292-2.766-2.854-5.413-1.312-8.636c0.98-2.072,1.992-4.177,2.598-6.375
		c1.505-5.395,1.393-10.715-1.318-15.816c-0.567-1.068-0.836-2.361-0.961-3.578c-0.287-2.591-1.174-4.746-3.097-6.637
		c-3.397-3.347-7.056-6.138-11.621-7.743c-6.281-2.198-12.112-1.467-16.971,3.009c-3.122,2.879-5.532,6.519-8.312,9.772
		c-0.861,1.005-1.798,2.036-2.896,2.735c-4.864,3.091-8.654,6.968-9.604,12.913c-0.562,3.478-1.779,6.493-4.134,9.272
		c-3.022,3.571-3.266,8.94-0.668,12.27c3.428,4.401,4.046,9.259,3.348,14.529c-0.275,2.067-0.406,4.152-0.644,6.67
		c0.268,1.872,0.35,4.202,0.98,6.374c0.729,2.522,2.741,3.846,4.97,3.278c2.604-0.675,4.415,0.53,6.382,1.761
		c1.567,0.986,3.19,1.91,4.889,2.647c0.999,0.438,1.704,0.899,2.229,1.93c1.679,3.29,3.739,4.389,7.449,3.672
		c2.847-0.556,5.569-1.648,8.566-1.087c0.662,0.125,1.512-0.131,2.11-0.486c3.047-1.806,6.532-3.211,8.955-5.652
		c4.32-4.352,8.266-9.159,11.851-14.154c2.141-2.985,3.722-6.507,2.723-10.603C745.515,165.013,743.386,161.791,740.951,158.837
		 M718.09,169.464c1.549,3.203,1.449,3.254,1.138,6.406c-1.931,0.188-3.959,0.382-5.764,0.544c-1.505-2.335-2.835-4.427-4.189-6.5
		c-1.149-1.736-2.573-3.098-4.821-2.991c-1.648,0.075-2.217-0.899-2.485-2.247c-0.286-1.431-0.523-2.879-0.817-4.309
		c-0.83-4.016,0.112-7.531,3.185-10.253c3.003-2.661,4.208-5.714,3.528-9.76c-0.538-3.197,1.723-5.102,4.438-6.432
		c-0.468,2.011-0.98,4.015-1.373,6.038c-0.813,4.109,0.899,7.118,4.215,9.379c0.78,0.53,1.636,0.937,2.41,1.474
		c1.992,1.373,2.397,2.535,1.636,4.839c-0.356,1.087-0.867,2.129-1.305,3.197C716.43,162.416,716.368,165.918,718.09,169.464"/>
	<path fill="#11B0C8" d="M166.111,141.498c-0.119-3.934,0.556-7.692,1.948-11.358c1.031-2.71,1.567-5.576,0.256-8.254
		c-1.456-2.973-1.792-5.944-1.211-9.116v-1.255c-0.163-2.404-1.299-3.578-3.715-3.803c-2.154-0.187-4.134,0.299-5.957,1.517
		c-0.637,0.431-1.479,0.837-2.204,0.793c-3.802-0.231-5.22,0.824-4.739,4.489c0.512,3.971,0.037,7.693-1.349,11.376
		c-0.219,0.581-0.275,1.218-0.406,1.836c-0.475,2.254-0.163,4.177,2.204,5.246c1.505,0.68,1.854,2.016,1.599,3.409
		c-0.244,1.312-0.787,2.579-1.287,3.828c-0.849,2.136-1.898,4.196-2.628,6.362c-1.193,3.566-0.824,6.838,2.385,9.31
		c1.255,0.968,1.904,2.235,1.835,3.796c-0.137,3.123-0.144,6.264-0.574,9.348c-0.287,2.11-0.681,4.165,0.256,6.145
		c0.855,1.798,0.993,3.628,0.556,5.501c-0.531,2.298-0.05,4.358,1.224,6.263c1.155,1.718,1.573,3.609,1.517,5.657
		c-0.037,1.88-0.006,3.766-0.006,5.651h-0.087c0,2.197-0.069,4.401,0.019,6.6c0.106,2.66,0.699,5.207,2.622,7.199
		c2.129,2.198,4.671,1.941,6.301-0.618c0.43-0.699,0.831-1.517,0.917-2.317c0.281-2.478,0.706-5.001,0.525-7.467
		c-0.419-5.97,0.181-11.688,3.065-17.047c0.493-0.898,0.643-1.979,1.012-2.96c1.567-4.083,1.08-7.998-0.949-11.788l-0.293-0.557
		c-1.024-2.035-0.987-3.983,0.262-5.956c1.005-1.586,1.761-3.341,2.816-4.896c2.392-3.49,2.054-8.011-2.604-10.739
		C166.835,146.181,166.186,144.145,166.111,141.498"/>
	<path fill="#11B0C8" d="M154.06,96.391c2.448,1.998,5.301,2.723,8.229,1.661c3.022-1.093,4.477-3.628,4.714-6.818
		c0.318-4.283,0.93-8.479,1.96-12.669c1.105-4.508-1.642-7.3-6.675-6.6c0.269-1.511,0.543-2.709,0.681-3.927
		c0.438-3.609-2.223-6.968-5.382-6.606c-2.41,0.275-4.652,1.162-6.363,3.06c-1.911,2.123-2.579,5.438-1.011,7.824
		c1.405,2.111,0.993,3.802-0.075,5.782c-1.093,2.017-2.129,4.109-2.797,6.282c-0.894,2.954-0.519,5.838,1.942,8.049
		C150.826,93.806,152.461,95.085,154.06,96.391"/>
	<polyline fill="#11B0C8" points="867.417,262.631 867.417,263.232 865.688,263.232 865.688,267.74 864.989,267.74 864.989,263.232 
		863.258,263.232 863.258,262.631 	"/>
	<polyline fill="#11B0C8" points="867.892,262.631 868.878,262.631 870.358,266.947 871.826,262.631 872.806,262.631 
		872.806,267.74 872.157,267.74 872.157,264.75 872.163,264.2 872.163,263.431 870.696,267.74 870.014,267.74 868.51,263.431 
		868.51,263.582 868.547,264.156 868.547,267.74 867.892,267.74 	"/>
</g>
</svg>
