<?xml version="1.0" encoding="utf-8"?>
<!-- Generator: Adobe Illustrator 23.0.1, SVG Export Plug-In . SVG Version: 6.00 Build 0)  -->
<svg version="1.1" id="Layer_1" xmlns="http://www.w3.org/2000/svg" xmlns:xlink="http://www.w3.org/1999/xlink" x="0px" y="0px"
	 viewBox="0 0 468.8 113.4" style="enable-background:new 0 0 468.8 113.4;" xml:space="preserve">
<style type="text/css">
	.st0{fill:#FFFFFF;}
	.st1{fill-rule:evenodd;clip-rule:evenodd;fill:#FFFFFF;}
</style>
<path class="st0" d="M113.7,48h6.3l0.6-3.6h-16.4l-0.6,3.6h6.2l-3.4,19.4h3.9L113.7,48L113.7,48z M123.6,52.2l1.5-8.8h-3.7l-4.2,24
	h3.7l2.3-13.1c0.8-0.5,1.6-0.8,2.3-1.1c0.7-0.2,1.7-0.4,2.8-0.4c0.6,0,1.1,0.1,1.3,0.3c0.2,0.2,0.2,0.6,0.2,1.1l-2.3,13.2h3.7
	l2.3-13.5c0.3-1.5,0.1-2.6-0.5-3.4c-0.6-0.7-1.7-1.1-3.4-1.1c-0.8,0-1.5,0.1-2,0.2c-0.5,0.1-1.1,0.3-1.5,0.6
	c-0.5,0.3-0.9,0.5-1.3,0.9C124.4,51.5,124,51.8,123.6,52.2z M145.4,49.7h-5.5c-1.4,0-2.5,0.4-3.4,1.1c-0.8,0.7-1.3,1.8-1.6,3.3
	l-1.6,9.1c-0.3,1.5-0.1,2.6,0.5,3.3c0.5,0.7,1.5,1.1,3,1.1h5.5c1.4,0,2.5-0.3,3.3-1.1c0.8-0.7,1.4-1.8,1.6-3.3l0.2-1.4h-3.7
	l-0.2,1.3c-0.1,0.5-0.3,0.8-0.5,1c-0.2,0.2-0.5,0.3-0.9,0.3h-4.1c-0.5,0-0.7-0.1-0.9-0.3c-0.2-0.2-0.2-0.5-0.1-1l0.6-3.5h10.1
	l0.9-5.6c0.3-1.5,0.1-2.6-0.5-3.3C147.8,50.1,146.8,49.7,145.4,49.7z M145.2,54.1l-0.5,2.9h-6.4l0.5-2.9c0.1-0.5,0.2-0.8,0.4-1
	c0.2-0.2,0.5-0.3,1-0.3h4.1c0.4,0,0.7,0.1,0.9,0.3C145.2,53.3,145.2,53.6,145.2,54.1L145.2,54.1z M166.3,49.3l-0.4,2.5h3.9l0.5-2.7
	c0.5-3.1-0.7-4.6-3.6-4.6h-7.4c-3,0-4.7,1.5-5.2,4.6l-2.4,13.8c-0.5,3.1,0.6,4.6,3.6,4.6h7.4c2.9,0,4.7-1.5,5.2-4.6l1.4-7.8h-8.5
	l-0.6,3.5h4.6l-0.7,4.1c-0.1,0.5-0.2,0.8-0.4,1c-0.2,0.2-0.5,0.3-0.9,0.3h-6.2c-0.5,0-0.7-0.1-0.9-0.3s-0.2-0.5-0.1-1l2.3-13.3
	c0.1-0.4,0.2-0.7,0.4-0.9c0.2-0.2,0.5-0.3,1-0.3h6.2c0.4,0,0.7,0.1,0.8,0.3C166.3,48.6,166.4,48.9,166.3,49.3L166.3,49.3z
	 M179.6,53.3h1.8l0.6-3.6h-1.3c-1.3,0-2.3,0.3-3.1,0.8c-0.9,0.5-1.6,1.2-2.4,1.9l0.5-2.7H172l-3.1,17.8h3.7l2.2-12.8
	c0.7-0.4,1.5-0.7,2.3-1C177.8,53.4,178.6,53.3,179.6,53.3L179.6,53.3z"/>
<path class="st0" d="M186.7,49.6c-1.8,0-3.1,0.4-4,1.1c-0.8,0.7-1.4,1.9-1.7,3.5l-1.5,8.9c-0.3,1.6-0.1,2.8,0.5,3.5
	c0.6,0.7,1.8,1.1,3.6,1.1c0.8,0,1.5-0.1,2.1-0.2c0.6-0.1,1.1-0.3,1.6-0.6c0.5-0.2,0.9-0.5,1.3-0.9c0.4-0.3,0.8-0.7,1.2-1.1l-0.4,2.6
	h3.7l3.1-17.8h-3.7l-0.5,2.6c-0.3-0.4-0.5-0.8-0.8-1.1c-0.3-0.3-0.6-0.6-1-0.9c-0.4-0.3-0.9-0.4-1.4-0.6
	C188.2,49.6,187.5,49.6,186.7,49.6L186.7,49.6z M183.3,62.7l1.4-8.3c0.1-0.6,0.3-1,0.5-1.2c0.3-0.2,0.8-0.3,1.5-0.3
	c0.6,0,1.1,0,1.6,0.1c0.5,0.1,0.8,0.2,1.2,0.3c0.4,0.1,0.7,0.3,1.1,0.5l1,0.6l-1.5,8.4c-0.8,0.5-1.6,0.8-2.4,1.1
	c-0.8,0.3-1.8,0.4-2.9,0.4c-0.8,0-1.3-0.1-1.5-0.3C183.2,63.7,183.1,63.3,183.3,62.7L183.3,62.7z M201.3,52.2l0.5-2.5h-3.7L195,67.5
	h3.7l2.3-13.1c0.7-0.4,1.5-0.8,2.3-1.1c0.7-0.2,1.7-0.4,2.8-0.4c0.6,0,1.1,0.1,1.3,0.3c0.2,0.2,0.2,0.6,0.2,1.1l-2.3,13.2h3.7
	l2.3-13.5c0.3-1.5,0.1-2.6-0.5-3.4c-0.6-0.7-1.7-1.1-3.4-1.1c-0.8,0-1.4,0.1-2,0.2c-0.5,0.1-1.1,0.3-1.5,0.6
	c-0.5,0.3-0.9,0.5-1.3,0.9S201.7,51.8,201.3,52.2L201.3,52.2z M218.4,49.6c-1.8,0-3.1,0.4-4,1.1c-0.8,0.7-1.4,1.9-1.7,3.5l-1.5,8.9
	c-0.3,1.6-0.1,2.8,0.5,3.5c0.6,0.7,1.8,1.1,3.6,1.1c0.8,0,1.5-0.1,2.1-0.2c0.6-0.1,1.1-0.3,1.6-0.6c0.5-0.2,0.9-0.5,1.3-0.9
	c0.4-0.3,0.8-0.7,1.2-1.1l-0.4,2.6h3.7l4.2-24h-3.7l-1.5,8.8c-0.3-0.4-0.5-0.8-0.8-1.1c-0.3-0.3-0.6-0.6-1-0.9
	c-0.4-0.3-0.9-0.4-1.4-0.6C219.9,49.6,219.2,49.6,218.4,49.6L218.4,49.6z M215,62.7l1.4-8.3c0.1-0.6,0.3-1,0.5-1.2
	c0.3-0.2,0.8-0.3,1.5-0.3c0.6,0,1.1,0,1.6,0.1c0.5,0.1,0.8,0.2,1.2,0.3c0.4,0.1,0.7,0.3,1.1,0.5l1,0.6l-1.5,8.4
	c-0.8,0.5-1.6,0.8-2.4,1.1c-0.8,0.3-1.8,0.4-2.9,0.4c-0.8,0-1.3-0.1-1.5-0.3C214.9,63.7,214.8,63.3,215,62.7L215,62.7z M240.9,48
	h6.3l0.6-3.6h-16.4l-0.6,3.6h6.2l-3.4,19.4h3.9C237.6,67.5,240.9,48,240.9,48z"/>
<path class="st0" d="M254.7,49.7H249c-1.4,0-2.5,0.4-3.4,1.1c-0.8,0.7-1.3,1.8-1.6,3.3l-1.5,9.1c-0.3,1.5-0.1,2.6,0.5,3.3
	c0.5,0.7,1.5,1.1,3,1.1h5.7c1.4,0,2.5-0.3,3.3-1.1c0.8-0.7,1.3-1.8,1.6-3.3l1.6-9.1c0.3-1.5,0.1-2.6-0.5-3.3
	C257,50.1,256.1,49.7,254.7,49.7L254.7,49.7z M254.4,54.3l-1.5,8.6c-0.1,0.5-0.3,0.8-0.5,1c-0.2,0.2-0.5,0.3-1,0.3h-4.3
	c-0.5,0-0.7-0.1-0.9-0.3c-0.2-0.2-0.2-0.5-0.1-1l1.5-8.6c0.1-0.5,0.2-0.8,0.4-1c0.2-0.2,0.5-0.3,1-0.3h4.3c0.4,0,0.7,0.1,0.9,0.3
	C254.4,53.5,254.4,53.8,254.4,54.3z M268,64.9l-0.5,2.5h3.7l3.1-17.8h-3.7l-2.3,13.1c-0.8,0.5-1.6,0.8-2.4,1.1
	c-0.8,0.3-1.7,0.4-2.8,0.4c-0.6,0-1.1-0.1-1.3-0.3c-0.2-0.2-0.2-0.5-0.1-1.1l2.3-13.2h-3.7L258,63.2c-0.3,1.5-0.1,2.7,0.5,3.4
	c0.6,0.7,1.7,1.1,3.4,1.1c0.8,0,1.4-0.1,2-0.2c0.6-0.1,1.1-0.3,1.6-0.6c0.5-0.2,0.9-0.5,1.3-0.9C267.2,65.7,267.6,65.3,268,64.9
	L268,64.9z M283.9,53.3h1.8l0.6-3.6H285c-1.3,0-2.3,0.3-3.1,0.8c-0.9,0.5-1.6,1.2-2.4,1.9l0.5-2.7h-3.7l-3.1,17.8h3.7l2.2-12.8
	c0.7-0.4,1.5-0.7,2.3-1C282.1,53.4,283,53.3,283.9,53.3L283.9,53.3z"/>
<path class="st0" d="M111.2,30.7c-0.1,0-0.2,0.1-0.2,0.2l-4.6,9.2c0,0.1,0,0.2,0,0.3c0.1,0.1,0.1,0.1,0.3,0.1h1.7
	c0.1,0,0.2-0.1,0.3-0.2v0l1-2.1h2.9l0.2,2c0,0.1,0.1,0.3,0.3,0.3c0,0,0,0,0,0h1.7c0.2,0,0.3-0.1,0.3-0.3c0,0,0,0,0-0.1v0l-1.3-9.2
	c0-0.1-0.1-0.3-0.3-0.3H111.2C111.2,30.7,111.2,30.7,111.2,30.7z M122.6,30.7c-0.1,0-0.2,0.1-0.3,0.2l-1.6,9.2
	c0,0.2,0.1,0.3,0.2,0.3c0,0,0,0,0.1,0h1.5c0.1,0,0.3-0.1,0.3-0.2c0,0,0,0,0,0l0.9-5.2l1,3.9c0,0.1,0.1,0.2,0.3,0.2c0,0,0,0,0,0h1.2
	c0,0,0,0,0,0c0.1,0,0.2-0.1,0.3-0.1l0,0l2.3-3.8l-0.9,4.9c0,0.2,0.1,0.3,0.2,0.3c0,0,0,0,0.1,0h1.5c0.1,0,0.3-0.1,0.3-0.2
	c0,0,0,0,0,0l1.6-9.2c0-0.2-0.1-0.3-0.2-0.3c0,0,0,0-0.1,0h-1.9c0,0,0,0,0,0c-0.1,0-0.2,0.1-0.3,0.1l-3.1,5.2l-1.4-5.2v0
	c0-0.1-0.1-0.2-0.3-0.2c0,0,0,0,0,0H122.6C122.6,30.7,122.6,30.7,122.6,30.7z M140.6,30.7c-0.1,0-0.2,0.1-0.2,0.2l-4.6,9.2
	c0,0.1,0,0.2,0,0.3c0.1,0.1,0.2,0.1,0.3,0.1h1.7c0.1,0,0.2-0.1,0.3-0.2v0l1-2.1h2.9l0.2,2c0,0.1,0.1,0.3,0.3,0.3c0,0,0,0,0,0h1.7
	c0.2,0,0.3-0.1,0.3-0.3c0,0,0,0,0-0.1v0l-1.3-9.2c0-0.1-0.1-0.3-0.3-0.3H140.6C140.6,30.7,140.6,30.7,140.6,30.7L140.6,30.7z
	 M151.8,30.7c-0.1,0-0.2,0.1-0.3,0.2l-0.2,1.4c0,0.2,0.1,0.3,0.2,0.3c0,0,0,0,0.1,0h3.6l-5.2,6.1c0,0,0,0,0,0.1c0,0,0,0,0,0.1
	l-0.2,1.2c0,0.2,0.1,0.3,0.2,0.3c0,0,0,0,0.1,0h6.4c0.1,0,0.3-0.1,0.3-0.2c0,0,0,0,0,0l0.2-1.4c0-0.2-0.1-0.3-0.2-0.3c0,0,0,0-0.1,0
	h-3.8l5.2-6.1c0,0,0,0,0-0.1c0,0,0,0,0-0.1c0,0,0,0,0,0l0,0l0.2-1.2v0c0-0.2-0.1-0.3-0.2-0.3c0,0,0,0-0.1,0L151.8,30.7
	C151.8,30.7,151.8,30.7,151.8,30.7L151.8,30.7z M166.2,30.7c-0.7,0-1.2,0.2-1.6,0.5s-0.7,0.9-0.8,1.6l-1,5.5
	c-0.1,0.7-0.1,1.2,0.3,1.6c0.3,0.4,0.8,0.6,1.5,0.6h3.2c0.6,0,1.2-0.2,1.6-0.5c0.4-0.4,0.7-0.9,0.8-1.6l1-5.5c0,0,0,0,0,0
	c0.1-0.7,0-1.2-0.3-1.6s-0.9-0.6-1.5-0.6C169.3,30.7,166.2,30.7,166.2,30.7z M171.1,32.9C171.1,32.9,171.1,32.9,171.1,32.9
	L171.1,32.9z M178.1,30.7c-0.1,0-0.2,0.1-0.3,0.2l-1.6,9.2c0,0.2,0.1,0.3,0.2,0.3c0,0,0,0,0.1,0h1.5c0.1,0,0.3-0.1,0.3-0.2
	c0,0,0,0,0,0l1-5.7l2.4,5.8c0,0.1,0.2,0.2,0.3,0.2h1.5c0.1,0,0.3-0.1,0.3-0.2c0,0,0,0,0,0l1.6-9.2c0-0.2-0.1-0.3-0.2-0.3
	c0,0,0,0-0.1,0h-1.5c-0.1,0-0.3,0.1-0.3,0.2l-1,5.5l-2.4-5.6c0-0.1-0.2-0.2-0.3-0.2H178.1C178.1,30.7,178.1,30.7,178.1,30.7
	L178.1,30.7z M200.9,30.7c-0.7,0-1.2,0.2-1.6,0.5s-0.7,0.9-0.8,1.6l-1,5.5c-0.1,0.7-0.1,1.2,0.3,1.6c0.3,0.4,0.8,0.6,1.5,0.6h3.2
	c0.6,0,1.2-0.2,1.6-0.5c0.4-0.4,0.7-0.9,0.8-1.6l1-5.5c0,0,0,0,0,0c0.1-0.7,0-1.2-0.3-1.6s-0.8-0.6-1.5-0.6
	C204.1,30.7,200.9,30.7,200.9,30.7z M205.9,32.9C205.9,32.9,205.9,32.9,205.9,32.9L205.9,32.9L205.9,32.9z M212.8,30.7
	c-0.1,0-0.2,0.1-0.3,0.2l-1.6,9.2c0,0.2,0.1,0.3,0.2,0.3c0,0,0,0,0.1,0h1.6c0.1,0,0.3-0.1,0.3-0.2c0,0,0,0,0,0l0.6-3.2h1.4l1,3.2
	c0,0,0,0,0,0c0,0.1,0.1,0.2,0.3,0.2h1.6c0.2,0,0.3-0.1,0.3-0.3c0,0,0-0.1,0-0.1l-1-3.2c0.4-0.1,0.7-0.3,1-0.5
	c0.3-0.4,0.6-0.8,0.7-1.4l0.4-2c0,0,0,0,0,0c0.1-0.7,0-1.2-0.3-1.6c-0.3-0.4-0.9-0.6-1.5-0.6L212.8,30.7
	C212.8,30.7,212.8,30.7,212.8,30.7L212.8,30.7z M219.3,32.9C219.3,32.9,219.3,32.9,219.3,32.9L219.3,32.9z M226.2,30.7
	c-0.1,0-0.2,0.1-0.3,0.2l-1.6,9.2c0,0.2,0.1,0.3,0.2,0.3c0,0,0,0,0.1,0h1.6c0.1,0,0.3-0.1,0.3-0.2c0,0,0,0,0,0l1.6-9.2
	c0-0.2-0.1-0.3-0.2-0.3c0,0,0,0-0.1,0L226.2,30.7C226.2,30.7,226.2,30.7,226.2,30.7L226.2,30.7z M236.6,30.7c-0.7,0-1.2,0.2-1.6,0.5
	c-0.4,0.4-0.7,0.9-0.8,1.6l-1,5.5c-0.1,0.7-0.1,1.2,0.3,1.6c0.3,0.4,0.8,0.6,1.5,0.6h3c0.6,0,1.2-0.2,1.6-0.5
	c0.4-0.4,0.7-0.9,0.8-1.6l0.6-3.1c0-0.2-0.1-0.3-0.2-0.3c0,0,0,0-0.1,0h-3.5c-0.1,0-0.3,0.1-0.3,0.2l-0.2,1.4c0,0.2,0.1,0.3,0.2,0.3
	c0,0,0,0,0.1,0h1.5l-0.2,1.3c0,0.1-0.1,0.2-0.1,0.2c0,0,0,0,0,0c0,0-0.1,0-0.1,0h-2.5c-0.1,0-0.1,0-0.1,0c0,0,0,0,0-0.1c0,0,0,0,0,0
	v0l0.9-5.3c0,0,0,0,0,0c0,0,0,0,0,0c0-0.1,0.1-0.2,0.1-0.2c0,0,0,0,0.2,0h2.5c0.1,0,0.1,0,0.1,0c0,0,0,0,0,0.1l-0.2,1
	c0,0.2,0.1,0.3,0.2,0.3c0,0,0,0,0,0h1.6c0.1,0,0.3-0.1,0.3-0.2l0.2-1.1c0.1-0.7,0-1.2-0.3-1.6c-0.3-0.4-0.9-0.6-1.5-0.6L236.6,30.7
	L236.6,30.7z M248.3,30.7c-0.1,0-0.2,0.1-0.3,0.2l-1.6,9.2c0,0.2,0.1,0.3,0.2,0.3c0,0,0,0,0.1,0h1.6c0.1,0,0.3-0.1,0.3-0.2
	c0,0,0,0,0,0l1.6-9.2c0-0.2-0.1-0.3-0.2-0.3c0,0,0,0-0.1,0L248.3,30.7C248.3,30.7,248.3,30.7,248.3,30.7L248.3,30.7z M257,30.7
	c-0.1,0-0.2,0.1-0.3,0.2l-1.6,9.2c0,0.2,0.1,0.3,0.2,0.3c0,0,0,0,0.1,0h1.5c0.1,0,0.3-0.1,0.3-0.2c0,0,0,0,0,0l1-5.7l2.4,5.8
	c0,0.1,0.2,0.2,0.3,0.2h1.5c0.1,0,0.3-0.1,0.3-0.2c0,0,0,0,0,0l1.6-9.2c0-0.2-0.1-0.3-0.2-0.3c0,0,0,0-0.1,0h-1.5
	c-0.1,0-0.3,0.1-0.3,0.2l-1,5.5l-2.4-5.6c0-0.1-0.2-0.2-0.3-0.2H257C257,30.7,257,30.7,257,30.7L257,30.7z M273.3,30.7
	c-0.1,0-0.2,0.1-0.2,0.2l-4.6,9.2c0,0.1,0,0.2,0,0.3c0.1,0.1,0.2,0.1,0.3,0.1h1.7c0.1,0,0.2-0.1,0.3-0.2v0l1-2.1h2.9l0.2,2
	c0,0.1,0.1,0.3,0.3,0.3c0,0,0,0,0,0h1.7c0.2,0,0.3-0.1,0.3-0.3c0,0,0,0,0-0.1v0l-1.3-9.2c0-0.1-0.1-0.3-0.3-0.3H273.3
	C273.3,30.7,273.3,30.7,273.3,30.7L273.3,30.7z M284.8,30.7c-0.1,0-0.2,0.1-0.3,0.2l-1.6,9.2c0,0.2,0.1,0.3,0.2,0.3c0,0,0,0,0.1,0
	h5.6c0.1,0,0.3-0.1,0.3-0.2l0.2-1.4v0c0-0.2-0.1-0.3-0.2-0.3c0,0,0,0-0.1,0h-3.7l1.3-7.4c0-0.2-0.1-0.3-0.2-0.3c0,0,0,0-0.1,0
	L284.8,30.7C284.8,30.7,284.8,30.7,284.8,30.7L284.8,30.7z M214.4,32.8h2.6c0,0,0.1,0,0.1,0c0,0,0,0,0,0.1l-0.3,1.9
	c0,0.1-0.1,0.2-0.1,0.2c0,0,0,0,0,0c0,0-0.1,0-0.1,0H214L214.4,32.8L214.4,32.8z M166.2,32.8h2.7c0,0,0.1,0,0.1,0c0,0,0,0,0,0.1
	l-0.9,5.3c0,0.1-0.1,0.2-0.1,0.2c0,0,0,0,0,0c0,0-0.1,0-0.1,0h-2.7c-0.1,0-0.1,0-0.1,0c0,0,0,0,0-0.1c0,0,0,0,0,0v0l0.9-5.3
	c0,0,0,0,0,0c0,0,0,0,0,0c0-0.1,0.1-0.2,0.1-0.2C166,32.8,166,32.8,166.2,32.8z M200.9,32.8h2.7c0,0,0.1,0,0.1,0c0,0,0,0,0,0.1
	l-0.9,5.3c0,0.1-0.1,0.2-0.1,0.2c0,0,0,0,0,0c0,0-0.1,0-0.1,0h-2.7c-0.1,0-0.1,0-0.1,0c0,0,0,0,0-0.1c0,0,0,0,0,0v0l0.9-5.3
	c0,0,0,0,0,0c0,0,0,0,0,0c0-0.1,0.1-0.2,0.1-0.2C200.7,32.8,200.8,32.8,200.9,32.8z M111.9,33.5l0.3,2.7h-1.6L111.9,33.5z
	 M141.3,33.5l0.3,2.7H140L141.3,33.5z M274,33.5l0.3,2.7h-1.6L274,33.5z"/>
<path class="st1" d="M39.2,11c-11.2,0-15.7,7.1-16.6,14h188.1l2.2-14L39.2,11L39.2,11z M216.9,11.2l-1.9,14h245.7l2.2-14L216.9,11.2
	L216.9,11.2z M295.4,31.4l-1.9,14h80.8l2.2-14H295.4z M20.8,31.7l-1.9,14h80.8l2.2-14H20.8L20.8,31.7z M291.7,52.2l-1.9,14h80.8
	l2.2-14H291.7z M17.5,52.4l-1.9,14h80.8l2.2-14C98.5,52.4,17.5,52.4,17.5,52.4z M157.5,72l-1.9,14h44.8l2.2-14H157.5z M13.5,72.4
	l-1.9,14h80.8l2.2-14C94.6,72.4,13.5,72.4,13.5,72.4z M288.6,72.4l-1.9,14h80.8l2.2-14H288.6z M284.7,92.5l-1.9,14h68.8
	c6.8,0,12.4-6.2,14.2-14H284.7z M10.1,92.6c-0.7,5.7,0,13.3,9.2,13.3h165.1c9.6,0,12.7-5.3,14.1-13.3H10.1L10.1,92.6z"/>
</svg>
