<svg xmlns="http://www.w3.org/2000/svg" viewBox="0 0 1132.41 764.33"><defs><style>.cls-1{fill:#231f20;}</style></defs><title>westworld</title><g id="Layer_2" data-name="Layer 2"><g id="Layer_1-2" data-name="Layer 1"><path id="path4225" class="cls-1" d="M323.55,608.78,110.69,0H0L212.86,608.78Zm596,0L1132.41,0H1026L813.12,608.78ZM565.18,212.33l108.2,290H782.47L963.4,0H857L728.58,332.06,642.38,97.92H488.63L399.11,332.06,275.87,0H165.18l178.3,502.35H459.1Z"/><g id="text4221"><path id="path4230" class="cls-1" d="M277.87,700.08H262.8l-16.41,48.51-14.67-48.51H214l-14.56,48.51-16.6-48.51H166.44l23.3,63.26h18.53L222.79,717,237,763.34h18.53l22.39-63.26Z"/><path id="path4232" class="cls-1" d="M350.66,763.34V750.59H303.29V738h45.44V725.3H303.29V712.82h46.82V700.08H288.29v63.26Z"/><path id="path4234" class="cls-1" d="M434.62,744.34c0-5.27-1.93-9.44-5.78-12.43S419,727,410.78,726.12l-13.66-1.61a119,119,0,0,1-11.76-1.81,14.73,14.73,0,0,1-5.39-2,3.91,3.91,0,0,1-1.61-3.42,4.13,4.13,0,0,1,1.73-3.62,13.73,13.73,0,0,1,5.54-1.77,73.59,73.59,0,0,1,10.55-.59q20.29,0,20.3,8.38h16.13a16.4,16.4,0,0,0-2-7.63,18.66,18.66,0,0,0-6.18-6.57,36.73,36.73,0,0,0-11-4.61,77.48,77.48,0,0,0-34.94.55c-5.19,1.5-9.12,3.7-11.8,6.53a14.29,14.29,0,0,0-4,10.12A13.77,13.77,0,0,0,369,730.25c4.21,2.84,11,4.84,20.46,5.94l12.71,1.54a85,85,0,0,1,10.27,1.57,11.57,11.57,0,0,1,4.84,2.21,5,5,0,0,1,1.42,3.85c0,2.48-1.54,4.21-4.53,5.23s-7.67,1.54-14,1.54c-7,0-12.43-.83-16.21-2.48s-5.7-3.89-5.7-6.69H361.91a16.52,16.52,0,0,0,4.49,11.65c3,3.22,7.23,5.66,12.82,7.28a72.06,72.06,0,0,0,20.19,2.44q17.28,0,26.24-5.12t9-14.87Z"/><path id="path4236" class="cls-1" d="M511.81,712.74V700.08h-71v12.66h27.73v50.6h15.55v-50.6Z"/><path id="path4238" class="cls-1" d="M626.62,700.08H611.55l-16.4,48.51-14.68-48.51H562.73l-14.56,48.51-16.6-48.51H515.2l23.29,63.26H557L571.54,717l14.17,46.35h18.53l22.38-63.26Z"/><path id="path4240" class="cls-1" d="M669.12,698.82a60.21,60.21,0,0,0-17,2.12,34.13,34.13,0,0,0-12.63,6.65,26.77,26.77,0,0,0-7.71,10.27,35.11,35.11,0,0,0-2.36,13.5q0,16,10.38,24.51t29.28,8.46c8.77,0,16.09-1.22,21.91-3.66a27,27,0,0,0,13.22-11.14q4.49-7.42,4.49-18.17a38.7,38.7,0,0,0-2.28-14,25.49,25.49,0,0,0-7.52-10.11,34.06,34.06,0,0,0-12.63-6.38,64.59,64.59,0,0,0-17.19-2.08Zm0,53.07c-5.83,0-10.51-.82-14.13-2.55a16.38,16.38,0,0,1-7.71-6.81c-1.53-2.79-2.28-6.45-2.28-10.94a22.91,22.91,0,0,1,2.4-11,15.2,15.2,0,0,1,8-6.84,34.91,34.91,0,0,1,13.62-2.4,44.08,44.08,0,0,1,9.64,1,22.07,22.07,0,0,1,7.36,3.07,15,15,0,0,1,4.48,4.17,16.39,16.39,0,0,1,2,5.12,30.51,30.51,0,0,1,.75,6.88c0,6.45-1.5,11.1-4.45,13.93a20.36,20.36,0,0,1-8.38,5,40.35,40.35,0,0,1-11.33,1.41Z"/><path id="path4242" class="cls-1" d="M790.18,718.53q0-9.39-5.9-13.93c-3.93-3-9.48-4.52-16.64-4.52h-45v63.26h15.07V738.67h24.55l16.84,24.67h17.27l-19-27a14.65,14.65,0,0,0,9.08-5.27c2.48-2.91,3.74-7.12,3.74-12.55Zm-14.91,1.22c0,2.52-.63,4.25-1.89,5.27s-3.42,1.5-6.49,1.5H737.74v-14H766a14.05,14.05,0,0,1,5.43.83,6.43,6.43,0,0,1,2.88,2.24,7.69,7.69,0,0,1,.94,4.17Z"/><path id="path4244" class="cls-1" d="M864.94,763.34V750.59H823.59V700.08H808.28v63.26Z"/><path id="path4246" class="cls-1" d="M917.82,763.34a44.71,44.71,0,0,0,14.12-2,22.14,22.14,0,0,0,15-15.55,57.83,57.83,0,0,0,1.58-15c0-6.13-.63-11-1.81-14.55a22,22,0,0,0-5.59-9,24.17,24.17,0,0,0-9.76-5.39,49,49,0,0,0-14-1.81H877.61v63.26Zm15.54-31.16c0,6-.83,10.11-2.4,12.47a12.63,12.63,0,0,1-6.18,4.76,29.22,29.22,0,0,1-10.11,1.46H892.76V712.51h22.3A27.16,27.16,0,0,1,924.9,714a13.69,13.69,0,0,1,6,4.76c1.65,2.52,2.48,7,2.48,13.42Z"/></g></g></g></svg>